  0
SECTION
  2
HEADER
  9
$ACADVER
  1
AC1014
  9
$ACADMAINTVER
 70
     9
  9
$DWGCODEPAGE
  3
ANSI_1252
  9
$INSBASE
 10
0.0
 20
0.0
 30
0.0
  9
$EXTMIN
 10
11.06194881397184
 20
10.0
 30
0.0
  9
$EXTMAX
 10
561.6309775899106
 20
285.1483581935873
 30
0.0
  9
$LIMMIN
 10
0.0
 20
0.0
  9
$LIMMAX
 10
12.0
 20
9.0
  9
$ORTHOMODE
 70
     0
  9
$REGENMODE
 70
     1
  9
$FILLMODE
 70
     1
  9
$QTEXTMODE
 70
     0
  9
$MIRRTEXT
 70
     1
  9
$DRAGMODE
 70
     2
  9
$LTSCALE
 40
12.7
  9
$OSMODE
 70
    23
  9
$ATTMODE
 70
     1
  9
$TEXTSIZE
 40
3.5
  9
$TRACEWID
 40
0.05
  9
$TEXTSTYLE
  7
ONSHAPE-STANDARD
  9
$CLAYER
  8
0
  9
$CELTYPE
  6
BYLAYER
  9
$CECOLOR
 62
   256
  9
$CELTSCALE
 40
1.0
  9
$DELOBJ
 70
     1
  9
$DISPSILH
 70
     0
  9
$DIMSCALE
 40
1.0
  9
$DIMASZ
 40
2.5
  9
$DIMEXO
 40
0.625
  9
$DIMDLI
 40
3.75
  9
$DIMRND
 40
0.0
  9
$DIMDLE
 40
0.0
  9
$DIMEXE
 40
1.25
  9
$DIMTP
 40
0.0
  9
$DIMTM
 40
0.0
  9
$DIMTXT
 40
3.5
  9
$DIMCEN
 40
2.5
  9
$DIMTSZ
 40
0.0
  9
$DIMTOL
 70
     0
  9
$DIMLIM
 70
     0
  9
$DIMTIH
 70
     0
  9
$DIMTOH
 70
     0
  9
$DIMSE1
 70
     0
  9
$DIMSE2
 70
     0
  9
$DIMTAD
 70
     1
  9
$DIMZIN
 70
     8
  9
$DIMBLK
  1

  9
$DIMASO
 70
     1
  9
$DIMSHO
 70
     1
  9
$DIMPOST
  1

  9
$DIMAPOST
  1

  9
$DIMALT
 70
     0
  9
$DIMALTD
 70
     3
  9
$DIMALTF
 40
0.03937
  9
$DIMLFAC
 40
1.0
  9
$DIMTOFL
 70
     1
  9
$DIMTVP
 40
0.0
  9
$DIMTIX
 70
     0
  9
$DIMSOXD
 70
     0
  9
$DIMSAH
 70
     0
  9
$DIMBLK1
  1

  9
$DIMBLK2
  1

  9
$DIMSTYLE
  2
ONSHAPE-ISO-25
  9
$DIMCLRD
 70
     7
  9
$DIMCLRE
 70
     7
  9
$DIMCLRT
 70
     7
  9
$DIMTFAC
 40
1.0
  9
$DIMGAP
 40
0.625
  9
$DIMJUST
 70
     0
  9
$DIMSD1
 70
     0
  9
$DIMSD2
 70
     0
  9
$DIMTOLJ
 70
     0
  9
$DIMTZIN
 70
     8
  9
$DIMALTZ
 70
     8
  9
$DIMALTTZ
 70
     0
  9
$DIMFIT
 70
     3
  9
$DIMUPT
 70
     1
  9
$DIMUNIT
 70
     2
  9
$DIMDEC
 70
     2
  9
$DIMTDEC
 70
     2
  9
$DIMALTU
 70
     2
  9
$DIMALTTD
 70
     3
  9
$DIMTXSTY
  7
ONSHAPE-STANDARD-DIMENSION
  9
$DIMAUNIT
 70
     0
  9
$LUNITS
 70
     2
  9
$LUPREC
 70
     4
  9
$SKETCHINC
 40
0.1
  9
$FILLETRAD
 40
0.5
  9
$AUNITS
 70
     0
  9
$AUPREC
 70
     0
  9
$MENU
  1
.
  9
$ELEVATION
 40
0.0
  9
$PELEVATION
 40
0.0
  9
$THICKNESS
 40
0.0
  9
$LIMCHECK
 70
     0
  9
$CHAMFERA
 40
0.0
  9
$CHAMFERB
 40
0.0
  9
$CHAMFERC
 40
0.0
  9
$CHAMFERD
 40
0.0
  9
$SKPOLY
 70
     0
  9
$TDCREATE
 40
2460925.357876192
  9
$TDUPDATE
 40
2460925.357876956
  9
$TDINDWG
 40
0.0
  9
$TDUSRTIMER
 40
0.0
  9
$USRTIMER
 70
     1
  9
$ANGBASE
 50
0.0
  9
$ANGDIR
 70
     0
  9
$PDMODE
 70
    33
  9
$PDSIZE
 40
1.0
  9
$PLINEWID
 40
0.0
  9
$COORDS
 70
     1
  9
$SPLFRAME
 70
     0
  9
$SPLINETYPE
 70
     6
  9
$SPLINESEGS
 70
     8
  9
$ATTDIA
 70
     0
  9
$ATTREQ
 70
     1
  9
$HANDLING
 70
     1
  9
$HANDSEED
  5
3DC
  9
$SURFTAB1
 70
     6
  9
$SURFTAB2
 70
     6
  9
$SURFTYPE
 70
     6
  9
$SURFU
 70
     6
  9
$SURFV
 70
     6
  9
$UCSNAME
  2

  9
$UCSORG
 10
0.0
 20
0.0
 30
0.0
  9
$UCSXDIR
 10
1.0
 20
0.0
 30
0.0
  9
$UCSYDIR
 10
0.0
 20
1.0
 30
0.0
  9
$PUCSNAME
  2

  9
$PUCSORG
 10
0.0
 20
0.0
 30
0.0
  9
$PUCSXDIR
 10
1.0
 20
0.0
 30
0.0
  9
$PUCSYDIR
 10
0.0
 20
1.0
 30
0.0
  9
$USERI1
 70
     0
  9
$USERI2
 70
     0
  9
$USERI3
 70
     0
  9
$USERI4
 70
     0
  9
$USERI5
 70
     0
  9
$USERR1
 40
0.0
  9
$USERR2
 40
0.0
  9
$USERR3
 40
0.0
  9
$USERR4
 40
0.0
  9
$USERR5
 40
0.0
  9
$WORLDVIEW
 70
     1
  9
$SHADEDGE
 70
     3
  9
$SHADEDIF
 70
    70
  9
$TILEMODE
 70
     1
  9
$MAXACTVP
 70
    64
  9
$PINSBASE
 10
0.0
 20
0.0
 30
0.0
  9
$PLIMCHECK
 70
     0
  9
$PEXTMIN
 10
1.000000000000000E+20
 20
1.000000000000000E+20
 30
1.000000000000000E+20
  9
$PEXTMAX
 10
-1.000000000000000E+20
 20
-1.000000000000000E+20
 30
-1.000000000000000E+20
  9
$PLIMMIN
 10
0.0
 20
0.0
  9
$PLIMMAX
 10
12.0
 20
9.0
  9
$UNITMODE
 70
     0
  9
$VISRETAIN
 70
     1
  9
$PLINEGEN
 70
     0
  9
$PSLTSCALE
 70
     1
  9
$TREEDEPTH
 70
  3020
  9
$PICKSTYLE
 70
     1
  9
$CMLSTYLE
  2
STANDARD
  9
$CMLJUST
 70
     0
  9
$CMLSCALE
 40
1.0
  9
$PROXYGRAPHICS
 70
     1
  9
$MEASUREMENT
 70
     0
  0
ENDSEC
  0
SECTION
  2
CLASSES
  0
CLASS
  1
ACDBDICTIONARYWDFLT
  2
AcDbDictionaryWithDefault
  3
ObjectDBX Classes
 90
        0
280
     0
281
     0
  0
CLASS
  1
VISUALSTYLE
  2
AcDbVisualStyle
  3
ObjectDBX Classes
 90
     4095
280
     0
281
     0
  0
CLASS
  1
MATERIAL
  2
AcDbMaterial
  3
ObjectDBX Classes
 90
     1153
280
     0
281
     0
  0
CLASS
  1
SCALE
  2
AcDbScale
  3
ObjectDBX Classes
 90
     1153
280
     0
281
     0
  0
CLASS
  1
TABLESTYLE
  2
AcDbTableStyle
  3
ObjectDBX Classes
 90
     4095
280
     0
281
     0
  0
CLASS
  1
MLEADERSTYLE
  2
AcDbMLeaderStyle
  3
ACDB_MLEADERSTYLE_CLASS
 90
     4095
280
     0
281
     0
  0
CLASS
  1
SUN
  2
AcDbSun
  3
SCENEOE
 90
     1153
280
     0
281
     0
  0
CLASS
  1
DICTIONARYVAR
  2
AcDbDictionaryVar
  3
ObjectDBX Classes
 90
        0
280
     0
281
     0
  0
CLASS
  1
FIELD
  2
AcDbField
  3
ObjectDBX Classes
 90
     1152
280
     0
281
     0
  0
CLASS
  1
FIELDLIST
  2
AcDbFieldList
  3
ObjectDBX Classes
 90
     1152
280
     0
281
     0
  0
CLASS
  1
DIMASSOC
  2
AcDbDimAssoc
  3
"AcDbDimAssoc|Product Desc:     AcDim ARX App For Dimension|Company:          Autodesk, Inc.|WEB Address:      www.autodesk.com"
 90
        0
280
     0
281
     0
  0
CLASS
  1
BREAKDATA
  2
AcDbBreakData
  3
ObjectDBX Classes
 90
     1024
280
     0
281
     0
  0
CLASS
  1
XRECORD
  2
AcDbXrecord
  3
ObjectDBX Classes
 90
        0
280
     0
281
     0
  0
CLASS
  1
LWPOLYLINE
  2
AcDbPolyline
  3
ObjectDBX Classes
 90
        0
280
     0
281
     1
  0
CLASS
  1
HATCH
  2
AcDbHatch
  3
ObjectDBX Classes
 90
        0
280
     0
281
     1
  0
CLASS
  1
ACDBPLACEHOLDER
  2
AcDbPlaceHolder
  3
ObjectDBX Classes
 90
        0
280
     0
281
     0
  0
CLASS
  1
LAYOUT
  2
AcDbLayout
  3
ObjectDBX Classes
 90
        0
280
     0
281
     0
  0
ENDSEC
  0
SECTION
  2
TABLES
  0
TABLE
  2
VPORT
  5
8
102
{ACAD_XDICTIONARY
360
3D1
102
}
330
0
100
AcDbSymbolTable
 70
     1
  0
VPORT
  5
29
330
8
100
AcDbSymbolTableRecord
100
AcDbViewportTableRecord
  2
*ACTIVE
 70
     0
 10
0.0
 20
0.0
 11
1.0
 21
1.0
 12
286.8493832019413
 22
147.5741790967936
 13
0.0
 23
0.0
 14
0.5
 24
0.5
 15
0.5
 25
0.5
 16
0.0
 26
0.0
 36
1.0
 17
0.0
 27
0.0
 37
0.0
 40
280.651325357459
 41
2.004645320790412
 42
50.0
 43
0.0
 44
0.0
 50
0.0
 51
0.0
 71
     0
 72
   100
 73
     1
 74
     3
 75
     0
 76
     0
 77
     0
 78
     0
  0
ENDTAB
  0
TABLE
  2
LTYPE
  5
5
330
0
100
AcDbSymbolTable
 70
     1
  0
LTYPE
  5
14
330
5
100
AcDbSymbolTableRecord
100
AcDbLinetypeTableRecord
  2
BYBLOCK
 70
     0
  3

 72
    65
 73
     0
 40
0.0
  0
LTYPE
  5
15
330
5
100
AcDbSymbolTableRecord
100
AcDbLinetypeTableRecord
  2
BYLAYER
 70
     0
  3

 72
    65
 73
     0
 40
0.0
  0
LTYPE
  5
16
330
5
100
AcDbSymbolTableRecord
100
AcDbLinetypeTableRecord
  2
CONTINUOUS
 70
     0
  3
Solid line
 72
    65
 73
     0
 40
0.0
  0
ENDTAB
  0
TABLE
  2
LAYER
  5
2
330
0
100
AcDbSymbolTable
 70
     6
  0
LAYER
  5
10
330
2
100
AcDbSymbolTableRecord
100
AcDbLayerTableRecord
  2
0
 70
     0
 62
     7
  6
CONTINUOUS
  0
LAYER
  5
70
330
2
100
AcDbSymbolTableRecord
100
AcDbLayerTableRecord
  2
DEFPOINTS
 70
     0
 62
     7
  6
CONTINUOUS
  0
LAYER
  5
74
330
2
100
AcDbSymbolTableRecord
100
AcDbLayerTableRecord
  2
VISIBLE
 70
     0
 62
     7
  6
CONTINUOUS
  0
LAYER
  5
B5
330
2
100
AcDbSymbolTableRecord
100
AcDbLayerTableRecord
  2
ANNOTATION_TEXT
 70
     0
 62
     7
  6
CONTINUOUS
  0
LAYER
  5
109
330
2
100
AcDbSymbolTableRecord
100
AcDbLayerTableRecord
  2
TITLE_BLOCK
 70
     0
 62
     7
  6
CONTINUOUS
  0
LAYER
  5
1D4
330
2
100
AcDbSymbolTableRecord
100
AcDbLayerTableRecord
  2
SKETCHED_GEOMETRY
 70
     0
 62
     7
  6
CONTINUOUS
  0
ENDTAB
  0
TABLE
  2
STYLE
  5
3
330
0
100
AcDbSymbolTable
 70
    80
  0
STYLE
  5
11
330
3
100
AcDbSymbolTableRecord
100
AcDbTextStyleTableRecord
  2
STANDARD
 70
     0
 40
0.0
 41
1.0
 50
0.0
 71
     0
 42
3.5
  3
txt
  4

  0
STYLE
  5
71
330
3
100
AcDbSymbolTableRecord
100
AcDbTextStyleTableRecord
  2
ONSHAPE-STANDARD
 70
     0
 40
0.0
 41
1.0
 50
0.0
 71
     0
 42
3.5
  3
NotoSans-Regular.ttf
  4

1001
ACAD
1000
Noto Sans
1071
        0
  0
STYLE
  5
73
330
3
100
AcDbSymbolTableRecord
100
AcDbTextStyleTableRecord
  2
ONSHAPE-STANDARD-DIMENSION
 70
     0
 40
0.0
 41
1.0
 50
0.0
 71
     0
 42
3.5
  3

  4

1001
ACAD
1000
Noto Sans
1071
        0
  0
STYLE
  5
B8
330
3
100
AcDbSymbolTableRecord
100
AcDbTextStyleTableRecord
  2
ONSHAPE-STANDARD-VIEW-LABE
 70
     0
 40
3.5
 41
1.0
 50
0.0
 71
     0
 42
3.5
  3
NotoSans-Regular.ttf
  4

1001
ACAD
1000
Noto Sans
1071
        0
  0
STYLE
  5
110
330
3
100
AcDbSymbolTableRecord
100
AcDbTextStyleTableRecord
  2
ONSHAPE-CUSTOM-STYLE-NOTE_
 70
     0
 40
0.0
 41
1.0
 50
0.0
 71
     0
 42
3.5
  3
NotoSans-Regular.ttf
  4

1001
ACAD
1000
Noto Sans
1071
        0
  0
STYLE
  5
112
330
3
100
AcDbSymbolTableRecord
100
AcDbTextStyleTableRecord
  2
ONSHAPE-CUSTOM-STYLE-NOTE0
 70
     0
 40
0.0
 41
1.0
 50
0.0
 71
     0
 42
3.5
  3
NotoSans-Regular.ttf
  4

1001
ACAD
1000
Noto Sans
1071
        0
  0
STYLE
  5
114
330
3
100
AcDbSymbolTableRecord
100
AcDbTextStyleTableRecord
  2
ONSHAPE-CUSTOM-STYLE-NOTE1
 70
     0
 40
0.0
 41
1.0
 50
0.0
 71
     0
 42
3.5
  3
NotoSans-Regular.ttf
  4

1001
ACAD
1000
Noto Sans
1071
        0
  0
STYLE
  5
119
330
3
100
AcDbSymbolTableRecord
100
AcDbTextStyleTableRecord
  2
ONSHAPE-CUSTOM-STYLE-NOTE2
 70
     0
 40
0.0
 41
1.0
 50
0.0
 71
     0
 42
3.5
  3
NotoSans-Regular.ttf
  4

1001
ACAD
1000
Noto Sans
1071
        0
  0
STYLE
  5
11B
330
3
100
AcDbSymbolTableRecord
100
AcDbTextStyleTableRecord
  2
ONSHAPE-CUSTOM-STYLE-NOTE3
 70
     0
 40
0.0
 41
1.0
 50
0.0
 71
     0
 42
3.5
  3
NotoSans-Regular.ttf
  4

1001
ACAD
1000
Noto Sans
1071
        0
  0
STYLE
  5
12C
330
3
100
AcDbSymbolTableRecord
100
AcDbTextStyleTableRecord
  2
ONSHAPE-CUSTOM-STYLE-NOTE4
 70
     0
 40
0.0
 41
1.0
 50
0.0
 71
     0
 42
3.5
  3
NotoSans-Regular.ttf
  4

1001
ACAD
1000
Noto Sans
1071
        0
  0
STYLE
  5
132
330
3
100
AcDbSymbolTableRecord
100
AcDbTextStyleTableRecord
  2
ONSHAPE-CUSTOM-STYLE-NOTE5
 70
     0
 40
0.0
 41
1.0
 50
0.0
 71
     0
 42
3.5
  3
NotoSans-Regular.ttf
  4

1001
ACAD
1000
Noto Sans
1071
        0
  0
STYLE
  5
13B
330
3
100
AcDbSymbolTableRecord
100
AcDbTextStyleTableRecord
  2
ONSHAPE-CUSTOM-STYLE-NOTE6
 70
     0
 40
0.0
 41
1.0
 50
0.0
 71
     0
 42
3.5
  3
NotoSans-Regular.ttf
  4

1001
ACAD
1000
Noto Sans
1071
        0
  0
STYLE
  5
13D
330
3
100
AcDbSymbolTableRecord
100
AcDbTextStyleTableRecord
  2
ONSHAPE-CUSTOM-STYLE-NOTE7
 70
     0
 40
0.0
 41
1.0
 50
0.0
 71
     0
 42
3.5
  3
NotoSans-Regular.ttf
  4

1001
ACAD
1000
Noto Sans
1071
        0
  0
STYLE
  5
13F
330
3
100
AcDbSymbolTableRecord
100
AcDbTextStyleTableRecord
  2
ONSHAPE-CUSTOM-STYLE-NOTE8
 70
     0
 40
0.0
 41
1.0
 50
0.0
 71
     0
 42
3.5
  3
NotoSans-Regular.ttf
  4

1001
ACAD
1000
Noto Sans
1071
        0
  0
STYLE
  5
146
330
3
100
AcDbSymbolTableRecord
100
AcDbTextStyleTableRecord
  2
ONSHAPE-CUSTOM-STYLE-NOTE9
 70
     0
 40
0.0
 41
1.0
 50
0.0
 71
     0
 42
3.5
  3

  4

1001
ACAD
1000
Noto Sans
1071
        0
  0
STYLE
  5
14D
330
3
100
AcDbSymbolTableRecord
100
AcDbTextStyleTableRecord
  2
ONSHAPE-CUSTOM-STYLE-NOTEA
 70
     0
 40
0.0
 41
1.0
 50
0.0
 71
     0
 42
3.5
  3

  4

1001
ACAD
1000
Noto Sans
1071
        0
  0
STYLE
  5
14F
330
3
100
AcDbSymbolTableRecord
100
AcDbTextStyleTableRecord
  2
ONSHAPE-CUSTOM-STYLE-NOTEB
 70
     0
 40
0.0
 41
1.0
 50
0.0
 71
     0
 42
3.5
  3
NotoSans-Regular.ttf
  4

1001
ACAD
1000
Noto Sans
1071
        0
  0
STYLE
  5
151
330
3
100
AcDbSymbolTableRecord
100
AcDbTextStyleTableRecord
  2
ONSHAPE-CUSTOM-STYLE-NOTEC
 70
     0
 40
0.0
 41
1.0
 50
0.0
 71
     0
 42
3.5
  3

  4

1001
ACAD
1000
Noto Sans
1071
        0
  0
STYLE
  5
153
330
3
100
AcDbSymbolTableRecord
100
AcDbTextStyleTableRecord
  2
ONSHAPE-CUSTOM-STYLE-NOTED
 70
     0
 40
0.0
 41
1.0
 50
0.0
 71
     0
 42
3.5
  3

  4

1001
ACAD
1000
Noto Sans
1071
        0
  0
STYLE
  5
155
330
3
100
AcDbSymbolTableRecord
100
AcDbTextStyleTableRecord
  2
ONSHAPE-CUSTOM-STYLE-NOTEE
 70
     0
 40
0.0
 41
1.0
 50
0.0
 71
     0
 42
3.5
  3
NotoSans-Regular.ttf
  4

1001
ACAD
1000
Noto Sans
1071
        0
  0
STYLE
  5
15C
330
3
100
AcDbSymbolTableRecord
100
AcDbTextStyleTableRecord
  2
ONSHAPE-CUSTOM-STYLE-NOTEF
 70
     0
 40
0.0
 41
1.0
 50
0.0
 71
     0
 42
3.5
  3

  4

1001
ACAD
1000
Noto Sans
1071
        0
  0
STYLE
  5
163
330
3
100
AcDbSymbolTableRecord
100
AcDbTextStyleTableRecord
  2
ONSHAPE-CUSTOM-STYLE-NOTEG
 70
     0
 40
0.0
 41
1.0
 50
0.0
 71
     0
 42
3.5
  3

  4

1001
ACAD
1000
Noto Sans
1071
        0
  0
STYLE
  5
165
330
3
100
AcDbSymbolTableRecord
100
AcDbTextStyleTableRecord
  2
ONSHAPE-CUSTOM-STYLE-NOTEH
 70
     0
 40
0.0
 41
1.0
 50
0.0
 71
     0
 42
3.5
  3

  4

1001
ACAD
1000
Noto Sans
1071
        0
  0
STYLE
  5
167
330
3
100
AcDbSymbolTableRecord
100
AcDbTextStyleTableRecord
  2
ONSHAPE-CUSTOM-STYLE-NOTEI
 70
     0
 40
0.0
 41
1.0
 50
0.0
 71
     0
 42
3.5
  3

  4

1001
ACAD
1000
Noto Sans
1071
        0
  0
STYLE
  5
169
330
3
100
AcDbSymbolTableRecord
100
AcDbTextStyleTableRecord
  2
ONSHAPE-CUSTOM-STYLE-NOTEJ
 70
     0
 40
0.0
 41
1.0
 50
0.0
 71
     0
 42
3.5
  3

  4

1001
ACAD
1000
Noto Sans
1071
        0
  0
STYLE
  5
16B
330
3
100
AcDbSymbolTableRecord
100
AcDbTextStyleTableRecord
  2
ONSHAPE-CUSTOM-STYLE-NOTEK
 70
     0
 40
0.0
 41
1.0
 50
0.0
 71
     0
 42
3.5
  3

  4

1001
ACAD
1000
Noto Sans
1071
        0
  0
STYLE
  5
16D
330
3
100
AcDbSymbolTableRecord
100
AcDbTextStyleTableRecord
  2
ONSHAPE-CUSTOM-STYLE-NOTEL
 70
     0
 40
0.0
 41
1.0
 50
0.0
 71
     0
 42
3.5
  3

  4

1001
ACAD
1000
Noto Sans
1071
        0
  0
STYLE
  5
16F
330
3
100
AcDbSymbolTableRecord
100
AcDbTextStyleTableRecord
  2
ONSHAPE-CUSTOM-STYLE-NOTEM
 70
     0
 40
0.0
 41
1.0
 50
0.0
 71
     0
 42
3.5
  3

  4

1001
ACAD
1000
Noto Sans
1071
        0
  0
STYLE
  5
171
330
3
100
AcDbSymbolTableRecord
100
AcDbTextStyleTableRecord
  2
ONSHAPE-CUSTOM-STYLE-NOTEN
 70
     0
 40
0.0
 41
1.0
 50
0.0
 71
     0
 42
3.5
  3
NotoSans-Regular.ttf
  4

1001
ACAD
1000
Noto Sans
1071
        0
  0
STYLE
  5
173
330
3
100
AcDbSymbolTableRecord
100
AcDbTextStyleTableRecord
  2
ONSHAPE-CUSTOM-STYLE-NOTEO
 70
     0
 40
0.0
 41
1.0
 50
0.0
 71
     0
 42
3.5
  3

  4

1001
ACAD
1000
Noto Sans
1071
        0
  0
STYLE
  5
175
330
3
100
AcDbSymbolTableRecord
100
AcDbTextStyleTableRecord
  2
ONSHAPE-CUSTOM-STYLE-NOTEP
 70
     0
 40
0.0
 41
1.0
 50
0.0
 71
     0
 42
3.5
  3
NotoSans-Regular.ttf
  4

1001
ACAD
1000
Noto Sans
1071
        0
  0
STYLE
  5
177
330
3
100
AcDbSymbolTableRecord
100
AcDbTextStyleTableRecord
  2
ONSHAPE-CUSTOM-STYLE-NOTEQ
 70
     0
 40
0.0
 41
1.0
 50
0.0
 71
     0
 42
3.5
  3

  4

1001
ACAD
1000
Noto Sans
1071
        0
  0
STYLE
  5
181
330
3
100
AcDbSymbolTableRecord
100
AcDbTextStyleTableRecord
  2
ONSHAPE-CUSTOM-STYLE-NOTER
 70
     0
 40
0.0
 41
1.0
 50
0.0
 71
     0
 42
3.5
  3
NotoSans-Regular.ttf
  4

1001
ACAD
1000
Noto Sans
1071
        0
  0
STYLE
  5
188
330
3
100
AcDbSymbolTableRecord
100
AcDbTextStyleTableRecord
  2
ONSHAPE-CUSTOM-STYLE-NOTES
 70
     0
 40
0.0
 41
1.0
 50
0.0
 71
     0
 42
3.5
  3

  4

1001
ACAD
1000
Noto Sans
1071
        0
  0
STYLE
  5
18F
330
3
100
AcDbSymbolTableRecord
100
AcDbTextStyleTableRecord
  2
ONSHAPE-CUSTOM-STYLE-NOTET
 70
     0
 40
0.0
 41
1.0
 50
0.0
 71
     0
 42
3.5
  3

  4

1001
ACAD
1000
Noto Sans
1071
        0
  0
STYLE
  5
196
330
3
100
AcDbSymbolTableRecord
100
AcDbTextStyleTableRecord
  2
ONSHAPE-CUSTOM-STYLE-NOTEU
 70
     0
 40
0.0
 41
1.0
 50
0.0
 71
     0
 42
3.5
  3

  4

1001
ACAD
1000
Noto Sans
1071
        0
  0
STYLE
  5
198
330
3
100
AcDbSymbolTableRecord
100
AcDbTextStyleTableRecord
  2
ONSHAPE-CUSTOM-STYLE-NOTEV
 70
     0
 40
0.0
 41
1.0
 50
0.0
 71
     0
 42
3.5
  3
NotoSans-Regular.ttf
  4

1001
ACAD
1000
Noto Sans
1071
        0
  0
STYLE
  5
19F
330
3
100
AcDbSymbolTableRecord
100
AcDbTextStyleTableRecord
  2
ONSHAPE-CUSTOM-STYLE-NOTEW
 70
     0
 40
0.0
 41
1.0
 50
0.0
 71
     0
 42
3.5
  3

  4

1001
ACAD
1000
Noto Sans
1071
        0
  0
STYLE
  5
1A1
330
3
100
AcDbSymbolTableRecord
100
AcDbTextStyleTableRecord
  2
ONSHAPE-CUSTOM-STYLE-NOTEX
 70
     0
 40
0.0
 41
1.0
 50
0.0
 71
     0
 42
3.5
  3
NotoSans-Regular.ttf
  4

1001
ACAD
1000
Noto Sans
1071
        0
  0
STYLE
  5
1A8
330
3
100
AcDbSymbolTableRecord
100
AcDbTextStyleTableRecord
  2
ONSHAPE-CUSTOM-STYLE-NOTEY
 70
     0
 40
0.0
 41
1.0
 50
0.0
 71
     0
 42
3.5
  3

  4

1001
ACAD
1000
Noto Sans
1071
        0
  0
STYLE
  5
1AA
330
3
100
AcDbSymbolTableRecord
100
AcDbTextStyleTableRecord
  2
ONSHAPE-CUSTOM-STYLE-NOTEZ
 70
     0
 40
0.0
 41
1.0
 50
0.0
 71
     0
 42
3.5
  3
NotoSans-Regular.ttf
  4

1001
ACAD
1000
Noto Sans
1071
        0
  0
STYLE
  5
1B1
330
3
100
AcDbSymbolTableRecord
100
AcDbTextStyleTableRecord
  2
ONSHAPE-CUSTOM-STYLE-NOT00
 70
     0
 40
0.0
 41
1.0
 50
0.0
 71
     0
 42
3.5
  3

  4

1001
ACAD
1000
Noto Sans
1071
        0
  0
STYLE
  5
1B3
330
3
100
AcDbSymbolTableRecord
100
AcDbTextStyleTableRecord
  2
ONSHAPE-CUSTOM-STYLE-NOT01
 70
     0
 40
0.0
 41
1.0
 50
0.0
 71
     0
 42
3.5
  3
NotoSans-Regular.ttf
  4

1001
ACAD
1000
Noto Sans
1071
        0
  0
STYLE
  5
1BA
330
3
100
AcDbSymbolTableRecord
100
AcDbTextStyleTableRecord
  2
ONSHAPE-CUSTOM-STYLE-NOT02
 70
     0
 40
0.0
 41
1.0
 50
0.0
 71
     0
 42
3.5
  3

  4

1001
ACAD
1000
Noto Sans
1071
        0
  0
STYLE
  5
1BC
330
3
100
AcDbSymbolTableRecord
100
AcDbTextStyleTableRecord
  2
ONSHAPE-CUSTOM-STYLE-NOT03
 70
     0
 40
0.0
 41
1.0
 50
0.0
 71
     0
 42
3.5
  3
NotoSans-Regular.ttf
  4

1001
ACAD
1000
Noto Sans
1071
        0
  0
STYLE
  5
1BE
330
3
100
AcDbSymbolTableRecord
100
AcDbTextStyleTableRecord
  2
ONSHAPE-CUSTOM-STYLE-NOT04
 70
     0
 40
0.0
 41
1.0
 50
0.0
 71
     0
 42
3.5
  3

  4

1001
ACAD
1000
Noto Sans
1071
        0
  0
STYLE
  5
1C0
330
3
100
AcDbSymbolTableRecord
100
AcDbTextStyleTableRecord
  2
ONSHAPE-CUSTOM-STYLE-NOT05
 70
     0
 40
0.0
 41
1.0
 50
0.0
 71
     0
 42
3.5
  3
NotoSans-Regular.ttf
  4

1001
ACAD
1000
Noto Sans
1071
        0
  0
STYLE
  5
1C7
330
3
100
AcDbSymbolTableRecord
100
AcDbTextStyleTableRecord
  2
ONSHAPE-CUSTOM-STYLE-NOT06
 70
     0
 40
0.0
 41
1.0
 50
0.0
 71
     0
 42
3.5
  3

  4

1001
ACAD
1000
Noto Sans
1071
        0
  0
STYLE
  5
32D
330
3
100
AcDbSymbolTableRecord
100
AcDbTextStyleTableRecord
  2
ONSHAPE-STANDARD-BOLD
 70
     0
 40
0.0
 41
1.0
 50
0.0
 71
     0
 42
3.5
  3
NotoSans-Bold.ttf
  4

1001
ACAD
1000
Noto Sans
1071
 33554432
  0
STYLE
  5
32E
330
3
100
AcDbSymbolTableRecord
100
AcDbTextStyleTableRecord
  2
ONSHAPE-STANDARD-FIELDS
 70
     0
 40
0.0
 41
1.0
 50
0.0
 71
     0
 42
3.5
  3

  4

1001
ACAD
1000
Noto Sans
1071
        0
  0
STYLE
  5
32F
330
3
100
AcDbSymbolTableRecord
100
AcDbTextStyleTableRecord
  2
ONSHAPE-STANDARD-TCFIELDS
 70
     0
 40
0.0
 41
1.0
 50
0.0
 71
     0
 42
3.5
  3
NotoSansTC-Regular.otf
  4

1001
ACAD
1000
Noto Sans TC
1071
        0
  0
STYLE
  5
330
330
3
100
AcDbSymbolTableRecord
100
AcDbTextStyleTableRecord
  2
ONSHAPE-STANDARD-SCFIELDS
 70
     0
 40
0.0
 41
1.0
 50
0.0
 71
     0
 42
3.5
  3
NotoSansSC-Regular.otf
  4

1001
ACAD
1000
Noto Sans SC
1071
        0
  0
STYLE
  5
331
330
3
100
AcDbSymbolTableRecord
100
AcDbTextStyleTableRecord
  2
ONSHAPE-STANDARD-KOREANFIE
 70
     0
 40
0.0
 41
1.0
 50
0.0
 71
     0
 42
3.5
  3
NotoSansKR-Regular.otf
  4

1001
ACAD
1000
Noto Sans KR
1071
        0
  0
STYLE
  5
332
330
3
100
AcDbSymbolTableRecord
100
AcDbTextStyleTableRecord
  2
ONSHAPE-STANDARD-JAPANESEF
 70
     0
 40
0.0
 41
1.0
 50
0.0
 71
     0
 42
3.5
  3
NotoSansJP-Regular.otf
  4

1001
ACAD
1000
Noto Sans JP
1071
        0
  0
STYLE
  5
333
330
3
100
AcDbSymbolTableRecord
100
AcDbTextStyleTableRecord
  2
TTFSTYLE
 70
     0
 40
0.0
 41
1.0
 50
0.0
 71
     0
 42
3.5
  3

  4

1001
ACAD
1000
Verdana
1071
       34
  0
STYLE
  5
334
330
3
100
AcDbSymbolTableRecord
100
AcDbTextStyleTableRecord
  2
ONSHAPE-STANDARD-GTOLERANC
 70
     0
 40
0.0
 41
1.0
 50
0.0
 71
     0
 42
3.5
  3

  4

1001
ACAD
1000
Noto Sans
1071
        0
  0
STYLE
  5
335
330
3
100
AcDbSymbolTableRecord
100
AcDbTextStyleTableRecord
  2
ONSHAPE-STANDARD-TABLE-DAT
 70
     0
 40
0.0
 41
1.0
 50
0.0
 71
     0
 42
3.5
  3
NotoSans-Regular.ttf
  4

1001
ACAD
1000
Noto Sans
1071
        0
  0
STYLE
  5
336
330
3
100
AcDbSymbolTableRecord
100
AcDbTextStyleTableRecord
  2
ONSHAPE-STANDARD-TABLE-TIT
 70
     0
 40
0.0
 41
1.0
 50
0.0
 71
     0
 42
3.5
  3
NotoSans-Bold.ttf
  4

1001
ACAD
1000
Noto Sans
1071
 33554432
  0
STYLE
  5
337
330
3
100
AcDbSymbolTableRecord
100
AcDbTextStyleTableRecord
  2
ONSHAPE-STANDARD-TABLE-HEA
 70
     0
 40
0.0
 41
1.0
 50
0.0
 71
     0
 42
3.5
  3
NotoSans-Bold.ttf
  4

1001
ACAD
1000
Noto Sans
1071
 33554432
  0
STYLE
  5
338
330
3
100
AcDbSymbolTableRecord
100
AcDbTextStyleTableRecord
  2
ONSHAPE-STANDARD-BOMTABLE-
 70
     0
 40
0.0
 41
1.0
 50
0.0
 71
     0
 42
3.5
  3
NotoSans-Regular.ttf
  4

1001
ACAD
1000
Noto Sans
1071
        0
  0
STYLE
  5
339
330
3
100
AcDbSymbolTableRecord
100
AcDbTextStyleTableRecord
  2
ONSHAPE-STANDARD-BOMTABLE0
 70
     0
 40
0.0
 41
1.0
 50
0.0
 71
     0
 42
3.5
  3
NotoSans-Bold.ttf
  4

1001
ACAD
1000
Noto Sans
1071
 33554432
  0
STYLE
  5
33A
330
3
100
AcDbSymbolTableRecord
100
AcDbTextStyleTableRecord
  2
ONSHAPE-STANDARD-BOMTABLE1
 70
     0
 40
0.0
 41
1.0
 50
0.0
 71
     0
 42
3.5
  3
NotoSans-Bold.ttf
  4

1001
ACAD
1000
Noto Sans
1071
 33554432
  0
STYLE
  5
33B
330
3
100
AcDbSymbolTableRecord
100
AcDbTextStyleTableRecord
  2
ONSHAPE-STANDARD-NOTESTYLE
 70
     0
 40
3.5
 41
1.0
 50
0.0
 71
     0
 42
3.5
  3
Noto Sans
  4

1001
ACAD
1000
Noto Sans
1071
        0
  0
STYLE
  5
33C
330
3
100
AcDbSymbolTableRecord
100
AcDbTextStyleTableRecord
  2
ONSHAPE-STANDARD-DATUM-DIM
 70
     0
 40
3.5
 41
1.0
 50
0.0
 71
     0
 42
3.5
  3
Noto Sans
  4

1001
ACAD
1000
Noto Sans
1071
        0
  0
STYLE
  5
33E
330
3
100
AcDbSymbolTableRecord
100
AcDbTextStyleTableRecord
  2
ONSHAPE-DETAIL-VIEW-LEADER
 70
     0
 40
3.5
 41
1.0
 50
0.0
 71
     0
 42
3.5
  3
Noto Sans
  4

1001
ACAD
1000
Noto Sans
1071
        0
  0
STYLE
  5
33F
330
3
100
AcDbSymbolTableRecord
100
AcDbTextStyleTableRecord
  2
ONSHAPE-STANDARD-HOLE-CALL
 70
     0
 40
3.5
 41
1.0
 50
0.0
 71
     0
 42
3.5
  3
Noto Sans
  4

1001
ACAD
1000
Noto Sans
1071
        0
  0
STYLE
  5
340
330
3
100
AcDbSymbolTableRecord
100
AcDbTextStyleTableRecord
  2
ONSHAPE-STANDARD-HOLETABLE
 70
     0
 40
0.0
 41
1.0
 50
0.0
 71
     0
 42
3.5
  3
NotoSans-Regular.ttf
  4

1001
ACAD
1000
Noto Sans
1071
        0
  0
STYLE
  5
341
330
3
100
AcDbSymbolTableRecord
100
AcDbTextStyleTableRecord
  2
ONSHAPE-STANDARD-HOLETABL0
 70
     0
 40
0.0
 41
1.0
 50
0.0
 71
     0
 42
3.5
  3
NotoSans-Bold.ttf
  4

1001
ACAD
1000
Noto Sans
1071
 33554432
  0
STYLE
  5
342
330
3
100
AcDbSymbolTableRecord
100
AcDbTextStyleTableRecord
  2
ONSHAPE-STANDARD-HOLETABL1
 70
     0
 40
0.0
 41
1.0
 50
0.0
 71
     0
 42
3.5
  3
NotoSans-Bold.ttf
  4

1001
ACAD
1000
Noto Sans
1071
 33554432
  0
STYLE
  5
343
330
3
100
AcDbSymbolTableRecord
100
AcDbTextStyleTableRecord
  2
ONSHAPE-STANDARD-HOLE-TAG
 70
     0
 40
3.5
 41
1.0
 50
0.0
 71
     0
 42
3.5
  3
Noto Sans
  4

1001
ACAD
1000
Noto Sans
1071
        0
  0
STYLE
  5
344
330
3
100
AcDbSymbolTableRecord
100
AcDbTextStyleTableRecord
  2
ONSHAPE-STANDARD-REVISIONT
 70
     0
 40
0.0
 41
1.0
 50
0.0
 71
     0
 42
3.5
  3
NotoSans-Regular.ttf
  4

1001
ACAD
1000
Noto Sans
1071
        0
  0
STYLE
  5
345
330
3
100
AcDbSymbolTableRecord
100
AcDbTextStyleTableRecord
  2
ONSHAPE-STANDARD-REVISION0
 70
     0
 40
0.0
 41
1.0
 50
0.0
 71
     0
 42
3.5
  3
NotoSans-Bold.ttf
  4

1001
ACAD
1000
Noto Sans
1071
 33554432
  0
STYLE
  5
346
330
3
100
AcDbSymbolTableRecord
100
AcDbTextStyleTableRecord
  2
ONSHAPE-STANDARD-REVISION1
 70
     0
 40
0.0
 41
1.0
 50
0.0
 71
     0
 42
3.5
  3
NotoSans-Bold.ttf
  4

1001
ACAD
1000
Noto Sans
1071
 33554432
  0
STYLE
  5
347
330
3
100
AcDbSymbolTableRecord
100
AcDbTextStyleTableRecord
  2
ONSHAPE-STANDARD-REVISION-
 70
     0
 40
3.5
 41
1.0
 50
0.0
 71
     0
 42
3.5
  3
Noto Sans
  4

1001
ACAD
1000
Noto Sans
1071
        0
  0
STYLE
  5
348
330
3
100
AcDbSymbolTableRecord
100
AcDbTextStyleTableRecord
  2
ONSHAPE-STANDARD-CUTLISTTA
 70
     0
 40
0.0
 41
1.0
 50
0.0
 71
     0
 42
3.5
  3
NotoSans-Regular.ttf
  4

1001
ACAD
1000
Noto Sans
1071
        0
  0
STYLE
  5
349
330
3
100
AcDbSymbolTableRecord
100
AcDbTextStyleTableRecord
  2
ONSHAPE-STANDARD-CUTLISTT0
 70
     0
 40
0.0
 41
1.0
 50
0.0
 71
     0
 42
3.5
  3
NotoSans-Bold.ttf
  4

1001
ACAD
1000
Noto Sans
1071
 33554432
  0
STYLE
  5
34A
330
3
100
AcDbSymbolTableRecord
100
AcDbTextStyleTableRecord
  2
ONSHAPE-STANDARD-CUTLISTT1
 70
     0
 40
0.0
 41
1.0
 50
0.0
 71
     0
 42
3.5
  3
NotoSans-Bold.ttf
  4

1001
ACAD
1000
Noto Sans
1071
 33554432
  0
STYLE
  5
34B
330
3
100
AcDbSymbolTableRecord
100
AcDbTextStyleTableRecord
  2
ONSHAPE-STANDARD-CUSTOMTAB
 70
     0
 40
0.0
 41
1.0
 50
0.0
 71
     0
 42
3.5
  3
NotoSans-Regular.ttf
  4

1001
ACAD
1000
Noto Sans
1071
        0
  0
STYLE
  5
34C
330
3
100
AcDbSymbolTableRecord
100
AcDbTextStyleTableRecord
  2
ONSHAPE-STANDARD-CUSTOMTA0
 70
     0
 40
0.0
 41
1.0
 50
0.0
 71
     0
 42
3.5
  3
NotoSans-Bold.ttf
  4

1001
ACAD
1000
Noto Sans
1071
 33554432
  0
STYLE
  5
34D
330
3
100
AcDbSymbolTableRecord
100
AcDbTextStyleTableRecord
  2
ONSHAPE-STANDARD-CUSTOMTA1
 70
     0
 40
0.0
 41
1.0
 50
0.0
 71
     0
 42
3.5
  3
NotoSans-Bold.ttf
  4

1001
ACAD
1000
Noto Sans
1071
 33554432
  0
ENDTAB
  0
TABLE
  2
VIEW
  5
6
330
0
100
AcDbSymbolTable
 70
     0
  0
ENDTAB
  0
TABLE
  2
UCS
  5
7
330
0
100
AcDbSymbolTable
 70
     0
  0
ENDTAB
  0
TABLE
  2
APPID
  5
9
330
0
100
AcDbSymbolTable
 70
     8
  0
APPID
  5
12
330
9
100
AcDbSymbolTableRecord
100
AcDbRegAppTableRecord
  2
ACAD
 70
     0
  0
APPID
  5
BF
330
9
100
AcDbSymbolTableRecord
100
AcDbRegAppTableRecord
  2
ONSHAPE_NOTES_ANNOTATION_D
 70
     0
  0
APPID
  5
1EF
330
9
100
AcDbSymbolTableRecord
100
AcDbRegAppTableRecord
  2
ACAD_DSTYLE_DIMRADIAL_EXTE
 70
     0
  0
APPID
  5
1F0
330
9
100
AcDbSymbolTableRecord
100
AcDbRegAppTableRecord
  2
ACAD_DIMASSOC_CALC_DIMLFAC
 70
     0
  0
APPID
  5
1F1
330
9
100
AcDbSymbolTableRecord
100
AcDbRegAppTableRecord
  2
ACAD_DIMASSOC_DIMLFAC
 70
     0
  0
APPID
  5
1F2
330
9
100
AcDbSymbolTableRecord
100
AcDbRegAppTableRecord
  2
ACAD_DIMASSOC_OVERRIDDEN_D
 70
     0
  0
APPID
  5
1E6
330
9
100
AcDbSymbolTableRecord
100
AcDbRegAppTableRecord
  2
INDEX
 70
     0
  0
APPID
  5
3DB
330
9
100
AcDbSymbolTableRecord
100
AcDbRegAppTableRecord
  2
ACAD_MLEADERVER
 70
     0
  0
ENDTAB
  0
TABLE
  2
DIMSTYLE
  5
A
330
0
100
AcDbSymbolTable
 70
    23
  0
DIMSTYLE
105
27
330
A
100
AcDbSymbolTableRecord
100
AcDbDimStyleTableRecord
  2
STANDARD
 70
     0
  3

  4

  5

  6

  7

 40
1.0
 41
0.18
 42
0.0625
 43
0.38
 44
0.18
 45
0.0
 46
0.0
 47
0.0
 48
0.0
140
0.18
141
0.09
142
0.0
143
25.4
144
1.0
145
0.0
146
1.0
147
0.09
 71
     0
 72
     0
 73
     1
 74
     1
 75
     0
 76
     0
 77
     0
 78
     0
170
     0
171
     2
172
     0
173
     0
174
     0
175
     0
176
     0
177
     0
178
     0
270
     2
271
     4
272
     4
273
     2
274
     2
340
11
275
     0
280
     0
281
     0
282
     0
283
     1
284
     0
285
     0
286
     0
287
     3
288
     0
  0
DIMSTYLE
105
72
330
A
100
AcDbSymbolTableRecord
100
AcDbDimStyleTableRecord
  2
ONSHAPE-ISO-25
 70
     0
  3

  4

  5

  6

  7

 40
1.0
 41
2.5
 42
0.625
 43
3.75
 44
1.25
 45
0.0
 46
0.0
 47
0.0
 48
0.0
140
3.5
141
2.5
142
0.0
143
0.03937
144
1.0
145
0.0
146
1.0
147
0.625
 71
     0
 72
     0
 73
     0
 74
     0
 75
     0
 76
     0
 77
     1
 78
     8
170
     0
171
     3
172
     1
173
     0
174
     0
175
     0
176
     7
177
     7
178
     7
179
     1
270
     2
271
     2
272
     2
273
     2
274
     3
340
73
275
     0
280
     0
281
     0
282
     0
283
     0
284
     8
285
     8
286
     0
287
     3
288
     1
  0
DIMSTYLE
105
1E1
102
{ACAD_REACTORS
330
1D9
102
}
330
A
100
AcDbSymbolTableRecord
100
AcDbDimStyleTableRecord
  2
ONSHAPE-ISO-25$3
 70
     0
  3

  4

  5

  6

  7

 40
1.0
 41
2.5
 42
0.625
 43
3.75
 44
1.25
 45
0.0
 46
0.0
 47
0.0
 48
0.0
140
3.5
141
0.0
142
0.0
143
0.03937
144
1.0
145
0.0
146
1.0
147
0.625
 71
     0
 72
     0
 73
     0
 74
     0
 75
     0
 76
     0
 77
     1
 78
     8
170
     0
171
     3
172
     1
173
     0
174
     0
175
     0
176
     7
177
     7
178
     7
179
     1
270
     2
271
     2
272
     2
273
     2
274
     3
340
73
275
     0
280
     0
281
     0
282
     0
283
     0
284
     8
285
     8
286
     0
287
     3
288
     1
  0
DIMSTYLE
105
1F9
102
{ACAD_REACTORS
330
1F3
330
207
330
228
330
23A
330
24C
330
25E
330
270
330
282
330
294
330
2A6
330
2D6
330
2EA
330
2FC
330
30E
102
}
330
A
100
AcDbSymbolTableRecord
100
AcDbDimStyleTableRecord
  2
ONSHAPE-ISO-25$0
 70
     0
  3

  4

  5

  6

  7

 40
1.0
 41
2.5
 42
0.625
 43
3.75
 44
1.25
 45
0.0
 46
0.0
 47
0.0
 48
0.0
140
3.5
141
2.5
142
0.0
143
0.03937
144
1.0
145
0.0
146
1.0
147
0.625
 71
     0
 72
     0
 73
     0
 74
     0
 75
     0
 76
     0
 77
     1
 78
     8
170
     0
171
     3
172
     1
173
     0
174
     0
175
     0
176
     7
177
     7
178
     7
179
     1
270
     2
271
     2
272
     2
273
     2
274
     3
340
73
275
     0
280
     0
281
     0
282
     0
283
     0
284
     8
285
     8
286
     0
287
     3
288
     1
  0
DIMSTYLE
105
21E
102
{ACAD_REACTORS
330
219
330
2BF
102
}
330
A
100
AcDbSymbolTableRecord
100
AcDbDimStyleTableRecord
  2
ONSHAPE-ISO-25$4
 70
     0
  3

  4

  5

  6

  7

 40
1.0
 41
2.5
 42
0.625
 43
3.75
 44
1.25
 45
0.0
 46
0.0
 47
0.0
 48
0.0
140
3.5
141
0.0
142
0.0
143
0.03937
144
1.0
145
0.0
146
1.0
147
0.625
 71
     0
 72
     0
 73
     0
 74
     0
 75
     0
 76
     0
 77
     1
 78
     8
170
     0
171
     3
172
     1
173
     0
174
     0
175
     0
176
     7
177
     7
178
     7
179
     1
270
     2
271
     2
272
     2
273
     2
274
     3
340
73
275
     0
280
     0
281
     0
282
     0
283
     0
284
     8
285
     8
286
     0
287
     3
288
     1
  0
DIMSTYLE
105
37A
330
A
100
AcDbSymbolTableRecord
100
AcDbDimStyleTableRecord
  2
ISO-25
 70
     0
  3

  4

  5

  6

  7

 40
1.0
 41
2.5
 42
0.625
 43
3.75
 44
1.25
 45
0.0
 46
0.0
 47
0.0
 48
0.0
140
2.5
141
2.5
142
0.0
143
0.03937007874016
144
1.0
145
0.0
146
1.0
147
0.625
 71
     0
 72
     0
 73
     0
 74
     0
 75
     0
 76
     0
 77
     1
 78
     8
170
     0
171
     3
172
     1
173
     0
174
     0
175
     0
176
     7
177
     7
178
     7
270
     2
271
     2
272
     2
273
     2
274
     3
340
11
275
     0
280
     0
281
     0
282
     0
283
     0
284
     8
285
     0
286
     0
287
     3
288
     1
  0
DIMSTYLE
105
37C
330
A
100
AcDbSymbolTableRecord
100
AcDbDimStyleTableRecord
  2
ISO
 70
     0
  3

  4
"
  5

  6

  7

 40
1.0
 41
3.5
 42
1.0
 43
10.0
 44
1.0
 45
0.0
 46
0.0
 47
0.1
 48
0.1
140
3.5
141
0.0
142
0.0
143
0.03937
144
1.0
145
0.0
146
0.71
147
1.5
 71
     0
 72
     0
 73
     0
 74
     0
 75
     0
 76
     0
 77
     1
 78
     8
170
     0
171
     3
172
     1
173
     0
174
     0
175
     0
176
     7
177
     7
178
     7
270
     2
271
     2
272
     3
273
     2
274
     3
340
11
275
     0
280
     0
281
     0
282
     0
283
     0
284
     8
285
     8
286
     0
287
     3
288
     1
  0
DIMSTYLE
105
37D
330
A
100
AcDbSymbolTableRecord
100
AcDbDimStyleTableRecord
  2
ISO$3
 70
     0
  3

  4
"
  5

  6

  7

 40
1.0
 41
3.5
 42
1.0
 43
10.0
 44
1.0
 45
0.0
 46
0.0
 47
0.1
 48
0.1
140
3.5
141
0.0
142
0.0
143
0.03937
144
1.0
145
0.0
146
0.71
147
1.5
 71
     0
 72
     0
 73
     0
 74
     1
 75
     0
 76
     0
 77
     1
 78
     8
170
     0
171
     3
172
     0
173
     0
174
     0
175
     0
176
     7
177
     7
178
     7
270
     2
271
     2
272
     3
273
     2
274
     3
340
11
275
     0
280
     0
281
     0
282
     0
283
     0
284
     8
285
     8
286
     0
288
     1
  0
DIMSTYLE
105
37E
330
A
100
AcDbSymbolTableRecord
100
AcDbDimStyleTableRecord
  2
ISO$4
 70
     0
  3

  4
"
  5

  6

  7

 40
1.0
 41
3.5
 42
1.0
 43
10.0
 44
1.0
 45
0.0
 46
0.0
 47
0.1
 48
0.1
140
3.5
141
0.0
142
0.0
143
0.03937
144
1.0
145
0.0
146
0.71
147
1.5
 71
     0
 72
     0
 73
     0
 74
     0
 75
     0
 76
     0
 77
     1
 78
     8
170
     0
171
     3
172
     1
173
     0
174
     0
175
     0
176
     7
177
     7
178
     7
270
     2
271
     2
272
     3
273
     2
274
     3
340
11
275
     0
280
     0
281
     0
282
     0
283
     0
284
     8
285
     8
286
     0
287
     3
288
     1
  0
DIMSTYLE
105
37F
330
A
100
AcDbSymbolTableRecord
100
AcDbDimStyleTableRecord
  2
ISO$6
 70
     0
  3

  4
"
  5

  6

  7

 40
1.0
 41
0.5
 42
1.0
 43
10.0
 44
1.0
 45
0.0
 46
0.0
 47
0.1
 48
0.1
140
3.5
141
0.0
142
0.0
143
0.03937
144
1.0
145
0.0
146
0.71
147
1.5
 71
     0
 72
     0
 73
     0
 74
     0
 75
     0
 76
     0
 77
     0
 78
     8
170
     0
171
     3
172
     1
173
     0
174
     0
175
     0
176
     7
177
     7
178
     7
270
     2
271
     2
272
     3
273
     2
274
     3
340
11
275
     0
280
     0
281
     0
282
     0
283
     0
284
     8
285
     8
286
     0
287
     3
288
     1
  0
DIMSTYLE
105
380
330
A
100
AcDbSymbolTableRecord
100
AcDbDimStyleTableRecord
  2
ISO$7
 70
     0
  3

  4
"
  5

  6

  7

 40
1.0
 41
3.5
 42
1.0
 43
10.0
 44
1.0
 45
0.0
 46
0.0
 47
0.1
 48
0.1
140
3.5
141
0.0
142
0.0
143
0.03937
144
1.0
145
0.0
146
0.71
147
1.5
 71
     0
 72
     0
 73
     0
 74
     0
 75
     0
 76
     0
 77
     1
 78
     8
170
     0
171
     3
172
     1
173
     0
174
     0
175
     0
176
     7
177
     7
178
     7
270
     2
271
     2
272
     3
273
     2
274
     3
340
11
275
     0
280
     0
281
     0
282
     0
283
     0
284
     8
285
     8
286
     0
287
     3
288
     1
  0
DIMSTYLE
105
381
330
A
100
AcDbSymbolTableRecord
100
AcDbDimStyleTableRecord
  2
ISO$SF
 70
     0
  3

  4
"
  5

  6

  7

 40
1.0
 41
3.5
 42
1.0
 43
10.0
 44
1.0
 45
0.0
 46
0.0
 47
0.1
 48
0.1
140
3.5
141
0.0
142
0.0
143
0.03937
144
1.0
145
0.0
146
0.71
147
1.5
 71
     0
 72
     0
 73
     0
 74
     0
 75
     1
 76
     1
 77
     1
 78
     8
170
     0
171
     3
172
     1
173
     0
174
     0
175
     0
176
     7
177
     7
178
     7
270
     2
271
     2
272
     3
273
     2
274
     3
340
11
275
     0
280
     0
281
     0
282
     0
283
     0
284
     8
285
     8
286
     0
287
     3
288
     1
  0
DIMSTYLE
105
382
330
A
100
AcDbSymbolTableRecord
100
AcDbDimStyleTableRecord
  2
ISO$SH
 70
     0
  3

  4
"
  5

  6

  7

 40
1.0
 41
3.5
 42
1.0
 43
10.0
 44
1.0
 45
0.0
 46
0.0
 47
0.1
 48
0.1
140
3.5
141
0.0
142
0.0
143
0.03937
144
2.0
145
0.0
146
0.71
147
1.5
 71
     0
 72
     0
 73
     0
 74
     0
 75
     1
 76
     1
 77
     1
 78
     8
170
     0
171
     3
172
     1
173
     1
174
     0
175
     0
176
     7
177
     7
178
     7
270
     2
271
     2
272
     3
273
     2
274
     3
340
11
275
     0
280
     0
281
     0
282
     0
283
     0
284
     8
285
     8
286
     0
287
     3
288
     1
  0
DIMSTYLE
105
384
330
A
100
AcDbSymbolTableRecord
100
AcDbDimStyleTableRecord
  2
ONSHAPE-ISO-25$2
 70
     0
  3

  4

  5

  6

  7

 40
1.0
 41
2.5
 42
0.625
 43
3.75
 44
1.25
 45
0.0
 46
0.0
 47
0.0
 48
0.0
140
3.5
141
2.5
142
0.0
143
0.03937
144
1.0
145
0.0
146
1.0
147
0.625
 71
     0
 72
     0
 73
     0
 74
     0
 75
     0
 76
     0
 77
     1
 78
     8
170
     0
171
     3
172
     1
173
     0
174
     0
175
     0
176
     7
177
     7
178
     7
179
     1
270
     2
271
     2
272
     2
273
     2
274
     3
340
73
275
     0
280
     0
281
     0
282
     0
283
     0
284
     8
285
     8
286
     0
287
     3
288
     1
  0
DIMSTYLE
105
386
330
A
100
AcDbSymbolTableRecord
100
AcDbDimStyleTableRecord
  2
ONSHAPE-ISO-25$6
 70
     0
  3

  4

  5

  6

  7

 40
1.0
 41
0.5
 42
0.625
 43
3.75
 44
1.25
 45
0.0
 46
0.0
 47
0.0
 48
0.0
140
3.5
141
2.5
142
0.0
143
0.03937
144
1.0
145
0.0
146
1.0
147
0.625
 71
     0
 72
     0
 73
     0
 74
     0
 75
     0
 76
     0
 77
     1
 78
     8
170
     0
171
     3
172
     1
173
     0
174
     0
175
     0
176
     7
177
     7
178
     7
179
     1
270
     2
271
     2
272
     2
273
     2
274
     3
340
73
275
     0
280
     0
281
     0
282
     0
283
     0
284
     8
285
     8
286
     0
287
     3
288
     1
  0
DIMSTYLE
105
387
330
A
100
AcDbSymbolTableRecord
100
AcDbDimStyleTableRecord
  2
ONSHAPE-ISO-25$7
 70
     0
  3

  4

  5

  6

  7

 40
1.0
 41
2.5
 42
0.625
 43
3.75
 44
1.25
 45
0.0
 46
0.0
 47
0.0
 48
0.0
140
3.5
141
2.5
142
0.0
143
0.03937
144
1.0
145
0.0
146
1.0
147
0.625
 71
     0
 72
     0
 73
     0
 74
     0
 75
     0
 76
     0
 77
     1
 78
     8
170
     0
171
     3
172
     1
173
     0
174
     0
175
     0
176
     7
177
     7
178
     7
179
     1
270
     2
271
     2
272
     2
273
     2
274
     3
340
73
275
     0
280
     0
281
     0
282
     0
283
     0
284
     8
285
     8
286
     0
287
     3
288
     1
  0
DIMSTYLE
105
388
330
A
100
AcDbSymbolTableRecord
100
AcDbDimStyleTableRecord
  2
ONSHAPE-STANDARD-GTOLERANC
 70
     0
  3

  4

  5

  6

  7

 40
1.0
 41
2.5
 42
0.625
 43
3.75
 44
1.25
 45
0.0
 46
0.0
 47
0.0
 48
0.0
140
3.5
141
2.5
142
0.0
143
0.03937
144
1.0
145
0.0
146
1.0
147
0.625
 71
     0
 72
     0
 73
     0
 74
     0
 75
     0
 76
     0
 77
     1
 78
     8
170
     0
171
     3
172
     1
173
     0
174
     0
175
     0
176
     7
177
     7
178
     7
179
     1
270
     2
271
     2
272
     2
273
     2
274
     3
340
334
275
     0
280
     0
281
     0
282
     0
283
     0
284
     8
285
     8
286
     0
287
     3
288
     1
  0
DIMSTYLE
105
38A
330
A
100
AcDbSymbolTableRecord
100
AcDbDimStyleTableRecord
  2
ONSHAPE-ORDINATESTYLE
 70
     0
  3

  4

  5

  6

  7

 40
1.0
 41
2.5
 42
0.625
 43
3.75
 44
1.25
 45
0.0
 46
0.0
 47
0.0
 48
0.0
140
3.5
141
2.5
142
0.0
143
0.03937
144
1.0
145
0.0
146
1.0
147
0.625
 71
     0
 72
     0
 73
     0
 74
     0
 75
     0
 76
     0
 77
     1
 78
     8
170
     0
171
     3
172
     1
173
     0
174
     0
175
     0
176
     7
177
     7
178
     7
179
     1
270
     2
271
     2
272
     2
273
     2
274
     3
340
73
275
     0
280
     0
281
     0
282
     0
283
     0
284
     8
285
     8
286
     0
287
     3
288
     1
  0
DIMSTYLE
105
38B
330
A
100
AcDbSymbolTableRecord
100
AcDbDimStyleTableRecord
  2
ONSHAPE-CHAMFERDIMSTYLE
 70
     0
  3

  4

  5

  6

  7

 40
1.0
 41
2.5
 42
0.625
 43
3.75
 44
1.25
 45
0.0
 46
0.0
 47
0.0
 48
0.0
140
3.5
141
2.5
142
0.0
143
0.03937
144
1.0
145
0.0
146
1.0
147
0.625
 71
     0
 72
     0
 73
     0
 74
     0
 75
     0
 76
     0
 77
     1
 78
     8
170
     0
171
     3
172
     1
173
     0
174
     0
175
     0
176
     7
177
     7
178
     7
179
     1
270
     2
271
     2
272
     2
273
     2
274
     3
340
73
275
     0
280
     0
281
     0
282
     0
283
     0
284
     8
285
     8
286
     0
287
     3
288
     1
  0
DIMSTYLE
105
38C
330
A
100
AcDbSymbolTableRecord
100
AcDbDimStyleTableRecord
  2
ONSHAPE-SKETCHDRIVENDIMSTY
 70
     0
  3

  4

  5

  6

  7

 40
1.0
 41
2.5
 42
0.625
 43
3.75
 44
1.25
 45
0.0
 46
0.0
 47
0.0
 48
0.0
140
3.5
141
2.5
142
0.0
143
0.03937
144
1.0
145
0.0
146
1.0
147
0.625
 71
     0
 72
     0
 73
     0
 74
     0
 75
     0
 76
     0
 77
     1
 78
     8
170
     0
171
     3
172
     1
173
     0
174
     0
175
     0
176
   251
177
   251
178
   251
179
     1
270
     2
271
     2
272
     2
273
     2
274
     3
340
73
275
     0
280
     0
281
     0
282
     0
283
     0
284
     8
285
     8
286
     0
287
     3
288
     1
  0
DIMSTYLE
105
38D
330
A
100
AcDbSymbolTableRecord
100
AcDbDimStyleTableRecord
  2
ONSHAPE-SKETCHDRIVENDIMST0
 70
     0
  3

  4

  5

  6

  7

 40
1.0
 41
2.5
 42
0.625
 43
3.75
 44
1.25
 45
0.0
 46
0.0
 47
0.0
 48
0.0
140
3.5
141
2.5
142
0.0
143
0.03937
144
1.0
145
0.0
146
1.0
147
0.625
 71
     0
 72
     0
 73
     0
 74
     0
 75
     0
 76
     0
 77
     1
 78
     8
170
     0
171
     3
172
     1
173
     0
174
     0
175
     0
176
   251
177
   251
178
   251
179
     1
270
     2
271
     2
272
     2
273
     2
274
     3
340
73
275
     0
280
     0
281
     0
282
     0
283
     0
284
     8
285
     8
286
     0
287
     3
288
     1
  0
DIMSTYLE
105
38E
330
A
100
AcDbSymbolTableRecord
100
AcDbDimStyleTableRecord
  2
ONSHAPE-SKETCHDRIVENDIMST1
 70
     0
  3

  4

  5

  6

  7

 40
1.0
 41
2.5
 42
0.625
 43
3.75
 44
1.25
 45
0.0
 46
0.0
 47
0.0
 48
0.0
140
3.5
141
0.0
142
0.0
143
0.03937
144
1.0
145
0.0
146
1.0
147
0.625
 71
     0
 72
     0
 73
     0
 74
     0
 75
     0
 76
     0
 77
     1
 78
     8
170
     0
171
     3
172
     1
173
     0
174
     0
175
     0
176
   251
177
   251
178
   251
179
     1
270
     2
271
     2
272
     2
273
     2
274
     3
340
73
275
     0
280
     0
281
     0
282
     0
283
     0
284
     8
285
     8
286
     0
287
     3
288
     1
  0
DIMSTYLE
105
38F
330
A
100
AcDbSymbolTableRecord
100
AcDbDimStyleTableRecord
  2
ONSHAPE-SKETCHDRIVENDIMST2
 70
     0
  3

  4

  5

  6

  7

 40
1.0
 41
2.5
 42
0.625
 43
3.75
 44
1.25
 45
0.0
 46
0.0
 47
0.0
 48
0.0
140
3.5
141
0.0
142
0.0
143
0.03937
144
1.0
145
0.0
146
1.0
147
0.625
 71
     0
 72
     0
 73
     0
 74
     0
 75
     0
 76
     0
 77
     1
 78
     8
170
     0
171
     3
172
     1
173
     0
174
     0
175
     0
176
   251
177
   251
178
   251
179
     1
270
     2
271
     2
272
     2
273
     2
274
     3
340
73
275
     0
280
     0
281
     0
282
     0
283
     0
284
     8
285
     8
286
     0
287
     3
288
     1
  0
ENDTAB
  0
TABLE
  2
BLOCK_RECORD
  5
1
330
0
100
AcDbSymbolTable
 70
    17
  0
BLOCK_RECORD
  5
1F
330
1
100
AcDbSymbolTableRecord
100
AcDbBlockTableRecord
  2
*MODEL_SPACE
  0
BLOCK_RECORD
  5
1B
330
1
100
AcDbSymbolTableRecord
100
AcDbBlockTableRecord
  2
*PAPER_SPACE
  0
BLOCK_RECORD
  5
1E3
330
1
100
AcDbSymbolTableRecord
100
AcDbBlockTableRecord
  2
*D1
  0
BLOCK_RECORD
  5
1FA
330
1
100
AcDbSymbolTableRecord
100
AcDbBlockTableRecord
  2
*D2
  0
BLOCK_RECORD
  5
20D
330
1
100
AcDbSymbolTableRecord
100
AcDbBlockTableRecord
  2
*D3
  0
BLOCK_RECORD
  5
21F
330
1
100
AcDbSymbolTableRecord
100
AcDbBlockTableRecord
  2
*D4
  0
BLOCK_RECORD
  5
22E
330
1
100
AcDbSymbolTableRecord
100
AcDbBlockTableRecord
  2
*D5
  0
BLOCK_RECORD
  5
240
330
1
100
AcDbSymbolTableRecord
100
AcDbBlockTableRecord
  2
*D6
  0
BLOCK_RECORD
  5
252
330
1
100
AcDbSymbolTableRecord
100
AcDbBlockTableRecord
  2
*D7
  0
BLOCK_RECORD
  5
264
330
1
100
AcDbSymbolTableRecord
100
AcDbBlockTableRecord
  2
*D8
  0
BLOCK_RECORD
  5
276
330
1
100
AcDbSymbolTableRecord
100
AcDbBlockTableRecord
  2
*D9
  0
BLOCK_RECORD
  5
288
330
1
100
AcDbSymbolTableRecord
100
AcDbBlockTableRecord
  2
*D10
  0
BLOCK_RECORD
  5
29A
330
1
100
AcDbSymbolTableRecord
100
AcDbBlockTableRecord
  2
*D11
  0
BLOCK_RECORD
  5
2AC
330
1
100
AcDbSymbolTableRecord
100
AcDbBlockTableRecord
  2
*D12
  0
BLOCK_RECORD
  5
2C9
330
1
100
AcDbSymbolTableRecord
100
AcDbBlockTableRecord
  2
*D13
  0
BLOCK_RECORD
  5
2DD
330
1
100
AcDbSymbolTableRecord
100
AcDbBlockTableRecord
  2
*D14
  0
BLOCK_RECORD
  5
2F0
330
1
100
AcDbSymbolTableRecord
100
AcDbBlockTableRecord
  2
*D15
  0
BLOCK_RECORD
  5
302
330
1
100
AcDbSymbolTableRecord
100
AcDbBlockTableRecord
  2
*D16
  0
BLOCK_RECORD
  5
314
330
1
100
AcDbSymbolTableRecord
100
AcDbBlockTableRecord
  2
*D17
  0
ENDTAB
  0
ENDSEC
  0
SECTION
  2
BLOCKS
  0
BLOCK
  5
20
330
1F
100
AcDbEntity
  8
0
100
AcDbBlockBegin
  2
*MODEL_SPACE
 70
     0
 10
0.0
 20
0.0
 30
0.0
  3
*MODEL_SPACE
  1

  0
ENDBLK
  5
21
330
1F
100
AcDbEntity
  8
0
100
AcDbBlockEnd
  0
BLOCK
  5
1C
330
1B
100
AcDbEntity
 67
     1
  8
0
100
AcDbBlockBegin
  2
*PAPER_SPACE
 70
     0
 10
0.0
 20
0.0
 30
0.0
  3
*PAPER_SPACE
  1

  0
ENDBLK
  5
1D
330
1B
100
AcDbEntity
 67
     1
  8
0
100
AcDbBlockEnd
  0
BLOCK
  5
1E4
330
1E3
100
AcDbEntity
  8
0
100
AcDbBlockBegin
  2
*D1
 70
     1
 10
0.0
 20
0.0
 30
0.0
  3
*D1
  1

  0
LINE
  5
1E5
330
1E3
100
AcDbEntity
  8
ANNOTATION_TEXT
 62
     7
100
AcDbLine
 10
443.221345949741
 20
213.9939903686273
 30
0.0
 11
436.4010965391235
 21
203.3879519111088
 31
0.0
1001
INDEX
1070
     3
  0
LINE
  5
1E7
330
1E3
100
AcDbEntity
  8
ANNOTATION_TEXT
 62
     7
100
AcDbLine
 10
451.3344620440522
 20
226.6105408972079
 30
0.0
 11
452.6866480597707
 21
228.713299318638
 31
0.0
1001
INDEX
1070
     3
  0
MTEXT
  5
1E8
330
1E3
100
AcDbEntity
  8
ANNOTATION_TEXT
 62
     7
100
AcDbMText
 10
437.0141783764833
 20
209.0034760119013
 30
0.0
 40
3.5
 41
0.0
 71
     5
 72
     1
  1
%%c10
  7
ONSHAPE-STANDARD-DIMENSION
 11
0.5408744062874186
 21
0.8411033685720397
 31
0.0
  0
LINE
  5
1E9
330
1E3
100
AcDbEntity
  8
ANNOTATION_TEXT
 62
     7
100
AcDbLine
 10
449.9822760283337
 20
224.5077824757778
 30
0.0
 11
444.5735319654595
 21
216.0967487900574
 31
0.0
1001
INDEX
1070
     3
  0
SOLID
  5
1EA
330
1E3
100
AcDbEntity
  8
ANNOTATION_TEXT
 62
     7
100
AcDbTrace
 10
450.9840023071472
 20
226.835905233161
 30
0.0
 11
451.6849217809572
 21
226.3851765612548
 31
0.0
 12
449.9822760283337
 22
224.5077824757778
 32
0.0
 13
449.9822760283337
 23
224.5077824757778
 33
0.0
  0
SOLID
  5
1EB
330
1E3
100
AcDbEntity
  8
ANNOTATION_TEXT
 62
     7
100
AcDbTrace
 10
443.571805686646
 20
213.7686260326742
 30
0.0
 11
442.870886212836
 21
214.2193547045804
 31
0.0
 12
444.5735319654595
 22
216.0967487900574
 32
0.0
 13
444.5735319654595
 23
216.0967487900574
 33
0.0
  0
POINT
  5
1EC
330
1E3
100
AcDbEntity
  8
DEFPOINTS
 62
     0
100
AcDbPoint
 10
444.5735319654595
 20
216.0967487900574
 30
0.0
  0
POINT
  5
1ED
330
1E3
100
AcDbEntity
  8
DEFPOINTS
 62
     0
100
AcDbPoint
 10
449.9822760283337
 20
224.5077824757778
 30
0.0
  0
ENDBLK
  5
1EE
330
1E3
100
AcDbEntity
  8
0
100
AcDbBlockEnd
  0
BLOCK
  5
1FB
330
1FA
100
AcDbEntity
  8
0
100
AcDbBlockBegin
  2
*D2
 70
     1
 10
0.0
 20
0.0
 30
0.0
  3
*D2
  1

  0
LINE
  5
1FC
330
1FA
100
AcDbEntity
  8
ANNOTATION_TEXT
 62
     7
100
AcDbLine
 10
403.1717499529155
 20
207.5422656329176
 30
0.0
 11
402.5467499529155
 21
207.5422656329176
 31
0.0
1001
INDEX
1070
     0
  0
LINE
  5
1FD
330
1FA
100
AcDbEntity
  8
ANNOTATION_TEXT
 62
     7
100
AcDbLine
 10
403.1717499529155
 20
213.9422656329176
 30
0.0
 11
402.5467499529155
 21
213.9422656329176
 31
0.0
1001
INDEX
1070
     1
  0
LINE
  5
1FE
330
1FA
100
AcDbEntity
  8
ANNOTATION_TEXT
 62
     7
100
AcDbLine
 10
403.7967499529155
 20
213.9422656329176
 30
0.0
 11
403.7967499529155
 21
225.0733652569563
 31
0.0
  0
LINE
  5
1FF
330
1FA
100
AcDbEntity
  8
ANNOTATION_TEXT
 62
     7
100
AcDbLine
 10
403.7967499529155
 20
210.0422656329176
 30
0.0
 11
403.7967499529155
 21
211.4422656329176
 31
0.0
1001
INDEX
1070
     3
  0
SOLID
  5
200
330
1FA
100
AcDbEntity
  8
ANNOTATION_TEXT
 62
     7
100
AcDbTrace
 10
403.3800832862489
 20
210.0422656329176
 30
0.0
 11
404.2134166195822
 21
210.0422656329176
 31
0.0
 12
403.7967499529155
 22
207.5422656329176
 32
0.0
 13
403.7967499529155
 23
207.5422656329176
 33
0.0
  0
SOLID
  5
201
330
1FA
100
AcDbEntity
  8
ANNOTATION_TEXT
 62
     7
100
AcDbTrace
 10
404.2134166195822
 20
211.4422656329176
 30
0.0
 11
403.3800832862489
 21
211.4422656329176
 31
0.0
 12
403.7967499529155
 22
213.9422656329176
 32
0.0
 13
403.7967499529155
 23
213.9422656329176
 33
0.0
  0
MTEXT
  5
202
330
1FA
100
AcDbEntity
  8
ANNOTATION_TEXT
 62
     7
100
AcDbMText
 10
401.0891545850682
 20
221.1855927773922
 30
0.0
 40
3.5
 41
0.0
 71
     5
 72
     1
  1
6,4
  7
ONSHAPE-STANDARD-DIMENSION
 11
0.0
 21
1.0
 31
0.0
  0
POINT
  5
203
330
1FA
100
AcDbEntity
  8
DEFPOINTS
 62
     0
100
AcDbPoint
 10
403.7967499529155
 20
207.5422656329176
 30
0.0
  0
POINT
  5
204
330
1FA
100
AcDbEntity
  8
DEFPOINTS
 62
     0
100
AcDbPoint
 10
403.7967499529155
 20
213.9422656329176
 30
0.0
  0
POINT
  5
205
330
1FA
100
AcDbEntity
  8
DEFPOINTS
 62
     0
100
AcDbPoint
 10
403.7967499529155
 20
213.9422656329176
 30
0.0
  0
ENDBLK
  5
206
330
1FA
100
AcDbEntity
  8
0
100
AcDbBlockEnd
  0
BLOCK
  5
20E
330
20D
100
AcDbEntity
  8
0
100
AcDbBlockBegin
  2
*D3
 70
     1
 10
0.0
 20
0.0
 30
0.0
  3
*D3
  1

  0
LINE
  5
20F
330
20D
100
AcDbEntity
  8
ANNOTATION_TEXT
 62
     7
100
AcDbLine
 10
397.3279039968966
 20
210.3172656329176
 30
0.0
 11
397.3279039968966
 21
199.2819578557504
 31
0.0
1001
INDEX
1070
     0
  0
LINE
  5
210
330
20D
100
AcDbEntity
  8
ANNOTATION_TEXT
 62
     7
100
AcDbLine
 10
409.7279039968966
 20
210.3172656329176
 30
0.0
 11
409.7279039968966
 21
199.2819578557504
 31
0.0
1001
INDEX
1070
     1
  0
LINE
  5
211
330
20D
100
AcDbEntity
  8
ANNOTATION_TEXT
 62
     7
100
AcDbLine
 10
399.8279039968966
 20
200.5319578557504
 30
0.0
 11
407.2279039968966
 21
200.5319578557504
 31
0.0
1001
INDEX
1070
     3
  0
SOLID
  5
212
330
20D
100
AcDbEntity
  8
ANNOTATION_TEXT
 62
     7
100
AcDbTrace
 10
399.8279039968966
 20
200.948624522417
 30
0.0
 11
399.8279039968966
 21
200.1152911890837
 31
0.0
 12
397.3279039968966
 22
200.5319578557504
 32
0.0
 13
397.3279039968966
 23
200.5319578557504
 33
0.0
  0
SOLID
  5
213
330
20D
100
AcDbEntity
  8
ANNOTATION_TEXT
 62
     7
100
AcDbTrace
 10
407.2279039968966
 20
200.1152911890837
 30
0.0
 11
407.2279039968966
 21
200.948624522417
 31
0.0
 12
409.7279039968966
 22
200.5319578557504
 32
0.0
 13
409.7279039968966
 23
200.5319578557504
 33
0.0
  0
MTEXT
  5
214
330
20D
100
AcDbEntity
  8
ANNOTATION_TEXT
 62
     7
100
AcDbMText
 10
403.5279039968966
 20
203.2395532235978
 30
0.0
 40
3.5
 41
0.0
 71
     5
 72
     1
  1
12,4
  7
ONSHAPE-STANDARD-DIMENSION
  0
POINT
  5
215
330
20D
100
AcDbEntity
  8
DEFPOINTS
 62
     0
100
AcDbPoint
 10
397.3279039968966
 20
210.9422656329176
 30
0.0
  0
POINT
  5
216
330
20D
100
AcDbEntity
  8
DEFPOINTS
 62
     0
100
AcDbPoint
 10
409.7279039968966
 20
210.9422656329176
 30
0.0
  0
POINT
  5
217
330
20D
100
AcDbEntity
  8
DEFPOINTS
 62
     0
100
AcDbPoint
 10
409.7279039968966
 20
200.5319578557504
 30
0.0
  0
ENDBLK
  5
218
330
20D
100
AcDbEntity
  8
0
100
AcDbBlockEnd
  0
BLOCK
  5
220
330
21F
100
AcDbEntity
  8
0
100
AcDbBlockBegin
  2
*D4
 70
     1
 10
0.0
 20
0.0
 30
0.0
  3
*D4
  1

  0
LINE
  5
221
330
21F
100
AcDbEntity
  8
ANNOTATION_TEXT
 62
     7
100
AcDbLine
 10
396.089053704804
 20
214.4468552239006
 30
0.0
 11
389.3034282372171
 21
220.0570633566051
 31
0.0
1001
INDEX
1070
     3
  0
MTEXT
  5
222
330
21F
100
AcDbEntity
  8
ANNOTATION_TEXT
 62
     7
100
AcDbMText
 10
393.2727975025216
 20
219.9110258029139
 30
0.0
 40
3.5
 41
0.0
 71
     5
 72
     1
  1
R3
  7
ONSHAPE-STANDARD-DIMENSION
 11
0.7707000531077428
 21
-0.6371981074514601
 31
0.0
  0
LINE
  5
223
330
21F
100
AcDbEntity
  8
ANNOTATION_TEXT
 62
     7
100
AcDbLine
 10
400.3279039968966
 20
210.9422656329176
 30
0.0
 11
398.0158038375734
 21
212.853859955272
 31
0.0
1001
INDEX
1070
     3
  0
SOLID
  5
224
330
21F
100
AcDbEntity
  8
ANNOTATION_TEXT
 62
     7
100
AcDbTrace
 10
395.8235544933659
 20
214.1257302017724
 30
0.0
 11
396.3545529162421
 21
214.7679802460289
 31
0.0
 12
398.0158038375734
 22
212.853859955272
 32
0.0
 13
398.0158038375734
 23
212.853859955272
 33
0.0
  0
POINT
  5
225
330
21F
100
AcDbEntity
  8
DEFPOINTS
 62
     0
100
AcDbPoint
 10
398.0158038375734
 20
212.853859955272
 30
0.0
  0
POINT
  5
226
330
21F
100
AcDbEntity
  8
DEFPOINTS
 62
     0
100
AcDbPoint
 10
400.3279039968966
 20
210.9422656329176
 30
0.0
  0
ENDBLK
  5
227
330
21F
100
AcDbEntity
  8
0
100
AcDbBlockEnd
  0
BLOCK
  5
22F
330
22E
100
AcDbEntity
  8
0
100
AcDbBlockBegin
  2
*D5
 70
     1
 10
0.0
 20
0.0
 30
0.0
  3
*D5
  1

  0
LINE
  5
230
330
22E
100
AcDbEntity
  8
ANNOTATION_TEXT
 62
     7
100
AcDbLine
 10
446.6529039968966
 20
220.3022656329176
 30
0.0
 11
429.1014234235979
 21
220.3022656329176
 31
0.0
1001
INDEX
1070
     0
  0
LINE
  5
231
330
22E
100
AcDbEntity
  8
ANNOTATION_TEXT
 62
     7
100
AcDbLine
 10
429.7264234235979
 20
235.5422656329176
 30
0.0
 11
429.1014234235979
 21
235.5422656329176
 31
0.0
1001
INDEX
1070
     1
  0
LINE
  5
232
330
22E
100
AcDbEntity
  8
ANNOTATION_TEXT
 62
     7
100
AcDbLine
 10
430.3514234235979
 20
222.8022656329176
 30
0.0
 11
430.3514234235979
 21
233.0422656329176
 31
0.0
1001
INDEX
1070
     3
  0
SOLID
  5
233
330
22E
100
AcDbEntity
  8
ANNOTATION_TEXT
 62
     7
100
AcDbTrace
 10
429.9347567569312
 20
222.8022656329176
 30
0.0
 11
430.7680900902646
 21
222.8022656329176
 31
0.0
 12
430.3514234235979
 22
220.3022656329176
 32
0.0
 13
430.3514234235979
 23
220.3022656329176
 33
0.0
  0
SOLID
  5
234
330
22E
100
AcDbEntity
  8
ANNOTATION_TEXT
 62
     7
100
AcDbTrace
 10
430.7680900902646
 20
233.0422656329176
 30
0.0
 11
429.9347567569312
 21
233.0422656329176
 31
0.0
 12
430.3514234235979
 22
235.5422656329176
 32
0.0
 13
430.3514234235979
 23
235.5422656329176
 33
0.0
  0
MTEXT
  5
235
330
22E
100
AcDbEntity
  8
ANNOTATION_TEXT
 62
     7
100
AcDbMText
 10
427.6438280557505
 20
227.9222656329176
 30
0.0
 40
3.5
 41
0.0
 71
     5
 72
     1
  1
15,24
  7
ONSHAPE-STANDARD-DIMENSION
 11
0.0
 21
1.0
 31
0.0
  0
POINT
  5
236
330
22E
100
AcDbEntity
  8
DEFPOINTS
 62
     0
100
AcDbPoint
 10
447.2779039968966
 20
220.3022656329176
 30
0.0
  0
POINT
  5
237
330
22E
100
AcDbEntity
  8
DEFPOINTS
 62
     0
100
AcDbPoint
 10
430.3514234235979
 20
235.5422656329176
 30
0.0
  0
POINT
  5
238
330
22E
100
AcDbEntity
  8
DEFPOINTS
 62
     0
100
AcDbPoint
 10
430.3514234235979
 20
235.5422656329176
 30
0.0
  0
ENDBLK
  5
239
330
22E
100
AcDbEntity
  8
0
100
AcDbBlockEnd
  0
BLOCK
  5
241
330
240
100
AcDbEntity
  8
0
100
AcDbBlockBegin
  2
*D6
 70
     1
 10
0.0
 20
0.0
 30
0.0
  3
*D6
  1

  0
LINE
  5
242
330
240
100
AcDbEntity
  8
ANNOTATION_TEXT
 62
     7
100
AcDbLine
 10
371.5279039968966
 20
236.1672656329176
 30
0.0
 11
371.5279039968966
 21
244.4169613725682
 31
0.0
1001
INDEX
1070
     0
  0
LINE
  5
243
330
240
100
AcDbEntity
  8
ANNOTATION_TEXT
 62
     7
100
AcDbLine
 10
561.5279039968966
 20
236.1672656329176
 30
0.0
 11
561.5279039968966
 21
244.4169613725682
 31
0.0
1001
INDEX
1070
     1
  0
LINE
  5
244
330
240
100
AcDbEntity
  8
ANNOTATION_TEXT
 62
     7
100
AcDbLine
 10
374.0279039968966
 20
243.1669613725682
 30
0.0
 11
559.0279039968966
 21
243.1669613725682
 31
0.0
1001
INDEX
1070
     3
  0
SOLID
  5
245
330
240
100
AcDbEntity
  8
ANNOTATION_TEXT
 62
     7
100
AcDbTrace
 10
374.0279039968966
 20
243.5836280392349
 30
0.0
 11
374.0279039968966
 21
242.7502947059016
 31
0.0
 12
371.5279039968966
 22
243.1669613725682
 32
0.0
 13
371.5279039968966
 23
243.1669613725682
 33
0.0
  0
SOLID
  5
246
330
240
100
AcDbEntity
  8
ANNOTATION_TEXT
 62
     7
100
AcDbTrace
 10
559.0279039968966
 20
242.7502947059016
 30
0.0
 11
559.0279039968966
 21
243.5836280392349
 31
0.0
 12
561.5279039968966
 22
243.1669613725682
 32
0.0
 13
561.5279039968966
 23
243.1669613725682
 33
0.0
  0
MTEXT
  5
247
330
240
100
AcDbEntity
  8
ANNOTATION_TEXT
 62
     7
100
AcDbMText
 10
466.5279039968966
 20
245.586069001996
 30
0.0
 40
3.5
 41
0.0
 71
     5
 72
     1
  1
190
  7
ONSHAPE-STANDARD-DIMENSION
  0
POINT
  5
248
330
240
100
AcDbEntity
  8
DEFPOINTS
 62
     0
100
AcDbPoint
 10
371.5279039968966
 20
235.5422656329176
 30
0.0
  0
POINT
  5
249
330
240
100
AcDbEntity
  8
DEFPOINTS
 62
     0
100
AcDbPoint
 10
561.5279039968966
 20
235.5422656329176
 30
0.0
  0
POINT
  5
24A
330
240
100
AcDbEntity
  8
DEFPOINTS
 62
     0
100
AcDbPoint
 10
561.5279039968966
 20
243.1669613725682
 30
0.0
  0
ENDBLK
  5
24B
330
240
100
AcDbEntity
  8
0
100
AcDbBlockEnd
  0
BLOCK
  5
253
330
252
100
AcDbEntity
  8
0
100
AcDbBlockBegin
  2
*D7
 70
     1
 10
0.0
 20
0.0
 30
0.0
  3
*D7
  1

  0
LINE
  5
254
330
252
100
AcDbEntity
  8
ANNOTATION_TEXT
 62
     7
100
AcDbLine
 10
549.5279039968966
 20
196.9172656329176
 30
0.0
 11
549.5279039968966
 21
190.1353481047376
 31
0.0
1001
INDEX
1070
     0
  0
LINE
  5
255
330
252
100
AcDbEntity
  8
ANNOTATION_TEXT
 62
     7
100
AcDbLine
 10
383.5279039968966
 20
196.9172656329176
 30
0.0
 11
383.5279039968966
 21
190.1353481047376
 31
0.0
1001
INDEX
1070
     1
  0
LINE
  5
256
330
252
100
AcDbEntity
  8
ANNOTATION_TEXT
 62
     7
100
AcDbLine
 10
547.0279039968966
 20
191.3853481047376
 30
0.0
 11
386.0279039968966
 21
191.3853481047376
 31
0.0
1001
INDEX
1070
     3
  0
SOLID
  5
257
330
252
100
AcDbEntity
  8
ANNOTATION_TEXT
 62
     7
100
AcDbTrace
 10
547.0279039968966
 20
190.9686814380709
 30
0.0
 11
547.0279039968966
 21
191.8020147714042
 31
0.0
 12
549.5279039968966
 22
191.3853481047376
 32
0.0
 13
549.5279039968966
 23
191.3853481047376
 33
0.0
  0
SOLID
  5
258
330
252
100
AcDbEntity
  8
ANNOTATION_TEXT
 62
     7
100
AcDbTrace
 10
386.0279039968966
 20
191.8020147714042
 30
0.0
 11
386.0279039968966
 21
190.9686814380709
 31
0.0
 12
383.5279039968966
 22
191.3853481047376
 32
0.0
 13
383.5279039968966
 23
191.3853481047376
 33
0.0
  0
MTEXT
  5
259
330
252
100
AcDbEntity
  8
ANNOTATION_TEXT
 62
     7
100
AcDbMText
 10
466.5279039968966
 20
193.8020715379801
 30
0.0
 40
3.5
 41
0.0
 71
     5
 72
     1
  1
166
  7
ONSHAPE-STANDARD-DIMENSION
  0
POINT
  5
25A
330
252
100
AcDbEntity
  8
DEFPOINTS
 62
     0
100
AcDbPoint
 10
549.5279039968966
 20
197.5422656329176
 30
0.0
  0
POINT
  5
25B
330
252
100
AcDbEntity
  8
DEFPOINTS
 62
     0
100
AcDbPoint
 10
383.5279039968966
 20
197.5422656329176
 30
0.0
  0
POINT
  5
25C
330
252
100
AcDbEntity
  8
DEFPOINTS
 62
     0
100
AcDbPoint
 10
383.5279039968966
 20
191.3853481047376
 30
0.0
  0
ENDBLK
  5
25D
330
252
100
AcDbEntity
  8
0
100
AcDbBlockEnd
  0
BLOCK
  5
265
330
264
100
AcDbEntity
  8
0
100
AcDbBlockBegin
  2
*D8
 70
     1
 10
0.0
 20
0.0
 30
0.0
  3
*D8
  1

  0
LINE
  5
266
330
264
100
AcDbEntity
  8
ANNOTATION_TEXT
 62
     7
100
AcDbLine
 10
545.4500431450643
 20
137.6352717936153
 30
0.0
 11
545.4500431450643
 21
131.3733998403768
 31
0.0
1001
INDEX
1070
     0
  0
LINE
  5
267
330
264
100
AcDbEntity
  8
ANNOTATION_TEXT
 62
     7
100
AcDbLine
 10
385.4500431450643
 20
137.6352717936153
 30
0.0
 11
385.4500431450643
 21
131.3733998403768
 31
0.0
1001
INDEX
1070
     1
  0
LINE
  5
268
330
264
100
AcDbEntity
  8
ANNOTATION_TEXT
 62
     7
100
AcDbLine
 10
542.9500431450643
 20
132.6233998403768
 30
0.0
 11
387.9500431450643
 21
132.6233998403768
 31
0.0
1001
INDEX
1070
     3
  0
SOLID
  5
269
330
264
100
AcDbEntity
  8
ANNOTATION_TEXT
 62
     7
100
AcDbTrace
 10
542.9500431450643
 20
132.2067331737102
 30
0.0
 11
542.9500431450643
 21
133.0400665070435
 31
0.0
 12
545.4500431450643
 22
132.6233998403768
 32
0.0
 13
545.4500431450643
 23
132.6233998403768
 33
0.0
  0
SOLID
  5
26A
330
264
100
AcDbEntity
  8
ANNOTATION_TEXT
 62
     7
100
AcDbTrace
 10
387.9500431450643
 20
133.0400665070435
 30
0.0
 11
387.9500431450643
 21
132.2067331737102
 31
0.0
 12
385.4500431450643
 22
132.6233998403768
 32
0.0
 13
385.4500431450643
 23
132.6233998403768
 33
0.0
  0
MTEXT
  5
26B
330
264
100
AcDbEntity
  8
ANNOTATION_TEXT
 62
     7
100
AcDbMText
 10
470.6729553401434
 20
135.0425074698046
 30
0.0
 40
3.5
 41
0.0
 71
     5
 72
     1
  1
160
  7
ONSHAPE-STANDARD-DIMENSION
  0
POINT
  5
26C
330
264
100
AcDbEntity
  8
DEFPOINTS
 62
     0
100
AcDbPoint
 10
545.4500431450643
 20
138.2602717936153
 30
0.0
  0
POINT
  5
26D
330
264
100
AcDbEntity
  8
DEFPOINTS
 62
     0
100
AcDbPoint
 10
385.4500431450643
 20
138.2602717936153
 30
0.0
  0
POINT
  5
26E
330
264
100
AcDbEntity
  8
DEFPOINTS
 62
     0
100
AcDbPoint
 10
385.4500431450643
 20
132.6233998403768
 30
0.0
  0
ENDBLK
  5
26F
330
264
100
AcDbEntity
  8
0
100
AcDbBlockEnd
  0
BLOCK
  5
277
330
276
100
AcDbEntity
  8
0
100
AcDbBlockBegin
  2
*D9
 70
     1
 10
0.0
 20
0.0
 30
0.0
  3
*D9
  1

  0
LINE
  5
278
330
276
100
AcDbEntity
  8
ANNOTATION_TEXT
 62
     7
100
AcDbLine
 10
384.8250431450643
 20
168.0602717936154
 30
0.0
 11
376.186546265303
 21
168.0602717936154
 31
0.0
1001
INDEX
1070
     0
  0
LINE
  5
279
330
276
100
AcDbEntity
  8
ANNOTATION_TEXT
 62
     7
100
AcDbLine
 10
384.8250431450643
 20
138.2602717936153
 30
0.0
 11
376.186546265303
 21
138.2602717936153
 31
0.0
1001
INDEX
1070
     1
  0
LINE
  5
27A
330
276
100
AcDbEntity
  8
ANNOTATION_TEXT
 62
     7
100
AcDbLine
 10
377.436546265303
 20
165.5602717936154
 30
0.0
 11
377.436546265303
 21
140.7602717936153
 31
0.0
1001
INDEX
1070
     3
  0
SOLID
  5
27B
330
276
100
AcDbEntity
  8
ANNOTATION_TEXT
 62
     7
100
AcDbTrace
 10
377.8532129319697
 20
165.5602717936154
 30
0.0
 11
377.0198795986364
 21
165.5602717936154
 31
0.0
 12
377.436546265303
 22
168.0602717936154
 32
0.0
 13
377.436546265303
 23
168.0602717936154
 33
0.0
  0
SOLID
  5
27C
330
276
100
AcDbEntity
  8
ANNOTATION_TEXT
 62
     7
100
AcDbTrace
 10
377.0198795986364
 20
140.7602717936153
 30
0.0
 11
377.8532129319697
 21
140.7602717936153
 31
0.0
 12
377.436546265303
 22
138.2602717936153
 32
0.0
 13
377.436546265303
 23
138.2602717936153
 33
0.0
  0
MTEXT
  5
27D
330
276
100
AcDbEntity
  8
ANNOTATION_TEXT
 62
     7
100
AcDbMText
 10
374.7289508974557
 20
153.1602717936154
 30
0.0
 40
3.5
 41
0.0
 71
     5
 72
     1
  1
29,8
  7
ONSHAPE-STANDARD-DIMENSION
 11
0.0
 21
1.0
 31
0.0
  0
POINT
  5
27E
330
276
100
AcDbEntity
  8
DEFPOINTS
 62
     0
100
AcDbPoint
 10
385.4500431450643
 20
168.0602717936154
 30
0.0
  0
POINT
  5
27F
330
276
100
AcDbEntity
  8
DEFPOINTS
 62
     0
100
AcDbPoint
 10
385.4500431450643
 20
138.2602717936153
 30
0.0
  0
POINT
  5
280
330
276
100
AcDbEntity
  8
DEFPOINTS
 62
     0
100
AcDbPoint
 10
377.436546265303
 20
138.2602717936153
 30
0.0
  0
ENDBLK
  5
281
330
276
100
AcDbEntity
  8
0
100
AcDbBlockEnd
  0
BLOCK
  5
289
330
288
100
AcDbEntity
  8
0
100
AcDbBlockBegin
  2
*D10
 70
     1
 10
0.0
 20
0.0
 30
0.0
  3
*D10
  1

  0
LINE
  5
28A
330
288
100
AcDbEntity
  8
ANNOTATION_TEXT
 62
     7
100
AcDbLine
 10
464.6279409495997
 20
118.2692574693049
 30
0.0
 11
457.6611275557121
 21
118.2692574693049
 31
0.0
1001
INDEX
1070
     0
  0
LINE
  5
28B
330
288
100
AcDbEntity
  8
ANNOTATION_TEXT
 62
     7
100
AcDbLine
 10
464.6279409495997
 20
88.46925746930495
 30
0.0
 11
457.6611275557121
 21
88.46925746930495
 31
0.0
1001
INDEX
1070
     1
  0
LINE
  5
28C
330
288
100
AcDbEntity
  8
ANNOTATION_TEXT
 62
     7
100
AcDbLine
 10
458.9111275557121
 20
115.7692574693049
 30
0.0
 11
458.9111275557121
 21
90.96925746930495
 31
0.0
1001
INDEX
1070
     3
  0
SOLID
  5
28D
330
288
100
AcDbEntity
  8
ANNOTATION_TEXT
 62
     7
100
AcDbTrace
 10
459.3277942223788
 20
115.7692574693049
 30
0.0
 11
458.4944608890454
 21
115.7692574693049
 31
0.0
 12
458.9111275557121
 22
118.2692574693049
 32
0.0
 13
458.9111275557121
 23
118.2692574693049
 33
0.0
  0
SOLID
  5
28E
330
288
100
AcDbEntity
  8
ANNOTATION_TEXT
 62
     7
100
AcDbTrace
 10
458.4944608890454
 20
90.96925746930495
 30
0.0
 11
459.3277942223788
 21
90.96925746930495
 31
0.0
 12
458.9111275557121
 22
88.46925746930495
 32
0.0
 13
458.9111275557121
 23
88.46925746930495
 33
0.0
  0
MTEXT
  5
28F
330
288
100
AcDbEntity
  8
ANNOTATION_TEXT
 62
     7
100
AcDbMText
 10
456.2035321878647
 20
103.3692574693049
 30
0.0
 40
3.5
 41
0.0
 71
     5
 72
     1
  1
29,8
  7
ONSHAPE-STANDARD-DIMENSION
 11
0.0
 21
1.0
 31
0.0
  0
POINT
  5
290
330
288
100
AcDbEntity
  8
DEFPOINTS
 62
     0
100
AcDbPoint
 10
465.2529409495997
 20
118.2692574693049
 30
0.0
  0
POINT
  5
291
330
288
100
AcDbEntity
  8
DEFPOINTS
 62
     0
100
AcDbPoint
 10
465.2529409495997
 20
88.46925746930495
 30
0.0
  0
POINT
  5
292
330
288
100
AcDbEntity
  8
DEFPOINTS
 62
     0
100
AcDbPoint
 10
458.9111275557121
 20
88.46925746930495
 30
0.0
  0
ENDBLK
  5
293
330
288
100
AcDbEntity
  8
0
100
AcDbBlockEnd
  0
BLOCK
  5
29B
330
29A
100
AcDbEntity
  8
0
100
AcDbBlockBegin
  2
*D11
 70
     1
 10
0.0
 20
0.0
 30
0.0
  3
*D11
  1

  0
LINE
  5
29C
330
29A
100
AcDbEntity
  8
ANNOTATION_TEXT
 62
     7
100
AcDbLine
 10
465.2529409495997
 20
87.84425746930495
 30
0.0
 11
465.2529409495997
 21
78.49893655469974
 31
0.0
1001
INDEX
1070
     0
  0
LINE
  5
29D
330
29A
100
AcDbEntity
  8
ANNOTATION_TEXT
 62
     7
100
AcDbLine
 10
475.2529409495997
 20
87.84425746930495
 30
0.0
 11
475.2529409495997
 21
78.49893655469974
 31
0.0
1001
INDEX
1070
     1
  0
LINE
  5
29E
330
29A
100
AcDbEntity
  8
ANNOTATION_TEXT
 62
     7
100
AcDbLine
 10
467.7529409495997
 20
79.74893655469974
 30
0.0
 11
472.7529409495997
 21
79.74893655469974
 31
0.0
1001
INDEX
1070
     3
  0
SOLID
  5
29F
330
29A
100
AcDbEntity
  8
ANNOTATION_TEXT
 62
     7
100
AcDbTrace
 10
467.7529409495997
 20
80.16560322136641
 30
0.0
 11
467.7529409495997
 21
79.33226988803307
 31
0.0
 12
465.2529409495997
 22
79.74893655469974
 32
0.0
 13
465.2529409495997
 23
79.74893655469974
 33
0.0
  0
SOLID
  5
2A0
330
29A
100
AcDbEntity
  8
ANNOTATION_TEXT
 62
     7
100
AcDbTrace
 10
472.7529409495997
 20
79.33226988803307
 30
0.0
 11
472.7529409495997
 21
80.16560322136641
 31
0.0
 12
475.2529409495997
 22
79.74893655469974
 32
0.0
 13
475.2529409495997
 23
79.74893655469974
 33
0.0
  0
MTEXT
  5
2A1
330
29A
100
AcDbEntity
  8
ANNOTATION_TEXT
 62
     7
100
AcDbMText
 10
470.2529409495997
 20
82.16804418412754
 30
0.0
 40
3.5
 41
0.0
 71
     5
 72
     1
  1
10
  7
ONSHAPE-STANDARD-DIMENSION
  0
POINT
  5
2A2
330
29A
100
AcDbEntity
  8
DEFPOINTS
 62
     0
100
AcDbPoint
 10
465.2529409495997
 20
88.46925746930495
 30
0.0
  0
POINT
  5
2A3
330
29A
100
AcDbEntity
  8
DEFPOINTS
 62
     0
100
AcDbPoint
 10
475.2529409495997
 20
88.46925746930495
 30
0.0
  0
POINT
  5
2A4
330
29A
100
AcDbEntity
  8
DEFPOINTS
 62
     0
100
AcDbPoint
 10
475.2529409495997
 20
79.74893655469974
 30
0.0
  0
ENDBLK
  5
2A5
330
29A
100
AcDbEntity
  8
0
100
AcDbBlockEnd
  0
BLOCK
  5
2AD
330
2AC
100
AcDbEntity
  8
0
100
AcDbBlockBegin
  2
*D12
 70
     1
 10
0.0
 20
0.0
 30
0.0
  3
*D12
  1

  0
LINE
  5
2AE
330
2AC
100
AcDbEntity
  8
ANNOTATION_TEXT
 62
     7
100
AcDbLine
 10
554.5279039968966
 20
196.9172656329176
 30
0.0
 11
554.5279039968966
 21
190.1353481047376
 31
0.0
1001
INDEX
1070
     0
  0
LINE
  5
2AF
330
2AC
100
AcDbEntity
  8
ANNOTATION_TEXT
 62
     7
100
AcDbLine
 10
561.5279039968966
 20
196.9172656329176
 30
0.0
 11
561.5279039968966
 21
190.1353481047376
 31
0.0
1001
INDEX
1070
     1
  0
LINE
  5
2B0
330
2AC
100
AcDbEntity
  8
ANNOTATION_TEXT
 62
     7
100
AcDbLine
 10
557.0279039968966
 20
191.3853481047376
 30
0.0
 11
559.0279039968966
 21
191.3853481047376
 31
0.0
1001
INDEX
1070
     3
  0
SOLID
  5
2B1
330
2AC
100
AcDbEntity
  8
ANNOTATION_TEXT
 62
     7
100
AcDbTrace
 10
557.0279039968966
 20
191.8020147714042
 30
0.0
 11
557.0279039968966
 21
190.9686814380709
 31
0.0
 12
554.5279039968966
 22
191.3853481047376
 32
0.0
 13
554.5279039968966
 23
191.3853481047376
 33
0.0
  0
SOLID
  5
2B2
330
2AC
100
AcDbEntity
  8
ANNOTATION_TEXT
 62
     7
100
AcDbTrace
 10
559.0279039968966
 20
190.9686814380709
 30
0.0
 11
559.0279039968966
 21
191.8020147714042
 31
0.0
 12
561.5279039968966
 22
191.3853481047376
 32
0.0
 13
561.5279039968966
 23
191.3853481047376
 33
0.0
  0
MTEXT
  5
2B3
330
2AC
100
AcDbEntity
  8
ANNOTATION_TEXT
 62
     7
100
AcDbMText
 10
558.0279039968966
 20
193.7603481047376
 30
0.0
 40
3.5
 41
0.0
 71
     5
 72
     1
  1
7
  7
ONSHAPE-STANDARD-DIMENSION
  0
POINT
  5
2B4
330
2AC
100
AcDbEntity
  8
DEFPOINTS
 62
     0
100
AcDbPoint
 10
554.5279039968966
 20
197.5422656329176
 30
0.0
  0
POINT
  5
2B5
330
2AC
100
AcDbEntity
  8
DEFPOINTS
 62
     0
100
AcDbPoint
 10
561.5279039968966
 20
197.5422656329176
 30
0.0
  0
POINT
  5
2B6
330
2AC
100
AcDbEntity
  8
DEFPOINTS
 62
     0
100
AcDbPoint
 10
561.5279039968966
 20
191.3853481047376
 30
0.0
  0
ENDBLK
  5
2B7
330
2AC
100
AcDbEntity
  8
0
100
AcDbBlockEnd
  0
BLOCK
  5
2CA
330
2C9
100
AcDbEntity
  8
0
100
AcDbBlockBegin
  2
*D13
 70
     1
 10
0.0
 20
0.0
 30
0.0
  3
*D13
  1

  0
LINE
  5
2CB
330
2C9
100
AcDbEntity
  8
ANNOTATION_TEXT
 62
     7
100
AcDbLine
 10
380.6143200487576
 20
264.663878503738
 30
0.0
 11
368.7933639306943
 21
275.813241776219
 31
0.0
1001
INDEX
1070
     3
  0
MTEXT
  5
2CD
330
2C9
100
AcDbEntity
  8
ANNOTATION_TEXT
 62
     7
100
AcDbMText
 10
372.7447390720163
 20
275.4084531598092
 30
0.0
 40
3.5
 41
0.0
 71
     5
 72
     1
  1
R3
  7
ONSHAPE-STANDARD-DIMENSION
 11
0.7274698943026924
 21
-0.6861396015995795
 31
0.0
  0
SOLID
  5
2CE
330
2C9
100
AcDbEntity
  8
ANNOTATION_TEXT
 62
     7
100
AcDbTrace
 10
378.5097538123343
 20
266.0761150517775
 30
0.0
 11
379.0815368136673
 21
266.6823399636964
 31
0.0
 12
380.6143200487576
 22
264.663878503738
 32
0.0
 13
380.6143200487576
 23
264.663878503738
 33
0.0
  0
POINT
  5
2CF
330
2C9
100
AcDbEntity
  8
DEFPOINTS
 62
     0
100
AcDbPoint
 10
380.6143200487576
 20
264.663878503738
 30
0.0
  0
POINT
  5
2D0
330
2C9
100
AcDbEntity
  8
DEFPOINTS
 62
     0
100
AcDbPoint
 10
378.4319103658495
 20
266.7222973085368
 30
0.0
  0
ENDBLK
  5
2D1
330
2C9
100
AcDbEntity
  8
0
100
AcDbBlockEnd
  0
BLOCK
  5
2DE
330
2DD
100
AcDbEntity
  8
0
100
AcDbBlockBegin
  2
*D14
 70
     1
 10
0.0
 20
0.0
 30
0.0
  3
*D14
  1

  0
LINE
  5
2DF
330
2DD
100
AcDbEntity
  8
ANNOTATION_TEXT
 62
     7
100
AcDbLine
 10
415.3176714396051
 20
259.7222973085368
 30
0.0
 11
414.6926714396051
 21
259.7222973085368
 31
0.0
1001
INDEX
1070
     0
  0
LINE
  5
2E0
330
2DD
100
AcDbEntity
  8
ANNOTATION_TEXT
 62
     7
100
AcDbLine
 10
415.3176714396051
 20
271.7222973085368
 30
0.0
 11
414.6926714396051
 21
271.7222973085368
 31
0.0
1001
INDEX
1070
     1
  0
LINE
  5
2E1
330
2DD
100
AcDbEntity
  8
ANNOTATION_TEXT
 62
     7
100
AcDbLine
 10
415.9426714396051
 20
271.7222973085368
 30
0.0
 11
415.9426714396051
 21
284.4433581935873
 31
0.0
  0
LINE
  5
2E2
330
2DD
100
AcDbEntity
  8
ANNOTATION_TEXT
 62
     7
100
AcDbLine
 10
415.9426714396051
 20
262.2222973085368
 30
0.0
 11
415.9426714396051
 21
269.2222973085368
 31
0.0
1001
INDEX
1070
     3
  0
SOLID
  5
2E3
330
2DD
100
AcDbEntity
  8
ANNOTATION_TEXT
 62
     7
100
AcDbTrace
 10
415.5260047729384
 20
262.2222973085368
 30
0.0
 11
416.3593381062718
 21
262.2222973085368
 31
0.0
 12
415.9426714396051
 22
259.7222973085368
 32
0.0
 13
415.9426714396051
 23
259.7222973085368
 33
0.0
  0
SOLID
  5
2E4
330
2DD
100
AcDbEntity
  8
ANNOTATION_TEXT
 62
     7
100
AcDbTrace
 10
416.3593381062718
 20
269.2222973085368
 30
0.0
 11
415.5260047729384
 21
269.2222973085368
 31
0.0
 12
415.9426714396051
 22
271.7222973085368
 32
0.0
 13
415.9426714396051
 23
271.7222973085368
 33
0.0
  0
MTEXT
  5
2E5
330
2DD
100
AcDbEntity
  8
ANNOTATION_TEXT
 62
     7
100
AcDbMText
 10
413.5497899682154
 20
281.3697887112985
 30
0.0
 40
3.5
 41
0.0
 71
     5
 72
     1
  1
12
  7
ONSHAPE-STANDARD-DIMENSION
 11
0.0
 21
1.0
 31
0.0
  0
POINT
  5
2E6
330
2DD
100
AcDbEntity
  8
DEFPOINTS
 62
     0
100
AcDbPoint
 10
415.9426714396051
 20
259.7222973085368
 30
0.0
  0
POINT
  5
2E7
330
2DD
100
AcDbEntity
  8
DEFPOINTS
 62
     0
100
AcDbPoint
 10
415.9426714396051
 20
271.7222973085368
 30
0.0
  0
POINT
  5
2E8
330
2DD
100
AcDbEntity
  8
DEFPOINTS
 62
     0
100
AcDbPoint
 10
415.9426714396051
 20
271.7222973085368
 30
0.0
  0
ENDBLK
  5
2E9
330
2DD
100
AcDbEntity
  8
0
100
AcDbBlockEnd
  0
BLOCK
  5
2F1
330
2F0
100
AcDbEntity
  8
0
100
AcDbBlockBegin
  2
*D15
 70
     1
 10
0.0
 20
0.0
 30
0.0
  3
*D15
  1

  0
LINE
  5
2F2
330
2F0
100
AcDbEntity
  8
ANNOTATION_TEXT
 62
     7
100
AcDbLine
 10
553.8069103658495
 20
266.7222973085368
 30
0.0
 11
542.7184063007514
 21
266.7222973085368
 31
0.0
1001
INDEX
1070
     0
  0
LINE
  5
2F3
330
2F0
100
AcDbEntity
  8
ANNOTATION_TEXT
 62
     7
100
AcDbLine
 10
543.3434063007514
 20
259.7222973085368
 30
0.0
 11
542.7184063007514
 21
259.7222973085368
 31
0.0
1001
INDEX
1070
     1
  0
LINE
  5
2F4
330
2F0
100
AcDbEntity
  8
ANNOTATION_TEXT
 62
     7
100
AcDbLine
 10
543.9684063007514
 20
264.2222973085368
 30
0.0
 11
543.9684063007514
 21
262.2222973085368
 31
0.0
1001
INDEX
1070
     3
  0
SOLID
  5
2F5
330
2F0
100
AcDbEntity
  8
ANNOTATION_TEXT
 62
     7
100
AcDbTrace
 10
544.3850729674181
 20
264.2222973085368
 30
0.0
 11
543.5517396340848
 21
264.2222973085368
 31
0.0
 12
543.9684063007514
 22
266.7222973085368
 32
0.0
 13
543.9684063007514
 23
266.7222973085368
 33
0.0
  0
SOLID
  5
2F6
330
2F0
100
AcDbEntity
  8
ANNOTATION_TEXT
 62
     7
100
AcDbTrace
 10
543.5517396340848
 20
262.2222973085368
 30
0.0
 11
544.3850729674181
 21
262.2222973085368
 31
0.0
 12
543.9684063007514
 22
259.7222973085368
 32
0.0
 13
543.9684063007514
 23
259.7222973085368
 33
0.0
  0
MTEXT
  5
2F7
330
2F0
100
AcDbEntity
  8
ANNOTATION_TEXT
 62
     7
100
AcDbMText
 10
541.5934063007514
 20
263.2222973085368
 30
0.0
 40
3.5
 41
0.0
 71
     5
 72
     1
  1
7
  7
ONSHAPE-STANDARD-DIMENSION
 11
0.0
 21
1.0
 31
0.0
  0
POINT
  5
2F8
330
2F0
100
AcDbEntity
  8
DEFPOINTS
 62
     0
100
AcDbPoint
 10
554.4319103658495
 20
266.7222973085368
 30
0.0
  0
POINT
  5
2F9
330
2F0
100
AcDbEntity
  8
DEFPOINTS
 62
     0
100
AcDbPoint
 10
543.9684063007514
 20
259.7222973085368
 30
0.0
  0
POINT
  5
2FA
330
2F0
100
AcDbEntity
  8
DEFPOINTS
 62
     0
100
AcDbPoint
 10
543.9684063007514
 20
259.7222973085368
 30
0.0
  0
ENDBLK
  5
2FB
330
2F0
100
AcDbEntity
  8
0
100
AcDbBlockEnd
  0
BLOCK
  5
303
330
302
100
AcDbEntity
  8
0
100
AcDbBlockBegin
  2
*D16
 70
     1
 10
0.0
 20
0.0
 30
0.0
  3
*D16
  1

  0
LINE
  5
304
330
302
100
AcDbEntity
  8
ANNOTATION_TEXT
 62
     7
100
AcDbLine
 10
554.4319103658495
 20
266.0972973085368
 30
0.0
 11
554.4319103658495
 21
251.0868280699453
 31
0.0
1001
INDEX
1070
     0
  0
LINE
  5
305
330
302
100
AcDbEntity
  8
ANNOTATION_TEXT
 62
     7
100
AcDbLine
 10
561.4319103658495
 20
259.0972973085368
 30
0.0
 11
561.4319103658495
 21
251.0868280699453
 31
0.0
1001
INDEX
1070
     1
  0
LINE
  5
306
330
302
100
AcDbEntity
  8
ANNOTATION_TEXT
 62
     7
100
AcDbLine
 10
556.9319103658495
 20
252.3368280699453
 30
0.0
 11
558.9319103658495
 21
252.3368280699453
 31
0.0
1001
INDEX
1070
     3
  0
SOLID
  5
307
330
302
100
AcDbEntity
  8
ANNOTATION_TEXT
 62
     7
100
AcDbTrace
 10
556.9319103658495
 20
252.7534947366119
 30
0.0
 11
556.9319103658495
 21
251.9201614032786
 31
0.0
 12
554.4319103658495
 22
252.3368280699453
 32
0.0
 13
554.4319103658495
 23
252.3368280699453
 33
0.0
  0
SOLID
  5
308
330
302
100
AcDbEntity
  8
ANNOTATION_TEXT
 62
     7
100
AcDbTrace
 10
558.9319103658495
 20
251.9201614032786
 30
0.0
 11
558.9319103658495
 21
252.7534947366119
 31
0.0
 12
561.4319103658495
 22
252.3368280699453
 32
0.0
 13
561.4319103658495
 23
252.3368280699453
 33
0.0
  0
MTEXT
  5
309
330
302
100
AcDbEntity
  8
ANNOTATION_TEXT
 62
     7
100
AcDbMText
 10
557.9319103658495
 20
254.7118280699453
 30
0.0
 40
3.5
 41
0.0
 71
     5
 72
     1
  1
7
  7
ONSHAPE-STANDARD-DIMENSION
  0
POINT
  5
30A
330
302
100
AcDbEntity
  8
DEFPOINTS
 62
     0
100
AcDbPoint
 10
554.4319103658495
 20
266.7222973085368
 30
0.0
  0
POINT
  5
30B
330
302
100
AcDbEntity
  8
DEFPOINTS
 62
     0
100
AcDbPoint
 10
561.4319103658495
 20
259.7222973085368
 30
0.0
  0
POINT
  5
30C
330
302
100
AcDbEntity
  8
DEFPOINTS
 62
     0
100
AcDbPoint
 10
561.4319103658495
 20
252.3368280699453
 30
0.0
  0
ENDBLK
  5
30D
330
302
100
AcDbEntity
  8
0
100
AcDbBlockEnd
  0
BLOCK
  5
315
330
314
100
AcDbEntity
  8
0
100
AcDbBlockBegin
  2
*D17
 70
     1
 10
0.0
 20
0.0
 30
0.0
  3
*D17
  1

  0
LINE
  5
316
330
314
100
AcDbEntity
  8
ANNOTATION_TEXT
 62
     7
100
AcDbLine
 10
483.1079039968966
 20
219.6772656329176
 30
0.0
 11
483.1079039968966
 21
209.2773057008204
 31
0.0
1001
INDEX
1070
     0
  0
LINE
  5
317
330
314
100
AcDbEntity
  8
ANNOTATION_TEXT
 62
     7
100
AcDbLine
 10
447.2779039968966
 20
219.6772656329176
 30
0.0
 11
447.2779039968966
 21
209.2773057008204
 31
0.0
1001
INDEX
1070
     1
  0
LINE
  5
318
330
314
100
AcDbEntity
  8
ANNOTATION_TEXT
 62
     7
100
AcDbLine
 10
480.6079039968966
 20
210.5273057008204
 30
0.0
 11
449.7779039968966
 21
210.5273057008204
 31
0.0
1001
INDEX
1070
     3
  0
SOLID
  5
319
330
314
100
AcDbEntity
  8
ANNOTATION_TEXT
 62
     7
100
AcDbTrace
 10
480.6079039968966
 20
210.1106390341537
 30
0.0
 11
480.6079039968966
 21
210.943972367487
 31
0.0
 12
483.1079039968966
 22
210.5273057008204
 32
0.0
 13
483.1079039968966
 23
210.5273057008204
 33
0.0
  0
SOLID
  5
31A
330
314
100
AcDbEntity
  8
ANNOTATION_TEXT
 62
     7
100
AcDbTrace
 10
449.7779039968966
 20
210.943972367487
 30
0.0
 11
449.7779039968966
 21
210.1106390341537
 31
0.0
 12
447.2779039968966
 22
210.5273057008204
 32
0.0
 13
447.2779039968966
 23
210.5273057008204
 33
0.0
  0
MTEXT
  5
31B
330
314
100
AcDbEntity
  8
ANNOTATION_TEXT
 62
     7
100
AcDbMText
 10
465.1929039968966
 20
213.2349010686678
 30
0.0
 40
3.5
 41
0.0
 71
     5
 72
     1
  1
35,83
  7
ONSHAPE-STANDARD-DIMENSION
  0
POINT
  5
31C
330
314
100
AcDbEntity
  8
DEFPOINTS
 62
     0
100
AcDbPoint
 10
483.1079039968966
 20
220.3022656329176
 30
0.0
  0
POINT
  5
31D
330
314
100
AcDbEntity
  8
DEFPOINTS
 62
     0
100
AcDbPoint
 10
447.2779039968966
 20
220.3022656329176
 30
0.0
  0
POINT
  5
31E
330
314
100
AcDbEntity
  8
DEFPOINTS
 62
     0
100
AcDbPoint
 10
447.2779039968966
 20
210.5273057008204
 30
0.0
  0
ENDBLK
  5
31F
330
314
100
AcDbEntity
  8
0
100
AcDbBlockEnd
  0
ENDSEC
  0
SECTION
  2
ENTITIES
  0
CIRCLE
  5
76
330
1F
100
AcDbEntity
  8
VISIBLE
100
AcDbCircle
 10
86.81194881397184
 20
220.3022656329176
 30
0.0
 40
5.000000000000001
  0
CIRCLE
  5
77
330
1F
100
AcDbEntity
  8
VISIBLE
100
AcDbCircle
 10
122.6419488139718
 20
220.3022656329176
 30
0.0
 40
5.000000000000001
  0
LINE
  5
78
330
1F
100
AcDbEntity
  8
VISIBLE
100
AcDbLine
 10
201.0619488139719
 20
235.5422656329176
 30
0.0
 11
196.1832691575315
 21
235.5422656329176
 31
0.0
  0
LINE
  5
79
330
1F
100
AcDbEntity
  8
VISIBLE
100
AcDbLine
 10
191.9406284704122
 20
235.5422656329176
 30
0.0
 11
189.0619488139718
 21
235.5422656329176
 31
0.0
  0
LINE
  5
7A
330
1F
100
AcDbEntity
  8
VISIBLE
100
AcDbLine
 10
201.0619488139718
 20
197.5422656329176
 30
0.0
 11
196.1832691575315
 21
197.5422656329176
 31
0.0
  0
LINE
  5
7B
330
1F
100
AcDbEntity
  8
VISIBLE
100
AcDbLine
 10
191.9406284704122
 20
197.5422656329176
 30
0.0
 11
189.0619488139718
 21
197.5422656329176
 31
0.0
  0
LINE
  5
7C
330
1F
100
AcDbEntity
  8
VISIBLE
100
AcDbLine
 10
194.0619488139719
 20
221.7396837758349
 30
0.0
 11
191.9406284704122
 21
223.5422656329176
 31
0.0
  0
LINE
  5
7D
330
1F
100
AcDbEntity
  8
VISIBLE
100
AcDbLine
 10
196.1832691575315
 20
235.5422656329176
 30
0.0
 11
196.1832691575315
 21
223.5422656329176
 31
0.0
  0
LINE
  5
7E
330
1F
100
AcDbEntity
  8
VISIBLE
100
AcDbLine
 10
191.9406284704122
 20
197.5422656329176
 30
0.0
 11
191.9406284704122
 21
209.5422656329176
 31
0.0
  0
LINE
  5
7F
330
1F
100
AcDbEntity
  8
VISIBLE
100
AcDbLine
 10
191.9406284704122
 20
223.5422656329176
 30
0.0
 11
191.9406284704122
 21
235.5422656329176
 31
0.0
  0
LINE
  5
80
330
1F
100
AcDbEntity
  8
VISIBLE
100
AcDbLine
 10
191.9406284704122
 20
209.5422656329176
 30
0.0
 11
194.0619488139719
 21
211.3448474900003
 31
0.0
  0
LINE
  5
81
330
1F
100
AcDbEntity
  8
VISIBLE
100
AcDbLine
 10
20.1832691575315
 20
235.5422656329176
 30
0.0
 11
20.1832691575315
 21
223.5422656329176
 31
0.0
  0
LINE
  5
82
330
1F
100
AcDbEntity
  8
VISIBLE
100
AcDbLine
 10
20.1832691575315
 20
223.5422656329176
 30
0.0
 11
18.06194881397184
 21
221.7396837758349
 31
0.0
  0
LINE
  5
83
330
1F
100
AcDbEntity
  8
VISIBLE
100
AcDbLine
 10
189.0619488139718
 20
197.5422656329176
 30
0.0
 11
23.06194881397185
 21
197.5422656329176
 31
0.0
  0
LINE
  5
84
330
1F
100
AcDbEntity
  8
VISIBLE
100
AcDbLine
 10
196.1832691575315
 20
223.5422656329176
 30
0.0
 11
194.0619488139719
 21
221.7396837758349
 31
0.0
  0
LINE
  5
85
330
1F
100
AcDbEntity
  8
VISIBLE
100
AcDbLine
 10
18.06194881397184
 20
221.7396837758349
 30
0.0
 11
15.94062847041219
 21
223.5422656329176
 31
0.0
  0
LINE
  5
86
330
1F
100
AcDbEntity
  8
VISIBLE
100
AcDbLine
 10
46.26194881397185
 20
207.5422656329176
 30
0.0
 11
39.86194881397185
 21
207.5422656329176
 31
0.0
  0
LINE
  5
87
330
1F
100
AcDbEntity
  8
VISIBLE
100
AcDbLine
 10
23.06194881397185
 20
235.5422656329176
 30
0.0
 11
23.06194881397185
 21
197.5422656329176
 31
0.0
  0
LINE
  5
88
330
1F
100
AcDbEntity
  8
VISIBLE
100
AcDbLine
 10
196.1832691575315
 20
209.5422656329176
 30
0.0
 11
196.1832691575315
 21
197.5422656329176
 31
0.0
  0
LINE
  5
89
330
1F
100
AcDbEntity
  8
VISIBLE
100
AcDbLine
 10
189.0619488139718
 20
235.5422656329176
 30
0.0
 11
23.06194881397185
 21
235.5422656329176
 31
0.0
  0
LINE
  5
8A
330
1F
100
AcDbEntity
  8
VISIBLE
100
AcDbLine
 10
46.26194881397185
 20
213.9422656329176
 30
0.0
 11
39.86194881397185
 21
213.9422656329176
 31
0.0
  0
LINE
  5
8B
330
1F
100
AcDbEntity
  8
VISIBLE
100
AcDbLine
 10
23.06194881397185
 20
197.5422656329176
 30
0.0
 11
20.1832691575315
 21
197.5422656329176
 31
0.0
  0
LINE
  5
8C
330
1F
100
AcDbEntity
  8
VISIBLE
100
AcDbLine
 10
20.1832691575315
 20
209.5422656329176
 30
0.0
 11
20.1832691575315
 21
197.5422656329176
 31
0.0
  0
LINE
  5
8D
330
1F
100
AcDbEntity
  8
VISIBLE
100
AcDbLine
 10
15.94062847041219
 20
209.5422656329176
 30
0.0
 11
18.06194881397184
 21
211.3448474900003
 31
0.0
  0
LINE
  5
8E
330
1F
100
AcDbEntity
  8
VISIBLE
100
AcDbLine
 10
194.0619488139719
 20
211.3448474900003
 30
0.0
 11
196.1832691575315
 21
209.5422656329176
 31
0.0
  0
LINE
  5
8F
330
1F
100
AcDbEntity
  8
VISIBLE
100
AcDbLine
 10
201.0619488139719
 20
235.5422656329176
 30
0.0
 11
201.0619488139718
 21
197.5422656329176
 31
0.0
  0
LINE
  5
90
330
1F
100
AcDbEntity
  8
VISIBLE
100
AcDbLine
 10
15.94062847041219
 20
223.5422656329176
 30
0.0
 11
15.94062847041219
 21
235.5422656329176
 31
0.0
  0
LINE
  5
91
330
1F
100
AcDbEntity
  8
VISIBLE
100
AcDbLine
 10
36.86194881397184
 20
210.9422656329176
 30
0.0
 11
36.86194881397184
 21
210.5422656329176
 31
0.0
  0
LINE
  5
92
330
1F
100
AcDbEntity
  8
VISIBLE
100
AcDbLine
 10
15.94062847041219
 20
197.5422656329176
 30
0.0
 11
11.06194881397185
 21
197.5422656329176
 31
0.0
  0
LINE
  5
93
330
1F
100
AcDbEntity
  8
VISIBLE
100
AcDbLine
 10
23.06194881397185
 20
235.5422656329176
 30
0.0
 11
20.1832691575315
 21
235.5422656329176
 31
0.0
  0
LINE
  5
94
330
1F
100
AcDbEntity
  8
VISIBLE
100
AcDbLine
 10
18.06194881397184
 20
211.3448474900003
 30
0.0
 11
20.1832691575315
 21
209.5422656329176
 31
0.0
  0
LINE
  5
95
330
1F
100
AcDbEntity
  8
VISIBLE
100
AcDbLine
 10
189.0619488139718
 20
235.5422656329176
 30
0.0
 11
189.0619488139718
 21
197.5422656329176
 31
0.0
  0
LINE
  5
96
330
1F
100
AcDbEntity
  8
VISIBLE
100
AcDbLine
 10
11.06194881397184
 20
235.5422656329176
 30
0.0
 11
11.06194881397185
 21
197.5422656329176
 31
0.0
  0
LINE
  5
97
330
1F
100
AcDbEntity
  8
VISIBLE
100
AcDbLine
 10
49.26194881397185
 20
210.9422656329176
 30
0.0
 11
49.26194881397185
 21
210.5422656329176
 31
0.0
  0
LINE
  5
98
330
1F
100
AcDbEntity
  8
VISIBLE
100
AcDbLine
 10
15.94062847041219
 20
197.5422656329176
 30
0.0
 11
15.94062847041219
 21
209.5422656329176
 31
0.0
  0
LINE
  5
99
330
1F
100
AcDbEntity
  8
VISIBLE
100
AcDbLine
 10
15.94062847041219
 20
235.5422656329176
 30
0.0
 11
11.06194881397184
 21
235.5422656329176
 31
0.0
  0
LINE
  5
9A
330
1F
100
AcDbEntity
  8
VISIBLE
100
AcDbLine
 10
191.9406284704122
 20
235.5422656329176
 30
0.0
 11
196.1832691575315
 21
235.5422656329176
 31
0.0
  0
LINE
  5
9B
330
1F
100
AcDbEntity
  8
VISIBLE
100
AcDbLine
 10
196.1832691575315
 20
209.5422656329176
 30
0.0
 11
191.9406284704122
 21
209.5422656329176
 31
0.0
  0
LINE
  5
9C
330
1F
100
AcDbEntity
  8
VISIBLE
100
AcDbLine
 10
196.1832691575315
 20
197.5422656329176
 30
0.0
 11
191.9406284704122
 21
197.5422656329176
 31
0.0
  0
LINE
  5
9D
330
1F
100
AcDbEntity
  8
VISIBLE
100
AcDbLine
 10
15.94062847041219
 20
235.5422656329176
 30
0.0
 11
20.18326915753149
 21
235.5422656329176
 31
0.0
  0
ARC
  5
9E
330
1F
100
AcDbEntity
  8
VISIBLE
100
AcDbCircle
 10
46.26194881397185
 20
210.5422656329176
 30
0.0
 40
3.000000000000009
100
AcDbArc
 50
270.0
 51
0.0
  0
ARC
  5
9F
330
1F
100
AcDbEntity
  8
VISIBLE
100
AcDbCircle
 10
39.86194881397185
 20
210.9422656329176
 30
0.0
 40
3.000000000000004
100
AcDbArc
 50
90.0
 51
180.0
  0
LINE
  5
A0
330
1F
100
AcDbEntity
  8
VISIBLE
100
AcDbLine
 10
20.18326915753149
 20
209.5422656329176
 30
0.0
 11
15.94062847041219
 21
209.5422656329176
 31
0.0
  0
ARC
  5
A1
330
1F
100
AcDbEntity
  8
VISIBLE
100
AcDbCircle
 10
46.26194881397185
 20
210.9422656329176
 30
0.0
 40
3.000000000000003
100
AcDbArc
 50
0.0
 51
90.0
  0
LINE
  5
A2
330
1F
100
AcDbEntity
  8
VISIBLE
100
AcDbLine
 10
191.9406284704122
 20
223.5422656329176
 30
0.0
 11
196.1832691575315
 21
223.5422656329176
 31
0.0
  0
ARC
  5
A3
330
1F
100
AcDbEntity
  8
VISIBLE
100
AcDbCircle
 10
39.86194881397185
 20
210.5422656329176
 30
0.0
 40
3.000000000000014
100
AcDbArc
 50
180.0000000000005
 51
270.0
  0
LINE
  5
A4
330
1F
100
AcDbEntity
  8
VISIBLE
100
AcDbLine
 10
20.18326915753149
 20
197.5422656329176
 30
0.0
 11
15.94062847041219
 21
197.5422656329176
 31
0.0
  0
LINE
  5
A5
330
1F
100
AcDbEntity
  8
VISIBLE
100
AcDbLine
 10
15.94062847041219
 20
223.5422656329176
 30
0.0
 11
20.18326915753149
 21
223.5422656329176
 31
0.0
  0
LINE
  5
A8
330
1F
100
AcDbEntity
  8
VISIBLE
100
AcDbLine
 10
25.23219607024772
 20
189.6456771990208
 30
0.0
 11
25.23219607024772
 21
159.8456771990207
 31
0.0
  0
LINE
  5
A9
330
1F
100
AcDbEntity
  8
VISIBLE
100
AcDbLine
 10
185.2321960702477
 20
159.8456771990207
 30
0.0
 11
25.23219607024772
 21
159.8456771990207
 31
0.0
  0
LINE
  5
AA
330
1F
100
AcDbEntity
  8
VISIBLE
100
AcDbLine
 10
185.2321960702477
 20
189.6456771990208
 30
0.0
 11
25.23219607024772
 21
189.6456771990208
 31
0.0
  0
LINE
  5
AB
330
1F
100
AcDbEntity
  8
VISIBLE
100
AcDbLine
 10
185.2321960702477
 20
189.6456771990208
 30
0.0
 11
185.2321960702477
 21
159.8456771990207
 31
0.0
  0
LINE
  5
AE
330
1F
100
AcDbEntity
  8
VISIBLE
100
AcDbLine
 10
106.0275263072155
 20
152.0119601720078
 30
0.0
 11
116.0275263072155
 21
152.0119601720078
 31
0.0
  0
LINE
  5
AF
330
1F
100
AcDbEntity
  8
VISIBLE
100
AcDbLine
 10
116.0275263072155
 20
152.0119601720078
 30
0.0
 11
116.0275263072155
 21
122.2119601720078
 31
0.0
  0
LINE
  5
B0
330
1F
100
AcDbEntity
  8
VISIBLE
100
AcDbLine
 10
106.0275263072155
 20
122.2119601720078
 30
0.0
 11
116.0275263072155
 21
122.2119601720078
 31
0.0
  0
LINE
  5
B1
330
1F
100
AcDbEntity
  8
VISIBLE
100
AcDbLine
 10
106.0275263072155
 20
152.0119601720078
 30
0.0
 11
106.0275263072155
 21
122.2119601720078
 31
0.0
  0
MTEXT
  5
B2
102
{ACAD_XDICTIONARY
360
B3
102
}
330
1F
100
AcDbEntity
  8
ANNOTATION_TEXT
 62
     7
 60
     1
100
AcDbMText
 10
106.0619488139718
 20
183.7922656329176
 30
0.0
 40
3.5
 41
0.0
 71
     2
 72
     1
  1

  7
ONSHAPE-STANDARD-VIEW-LABE
1001
ACAD
1000
ACAD_MTEXT_DEFINED_HEIGHT_BEGIN
1070
    46
1040
3.5
1000
ACAD_MTEXT_DEFINED_HEIGHT_END
  0
MTEXT
  5
B9
102
{ACAD_XDICTIONARY
360
BA
102
}
330
1F
100
AcDbEntity
  8
ANNOTATION_TEXT
 62
     7
 60
     1
100
AcDbMText
 10
105.2321960702477
 20
150.0956771990207
 30
0.0
 40
3.5
 41
0.0
 71
     2
 72
     1
  1

  7
ONSHAPE-STANDARD-VIEW-LABE
1001
ACAD
1000
ACAD_MTEXT_DEFINED_HEIGHT_BEGIN
1070
    46
1040
3.5
1000
ACAD_MTEXT_DEFINED_HEIGHT_END
  0
MTEXT
  5
BC
102
{ACAD_XDICTIONARY
360
BD
102
}
330
1F
100
AcDbEntity
  8
ANNOTATION_TEXT
 62
     7
 60
     1
100
AcDbMText
 10
111.0275263072155
 20
118.9719601720078
 30
0.0
 40
3.5
 41
0.0
 71
     2
 72
     1
  1

  7
ONSHAPE-STANDARD-VIEW-LABE
1001
ACAD
1000
ACAD_MTEXT_DEFINED_HEIGHT_BEGIN
1070
    46
1040
3.5
1000
ACAD_MTEXT_DEFINED_HEIGHT_END
  0
CIRCLE
  5
C1
330
1F
100
AcDbEntity
  8
VISIBLE
100
AcDbCircle
 10
447.2779039968966
 20
220.3022656329176
 30
0.0
 40
5.000000000000001
  0
CIRCLE
  5
C2
330
1F
100
AcDbEntity
  8
VISIBLE
100
AcDbCircle
 10
483.1079039968966
 20
220.3022656329176
 30
0.0
 40
5.000000000000001
  0
LINE
  5
C3
330
1F
100
AcDbEntity
  8
VISIBLE
100
AcDbLine
 10
561.5279039968966
 20
235.5422656329176
 30
0.0
 11
556.6492243404563
 21
235.5422656329176
 31
0.0
  0
LINE
  5
C4
330
1F
100
AcDbEntity
  8
VISIBLE
100
AcDbLine
 10
552.406583653337
 20
235.5422656329176
 30
0.0
 11
549.5279039968966
 21
235.5422656329176
 31
0.0
  0
LINE
  5
C5
330
1F
100
AcDbEntity
  8
VISIBLE
100
AcDbLine
 10
561.5279039968966
 20
197.5422656329176
 30
0.0
 11
556.6492243404563
 21
197.5422656329176
 31
0.0
  0
LINE
  5
C6
330
1F
100
AcDbEntity
  8
VISIBLE
100
AcDbLine
 10
552.406583653337
 20
197.5422656329176
 30
0.0
 11
549.5279039968966
 21
197.5422656329176
 31
0.0
  0
LINE
  5
C7
330
1F
100
AcDbEntity
  8
VISIBLE
100
AcDbLine
 10
554.5279039968966
 20
221.7396837758349
 30
0.0
 11
552.406583653337
 21
223.5422656329176
 31
0.0
  0
LINE
  5
C8
330
1F
100
AcDbEntity
  8
VISIBLE
100
AcDbLine
 10
556.6492243404563
 20
235.5422656329176
 30
0.0
 11
556.6492243404563
 21
223.5422656329176
 31
0.0
  0
LINE
  5
C9
330
1F
100
AcDbEntity
  8
VISIBLE
100
AcDbLine
 10
552.406583653337
 20
197.5422656329176
 30
0.0
 11
552.406583653337
 21
209.5422656329176
 31
0.0
  0
LINE
  5
CA
330
1F
100
AcDbEntity
  8
VISIBLE
100
AcDbLine
 10
552.406583653337
 20
223.5422656329176
 30
0.0
 11
552.406583653337
 21
235.5422656329176
 31
0.0
  0
LINE
  5
CB
330
1F
100
AcDbEntity
  8
VISIBLE
100
AcDbLine
 10
552.406583653337
 20
209.5422656329176
 30
0.0
 11
554.5279039968966
 21
211.3448474900003
 31
0.0
  0
LINE
  5
CC
330
1F
100
AcDbEntity
  8
VISIBLE
100
AcDbLine
 10
380.6492243404563
 20
235.5422656329176
 30
0.0
 11
380.6492243404563
 21
223.5422656329176
 31
0.0
  0
LINE
  5
CD
330
1F
100
AcDbEntity
  8
VISIBLE
100
AcDbLine
 10
380.6492243404563
 20
223.5422656329176
 30
0.0
 11
378.5279039968966
 21
221.7396837758349
 31
0.0
  0
LINE
  5
CE
330
1F
100
AcDbEntity
  8
VISIBLE
100
AcDbLine
 10
549.5279039968966
 20
197.5422656329176
 30
0.0
 11
383.5279039968966
 21
197.5422656329176
 31
0.0
  0
LINE
  5
CF
330
1F
100
AcDbEntity
  8
VISIBLE
100
AcDbLine
 10
556.6492243404563
 20
223.5422656329176
 30
0.0
 11
554.5279039968966
 21
221.7396837758349
 31
0.0
  0
LINE
  5
D0
330
1F
100
AcDbEntity
  8
VISIBLE
100
AcDbLine
 10
378.5279039968966
 20
221.7396837758349
 30
0.0
 11
376.406583653337
 21
223.5422656329176
 31
0.0
  0
LINE
  5
D1
330
1F
100
AcDbEntity
  8
VISIBLE
100
AcDbLine
 10
406.7279039968966
 20
207.5422656329176
 30
0.0
 11
400.3279039968966
 21
207.5422656329176
 31
0.0
  0
LINE
  5
D2
330
1F
100
AcDbEntity
  8
VISIBLE
100
AcDbLine
 10
383.5279039968966
 20
235.5422656329176
 30
0.0
 11
383.5279039968966
 21
197.5422656329176
 31
0.0
  0
LINE
  5
D3
330
1F
100
AcDbEntity
  8
VISIBLE
100
AcDbLine
 10
556.6492243404563
 20
209.5422656329176
 30
0.0
 11
556.6492243404563
 21
197.5422656329176
 31
0.0
  0
LINE
  5
D4
330
1F
100
AcDbEntity
  8
VISIBLE
100
AcDbLine
 10
549.5279039968966
 20
235.5422656329176
 30
0.0
 11
383.5279039968966
 21
235.5422656329176
 31
0.0
  0
LINE
  5
D5
330
1F
100
AcDbEntity
  8
VISIBLE
100
AcDbLine
 10
406.7279039968966
 20
213.9422656329176
 30
0.0
 11
400.3279039968966
 21
213.9422656329176
 31
0.0
  0
LINE
  5
D6
330
1F
100
AcDbEntity
  8
VISIBLE
100
AcDbLine
 10
383.5279039968966
 20
197.5422656329176
 30
0.0
 11
380.6492243404563
 21
197.5422656329176
 31
0.0
  0
LINE
  5
D7
330
1F
100
AcDbEntity
  8
VISIBLE
100
AcDbLine
 10
380.6492243404563
 20
209.5422656329176
 30
0.0
 11
380.6492243404563
 21
197.5422656329176
 31
0.0
  0
LINE
  5
D8
330
1F
100
AcDbEntity
  8
VISIBLE
100
AcDbLine
 10
376.406583653337
 20
209.5422656329176
 30
0.0
 11
378.5279039968966
 21
211.3448474900003
 31
0.0
  0
LINE
  5
D9
330
1F
100
AcDbEntity
  8
VISIBLE
100
AcDbLine
 10
554.5279039968966
 20
211.3448474900003
 30
0.0
 11
556.6492243404563
 21
209.5422656329176
 31
0.0
  0
LINE
  5
DA
330
1F
100
AcDbEntity
  8
VISIBLE
100
AcDbLine
 10
561.5279039968966
 20
235.5422656329176
 30
0.0
 11
561.5279039968966
 21
197.5422656329176
 31
0.0
  0
LINE
  5
DB
330
1F
100
AcDbEntity
  8
VISIBLE
100
AcDbLine
 10
376.406583653337
 20
223.5422656329176
 30
0.0
 11
376.406583653337
 21
235.5422656329176
 31
0.0
  0
LINE
  5
DC
330
1F
100
AcDbEntity
  8
VISIBLE
100
AcDbLine
 10
397.3279039968966
 20
210.9422656329176
 30
0.0
 11
397.3279039968966
 21
210.5422656329176
 31
0.0
  0
LINE
  5
DD
330
1F
100
AcDbEntity
  8
VISIBLE
100
AcDbLine
 10
376.406583653337
 20
197.5422656329176
 30
0.0
 11
371.5279039968966
 21
197.5422656329176
 31
0.0
  0
LINE
  5
DE
330
1F
100
AcDbEntity
  8
VISIBLE
100
AcDbLine
 10
383.5279039968966
 20
235.5422656329176
 30
0.0
 11
380.6492243404563
 21
235.5422656329176
 31
0.0
  0
LINE
  5
DF
330
1F
100
AcDbEntity
  8
VISIBLE
100
AcDbLine
 10
378.5279039968966
 20
211.3448474900003
 30
0.0
 11
380.6492243404563
 21
209.5422656329176
 31
0.0
  0
LINE
  5
E0
330
1F
100
AcDbEntity
  8
VISIBLE
100
AcDbLine
 10
549.5279039968966
 20
235.5422656329176
 30
0.0
 11
549.5279039968966
 21
197.5422656329176
 31
0.0
  0
LINE
  5
E1
330
1F
100
AcDbEntity
  8
VISIBLE
100
AcDbLine
 10
371.5279039968966
 20
235.5422656329176
 30
0.0
 11
371.5279039968966
 21
197.5422656329176
 31
0.0
  0
LINE
  5
E2
330
1F
100
AcDbEntity
  8
VISIBLE
100
AcDbLine
 10
409.7279039968966
 20
210.9422656329176
 30
0.0
 11
409.7279039968966
 21
210.5422656329176
 31
0.0
  0
LINE
  5
E3
330
1F
100
AcDbEntity
  8
VISIBLE
100
AcDbLine
 10
376.406583653337
 20
197.5422656329176
 30
0.0
 11
376.406583653337
 21
209.5422656329176
 31
0.0
  0
LINE
  5
E4
330
1F
100
AcDbEntity
  8
VISIBLE
100
AcDbLine
 10
376.406583653337
 20
235.5422656329176
 30
0.0
 11
371.5279039968966
 21
235.5422656329176
 31
0.0
  0
LINE
  5
E5
330
1F
100
AcDbEntity
  8
VISIBLE
100
AcDbLine
 10
552.406583653337
 20
235.5422656329176
 30
0.0
 11
556.6492243404563
 21
235.5422656329176
 31
0.0
  0
LINE
  5
E6
330
1F
100
AcDbEntity
  8
VISIBLE
100
AcDbLine
 10
556.6492243404563
 20
209.5422656329176
 30
0.0
 11
552.406583653337
 21
209.5422656329176
 31
0.0
  0
LINE
  5
E7
330
1F
100
AcDbEntity
  8
VISIBLE
100
AcDbLine
 10
556.6492243404563
 20
197.5422656329176
 30
0.0
 11
552.406583653337
 21
197.5422656329176
 31
0.0
  0
LINE
  5
E8
330
1F
100
AcDbEntity
  8
VISIBLE
100
AcDbLine
 10
376.406583653337
 20
235.5422656329176
 30
0.0
 11
380.6492243404563
 21
235.5422656329176
 31
0.0
  0
ARC
  5
E9
330
1F
100
AcDbEntity
  8
VISIBLE
100
AcDbCircle
 10
406.7279039968966
 20
210.5422656329176
 30
0.0
 40
3.000000000000009
100
AcDbArc
 50
270.0
 51
0.0
  0
ARC
  5
EA
330
1F
100
AcDbEntity
  8
VISIBLE
100
AcDbCircle
 10
400.3279039968966
 20
210.9422656329176
 30
0.0
 40
3.000000000000004
100
AcDbArc
 50
90.0
 51
180.0
  0
LINE
  5
EB
330
1F
100
AcDbEntity
  8
VISIBLE
100
AcDbLine
 10
380.6492243404563
 20
209.5422656329176
 30
0.0
 11
376.406583653337
 21
209.5422656329176
 31
0.0
  0
ARC
  5
EC
330
1F
100
AcDbEntity
  8
VISIBLE
100
AcDbCircle
 10
406.7279039968966
 20
210.9422656329176
 30
0.0
 40
3.000000000000003
100
AcDbArc
 50
0.0
 51
90.0
  0
LINE
  5
ED
330
1F
100
AcDbEntity
  8
VISIBLE
100
AcDbLine
 10
552.406583653337
 20
223.5422656329176
 30
0.0
 11
556.6492243404563
 21
223.5422656329176
 31
0.0
  0
ARC
  5
EE
330
1F
100
AcDbEntity
  8
VISIBLE
100
AcDbCircle
 10
400.3279039968966
 20
210.5422656329176
 30
0.0
 40
3.000000000000014
100
AcDbArc
 50
180.0000000000005
 51
270.0
  0
LINE
  5
EF
330
1F
100
AcDbEntity
  8
VISIBLE
100
AcDbLine
 10
380.6492243404563
 20
197.5422656329176
 30
0.0
 11
376.406583653337
 21
197.5422656329176
 31
0.0
  0
LINE
  5
F0
330
1F
100
AcDbEntity
  8
VISIBLE
100
AcDbLine
 10
376.406583653337
 20
223.5422656329176
 30
0.0
 11
380.6492243404563
 21
223.5422656329176
 31
0.0
  0
LINE
  5
F2
330
1F
100
AcDbEntity
  8
VISIBLE
100
AcDbLine
 10
385.4500431450643
 20
168.0602717936154
 30
0.0
 11
385.4500431450643
 21
138.2602717936153
 31
0.0
  0
LINE
  5
F3
330
1F
100
AcDbEntity
  8
VISIBLE
100
AcDbLine
 10
545.4500431450643
 20
138.2602717936153
 30
0.0
 11
385.4500431450643
 21
138.2602717936153
 31
0.0
  0
LINE
  5
F4
330
1F
100
AcDbEntity
  8
VISIBLE
100
AcDbLine
 10
545.4500431450643
 20
168.0602717936154
 30
0.0
 11
385.4500431450643
 21
168.0602717936154
 31
0.0
  0
LINE
  5
F5
330
1F
100
AcDbEntity
  8
VISIBLE
100
AcDbLine
 10
545.4500431450643
 20
168.0602717936154
 30
0.0
 11
545.4500431450643
 21
138.2602717936153
 31
0.0
  0
LINE
  5
F7
330
1F
100
AcDbEntity
  8
VISIBLE
100
AcDbLine
 10
465.2529409495997
 20
118.2692574693049
 30
0.0
 11
475.2529409495997
 21
118.2692574693049
 31
0.0
  0
LINE
  5
F8
330
1F
100
AcDbEntity
  8
VISIBLE
100
AcDbLine
 10
475.2529409495997
 20
118.2692574693049
 30
0.0
 11
475.2529409495997
 21
88.46925746930495
 31
0.0
  0
LINE
  5
F9
330
1F
100
AcDbEntity
  8
VISIBLE
100
AcDbLine
 10
465.2529409495997
 20
88.46925746930495
 30
0.0
 11
475.2529409495997
 21
88.46925746930495
 31
0.0
  0
LINE
  5
FA
330
1F
100
AcDbEntity
  8
VISIBLE
100
AcDbLine
 10
465.2529409495997
 20
118.2692574693049
 30
0.0
 11
465.2529409495997
 21
88.46925746930495
 31
0.0
  0
LINE
  5
FC
330
1F
100
AcDbEntity
  8
VISIBLE
100
AcDbLine
 10
552.3105900222898
 20
268.8436176520964
 30
0.0
 11
554.4319103658495
 21
266.7222973085368
 31
0.0
  0
LINE
  5
FD
330
1F
100
AcDbEntity
  8
VISIBLE
100
AcDbLine
 10
554.4319103658495
 20
266.7222973085368
 30
0.0
 11
556.5532307094091
 21
264.6009769649771
 31
0.0
  0
LINE
  5
FE
330
1F
100
AcDbEntity
  8
VISIBLE
100
AcDbLine
 10
378.4319103658495
 20
266.7222973085368
 30
0.0
 11
380.5532307094091
 21
268.8436176520964
 31
0.0
  0
LINE
  5
FF
330
1F
100
AcDbEntity
  8
VISIBLE
100
AcDbLine
 10
561.4319103658495
 20
259.7222973085368
 30
0.0
 11
371.4319103658495
 21
259.7222973085368
 31
0.0
  0
LINE
  5
100
330
1F
100
AcDbEntity
  8
VISIBLE
100
AcDbLine
 10
561.4319103658495
 20
259.7222973085368
 30
0.0
 11
556.5532307094091
 21
264.6009769649771
 31
0.0
  0
LINE
  5
101
330
1F
100
AcDbEntity
  8
VISIBLE
100
AcDbLine
 10
549.4319103658495
 20
271.7222973085368
 30
0.0
 11
383.4319103658495
 21
271.7222973085368
 31
0.0
  0
LINE
  5
102
330
1F
100
AcDbEntity
  8
VISIBLE
100
AcDbLine
 10
552.3105900222898
 20
268.8436176520964
 30
0.0
 11
549.4319103658495
 21
271.7222973085368
 31
0.0
  0
LINE
  5
103
330
1F
100
AcDbEntity
  8
VISIBLE
100
AcDbLine
 10
376.3105900222898
 20
264.6009769649772
 30
0.0
 11
378.4319103658495
 21
266.7222973085368
 31
0.0
  0
LINE
  5
104
330
1F
100
AcDbEntity
  8
VISIBLE
100
AcDbLine
 10
376.3105900222898
 20
264.6009769649772
 30
0.0
 11
371.4319103658495
 21
259.7222973085368
 31
0.0
  0
LINE
  5
105
330
1F
100
AcDbEntity
  8
VISIBLE
100
AcDbLine
 10
383.4319103658495
 20
271.7222973085368
 30
0.0
 11
380.5532307094091
 21
268.8436176520964
 31
0.0
  0
ARC
  5
106
330
1F
100
AcDbEntity
  8
VISIBLE
100
AcDbCircle
 10
554.4319103658495
 20
266.7222973085368
 30
0.0
 40
3.000000000000003
100
AcDbArc
 50
135.0
 51
315.0
  0
ARC
  5
107
330
1F
100
AcDbEntity
  8
VISIBLE
100
AcDbCircle
 10
378.4319103658495
 20
266.7222973085368
 30
0.0
 40
3.000000000000003
100
AcDbArc
 50
224.9999999999984
 51
45.00000000000077
  0
LINE
  5
108
330
1F
100
AcDbEntity
  8
TITLE_BLOCK
100
AcDbLine
 10
399.3219295899107
 20
17.62
 30
0.0
 11
429.8019295899107
 21
17.62
 31
0.0
  0
LINE
  5
10C
330
1F
100
AcDbEntity
  8
TITLE_BLOCK
100
AcDbLine
 10
399.3219295899107
 20
20.668
 30
0.0
 11
429.8019295899107
 21
20.668
 31
0.0
  0
LINE
  5
10D
330
1F
100
AcDbEntity
  8
TITLE_BLOCK
100
AcDbLine
 10
399.3219295899107
 20
25.8496
 30
0.0
 11
429.8019295899107
 21
25.8496
 31
0.0
  0
LINE
  5
10E
330
1F
100
AcDbEntity
  8
TITLE_BLOCK
100
AcDbLine
 10
399.3219295899107
 20
30.2692
 30
0.0
 11
429.8019295899107
 21
30.2692
 31
0.0
  0
MTEXT
  5
10F
330
1F
100
AcDbEntity
  8
TITLE_BLOCK
100
AcDbMText
 10
399.9924895899107
 20
47.00272
 30
0.0
 40
1.2192
 41
29.87039999999999
 71
     1
 72
     1
  1
UNLESS OTHERWISE SPECIFIED, DIMENSIONS ARE IN MILLIMETERS
  7
ONSHAPE-CUSTOM-STYLE-NOTE_
  0
MTEXT
  5
111
330
1F
100
AcDbEntity
  8
TITLE_BLOCK
100
AcDbMText
 10
415.1654335899107
 20
42.540448
 30
0.0
 40
1.09728
 41
14.93519999999998
 71
     1
 72
     1
  1
^JANGULAR =  ^J
  7
ONSHAPE-CUSTOM-STYLE-NOTE0
  0
MTEXT
  5
113
330
1F
100
AcDbEntity
  8
TITLE_BLOCK
100
AcDbMText
 10
399.9924895899107
 20
35.11552
 30
0.0
 40
1.2192
 41
14.93520000000001
 71
     1
 72
     1
  1
SURFACE FINISH
  7
ONSHAPE-CUSTOM-STYLE-NOTE1
  0
LINE
  5
115
330
1F
100
AcDbEntity
  8
TITLE_BLOCK
100
AcDbLine
 10
413.0379295899107
 20
33.3172
 30
0.0
 11
413.7999295899107
 21
31.99737728463252
 31
0.0
  0
LINE
  5
116
330
1F
100
AcDbEntity
  8
TITLE_BLOCK
100
AcDbLine
 10
413.7999295899107
 20
31.99737728463252
 30
0.0
 11
415.4001295899107
 21
34.76900498690424
 31
0.0
  0
LINE
  5
117
330
1F
100
AcDbEntity
  8
TITLE_BLOCK
100
AcDbLine
 10
415.4001295899107
 20
34.76900498690424
 30
0.0
 11
417.0765295899107
 21
34.76900498690424
 31
0.0
  0
MTEXT
  5
118
330
1F
100
AcDbEntity
  8
TITLE_BLOCK
100
AcDbMText
 10
414.5619295899107
 20
28.842736
 30
0.0
 40
1.58496
 41
29.87039999999999
 71
     2
 72
     1
  1
DO NOT SCALE DRAWING
  7
ONSHAPE-CUSTOM-STYLE-NOTE2
  0
MTEXT
  5
11A
330
1F
100
AcDbEntity
  8
TITLE_BLOCK
100
AcDbMText
 10
414.5619295899107
 20
24.75232
 30
0.0
 40
1.2192
 41
29.87039999999999
 71
     2
 72
     1
  1
BREAK ALL SHARP EDGES AND REMOVE BURRS
  7
ONSHAPE-CUSTOM-STYLE-NOTE3
  0
CIRCLE
  5
11C
330
1F
100
AcDbEntity
  8
TITLE_BLOCK
100
AcDbCircle
 10
417.9909295899107
 20
13.77952
 30
0.0
 40
1.3716
  0
CIRCLE
  5
11D
330
1F
100
AcDbEntity
  8
TITLE_BLOCK
100
AcDbCircle
 10
417.9909295899107
 20
13.77952
 30
0.0
 40
2.743199999999999
  0
LINE
  5
11E
330
1F
100
AcDbEntity
  8
TITLE_BLOCK
100
AcDbLine
 10
418.6767295899107
 20
13.77952
 30
0.0
 11
417.3051295899107
 21
13.77952
 31
0.0
  0
LINE
  5
11F
330
1F
100
AcDbEntity
  8
TITLE_BLOCK
100
AcDbLine
 10
417.9909295899107
 20
14.46532
 30
0.0
 11
417.9909295899107
 21
13.09372
 31
0.0
  0
LINE
  5
120
330
1F
100
AcDbEntity
  8
TITLE_BLOCK
100
AcDbLine
 10
419.3625295899107
 20
13.77952
 30
0.0
 11
421.4199295899107
 21
13.77952
 31
0.0
  0
LINE
  5
121
330
1F
100
AcDbEntity
  8
TITLE_BLOCK
100
AcDbLine
 10
417.9909295899107
 20
15.15112
 30
0.0
 11
417.9909295899107
 21
17.20852
 31
0.0
  0
LINE
  5
122
330
1F
100
AcDbEntity
  8
TITLE_BLOCK
100
AcDbLine
 10
416.6193295899107
 20
13.77952
 30
0.0
 11
414.5619295899107
 21
13.77952
 31
0.0
  0
LINE
  5
123
330
1F
100
AcDbEntity
  8
TITLE_BLOCK
100
AcDbLine
 10
417.9909295899107
 20
12.40792
 30
0.0
 11
417.9909295899107
 21
10.35052
 31
0.0
  0
LINE
  5
124
330
1F
100
AcDbEntity
  8
TITLE_BLOCK
100
AcDbLine
 10
413.8761295899107
 20
11.03632
 30
0.0
 11
413.8761295899107
 21
16.52272
 31
0.0
  0
LINE
  5
125
330
1F
100
AcDbEntity
  8
TITLE_BLOCK
100
AcDbLine
 10
413.8761295899107
 20
16.52272
 30
0.0
 11
408.3897295899107
 21
15.15112
 31
0.0
  0
LINE
  5
126
330
1F
100
AcDbEntity
  8
TITLE_BLOCK
100
AcDbLine
 10
408.3897295899107
 20
15.15112
 30
0.0
 11
408.3897295899107
 21
12.40792
 31
0.0
  0
LINE
  5
127
330
1F
100
AcDbEntity
  8
TITLE_BLOCK
100
AcDbLine
 10
408.3897295899107
 20
12.40792
 30
0.0
 11
413.8761295899107
 21
11.03632
 31
0.0
  0
LINE
  5
128
330
1F
100
AcDbEntity
  8
TITLE_BLOCK
100
AcDbLine
 10
411.8187295899107
 20
13.77952
 30
0.0
 11
414.2190295899107
 21
13.77952
 31
0.0
  0
LINE
  5
129
330
1F
100
AcDbEntity
  8
TITLE_BLOCK
100
AcDbLine
 10
411.4072495899107
 20
13.77952
 30
0.0
 11
410.8586095899107
 21
13.77952
 31
0.0
  0
LINE
  5
12A
330
1F
100
AcDbEntity
  8
TITLE_BLOCK
100
AcDbLine
 10
410.4471295899107
 20
13.77952
 30
0.0
 11
408.0468295899107
 21
13.77952
 31
0.0
  0
MTEXT
  5
12B
330
1F
100
AcDbEntity
  8
TITLE_BLOCK
100
AcDbMText
 10
414.5619295899107
 20
19.57072
 30
0.0
 40
1.2192
 41
29.87039999999999
 71
     2
 72
     1
  1
FIRST ANGLE PROJECTION
  7
ONSHAPE-CUSTOM-STYLE-NOTE4
  0
LINE
  5
12D
330
1F
100
AcDbEntity
  8
TITLE_BLOCK
100
AcDbLine
 10
429.8019295899107
 20
10.0
 30
0.0
 11
429.8019295899107
 21
48.09999999999999
 31
0.0
  0
LINE
  5
12E
330
1F
100
AcDbEntity
  8
TITLE_BLOCK
100
AcDbLine
 10
443.1369295899107
 20
20.668
 30
0.0
 11
443.1369295899107
 21
48.09999999999999
 31
0.0
  0
LINE
  5
12F
330
1F
100
AcDbEntity
  8
TITLE_BLOCK
100
AcDbLine
 10
458.3769295899107
 20
20.668
 30
0.0
 11
458.3769295899107
 21
48.09999999999999
 31
0.0
  0
LINE
  5
130
330
1F
100
AcDbEntity
  8
TITLE_BLOCK
100
AcDbLine
 10
456.4719295899107
 20
10.0
 30
0.0
 11
456.4719295899107
 21
20.668
 31
0.0
  0
MTEXT
  5
131
330
1F
100
AcDbEntity
  8
TITLE_BLOCK
100
AcDbMText
 10
465.9969295899107
 20
47.00272
 30
0.0
 40
1.2192
 41
14.93519999999999
 71
     2
 72
     1
  1
SIGNATURE
  7
ONSHAPE-CUSTOM-STYLE-NOTE5
  0
LINE
  5
133
330
1F
100
AcDbEntity
  8
TITLE_BLOCK
100
AcDbLine
 10
473.6169295899107
 20
20.668
 30
0.0
 11
473.6169295899107
 21
48.09999999999999
 31
0.0
  0
LINE
  5
134
330
1F
100
AcDbEntity
  8
TITLE_BLOCK
100
AcDbLine
 10
429.8019295899107
 20
43.528
 30
0.0
 11
483.1419295899107
 21
43.528
 31
0.0
  0
LINE
  5
135
330
1F
100
AcDbEntity
  8
TITLE_BLOCK
100
AcDbLine
 10
429.8019295899107
 20
38.956
 30
0.0
 11
483.1419295899107
 21
38.956
 31
0.0
  0
LINE
  5
136
330
1F
100
AcDbEntity
  8
TITLE_BLOCK
100
AcDbLine
 10
429.8019295899107
 20
34.384
 30
0.0
 11
483.1419295899107
 21
34.384
 31
0.0
  0
LINE
  5
137
330
1F
100
AcDbEntity
  8
TITLE_BLOCK
100
AcDbLine
 10
429.8019295899107
 20
29.812
 30
0.0
 11
483.1419295899107
 21
29.812
 31
0.0
  0
LINE
  5
138
330
1F
100
AcDbEntity
  8
TITLE_BLOCK
100
AcDbLine
 10
429.8019295899107
 20
25.24
 30
0.0
 11
483.1419295899107
 21
25.24
 31
0.0
  0
LINE
  5
139
330
1F
100
AcDbEntity
  8
TITLE_BLOCK
100
AcDbLine
 10
429.8019295899107
 20
20.668
 30
0.0
 11
483.1419295899107
 21
20.668
 31
0.0
  0
MTEXT
  5
13A
330
1F
100
AcDbEntity
  8
TITLE_BLOCK
100
AcDbMText
 10
443.8074895899107
 20
47.00272
 30
0.0
 40
1.2192
 41
14.93519999999999
 71
     1
 72
     1
  1
NAME
  7
ONSHAPE-CUSTOM-STYLE-NOTE6
  0
MTEXT
  5
13C
330
1F
100
AcDbEntity
  8
TITLE_BLOCK
100
AcDbMText
 10
478.3794295899107
 20
47.00272
 30
0.0
 40
1.2192
 41
9.334500000000006
 71
     2
 72
     1
  1
DATE
  7
ONSHAPE-CUSTOM-STYLE-NOTE7
  0
MTEXT
  5
13E
330
1F
100
AcDbEntity
  8
TITLE_BLOCK
100
AcDbMText
 10
430.4724895899107
 20
42.43072
 30
0.0
 40
1.2192
 41
13.06830000000001
 71
     1
 72
     1
  1
DRAWN
  7
ONSHAPE-CUSTOM-STYLE-NOTE8
  0
MTEXT
  5
140
102
{ACAD_XDICTIONARY
360
141
102
}
330
1F
100
AcDbEntity
  8
TITLE_BLOCK
100
AcDbMText
 10
450.7569295899107
 20
41.242
 30
0.0
 40
1.024128
 41
15.23999999999999
 71
     5
 72
     1
  1
SIMON BRUN
  7
ONSHAPE-CUSTOM-STYLE-NOTE9
1001
ACAD
1000
ACAD_MTEXT_DEFINED_HEIGHT_BEGIN
1070
    46
1040
4.572000000000003
1000
ACAD_MTEXT_DEFINED_HEIGHT_END
  0
MTEXT
  5
147
102
{ACAD_XDICTIONARY
360
148
102
}
330
1F
100
AcDbEntity
  8
TITLE_BLOCK
100
AcDbMText
 10
478.3794295899107
 20
41.242
 30
0.0
 40
1.024128
 41
9.525000000000006
 71
     5
 72
     1
  1
2025-09-06
  7
ONSHAPE-CUSTOM-STYLE-NOTEA
1001
ACAD
1000
ACAD_MTEXT_DEFINED_HEIGHT_BEGIN
1070
    46
1040
4.572000000000003
1000
ACAD_MTEXT_DEFINED_HEIGHT_END
  0
MTEXT
  5
14E
330
1F
100
AcDbEntity
  8
TITLE_BLOCK
100
AcDbMText
 10
430.4724895899107
 20
37.85872
 30
0.0
 40
1.2192
 41
13.06830000000001
 71
     1
 72
     1
  1
CHECKED
  7
ONSHAPE-CUSTOM-STYLE-NOTEB
  0
MTEXT
  5
150
330
1F
100
AcDbEntity
  8
TITLE_BLOCK
100
AcDbMText
 10
450.7569295899107
 20
36.67
 30
0.0
 40
1.024128
 41
15.23999999999999
 71
     5
 72
     1
  1
 
  7
ONSHAPE-CUSTOM-STYLE-NOTEC
1001
ACAD
1000
ACAD_MTEXT_DEFINED_HEIGHT_BEGIN
1070
    46
1040
4.571999999999996
1000
ACAD_MTEXT_DEFINED_HEIGHT_END
  0
MTEXT
  5
152
330
1F
100
AcDbEntity
  8
TITLE_BLOCK
100
AcDbMText
 10
478.3794295899107
 20
36.67
 30
0.0
 40
1.024128
 41
9.525000000000006
 71
     5
 72
     1
  1
 
  7
ONSHAPE-CUSTOM-STYLE-NOTED
1001
ACAD
1000
ACAD_MTEXT_DEFINED_HEIGHT_BEGIN
1070
    46
1040
4.571999999999996
1000
ACAD_MTEXT_DEFINED_HEIGHT_END
  0
MTEXT
  5
154
330
1F
100
AcDbEntity
  8
TITLE_BLOCK
100
AcDbMText
 10
430.4724895899107
 20
33.28672
 30
0.0
 40
1.2192
 41
13.06830000000001
 71
     1
 72
     1
  1
APPROVED
  7
ONSHAPE-CUSTOM-STYLE-NOTEE
  0
MTEXT
  5
156
102
{ACAD_XDICTIONARY
360
157
102
}
330
1F
100
AcDbEntity
  8
TITLE_BLOCK
100
AcDbMText
 10
450.7569295899107
 20
32.098
 30
0.0
 40
1.024128
 41
15.23999999999999
 71
     5
 72
     1
  1
----
  7
ONSHAPE-CUSTOM-STYLE-NOTEF
1001
ACAD
1000
ACAD_MTEXT_DEFINED_HEIGHT_BEGIN
1070
    46
1040
4.572000000000003
1000
ACAD_MTEXT_DEFINED_HEIGHT_END
  0
MTEXT
  5
15D
102
{ACAD_XDICTIONARY
360
15E
102
}
330
1F
100
AcDbEntity
  8
TITLE_BLOCK
100
AcDbMText
 10
478.3794295899107
 20
32.098
 30
0.0
 40
1.024128
 41
9.525000000000006
 71
     5
 72
     1
  1
----
  7
ONSHAPE-CUSTOM-STYLE-NOTEG
1001
ACAD
1000
ACAD_MTEXT_DEFINED_HEIGHT_BEGIN
1070
    46
1040
4.572000000000003
1000
ACAD_MTEXT_DEFINED_HEIGHT_END
  0
MTEXT
  5
164
330
1F
100
AcDbEntity
  8
TITLE_BLOCK
100
AcDbMText
 10
436.4694295899107
 20
27.526
 30
0.0
 40
1.8288
 41
13.33500000000001
 71
     5
 72
     1
  1
 
  7
ONSHAPE-CUSTOM-STYLE-NOTEH
1001
ACAD
1000
ACAD_MTEXT_DEFINED_HEIGHT_BEGIN
1070
    46
1040
4.571999999999999
1000
ACAD_MTEXT_DEFINED_HEIGHT_END
  0
MTEXT
  5
166
330
1F
100
AcDbEntity
  8
TITLE_BLOCK
100
AcDbMText
 10
450.7569295899107
 20
27.526
 30
0.0
 40
1.024128
 41
15.23999999999999
 71
     5
 72
     1
  1
 
  7
ONSHAPE-CUSTOM-STYLE-NOTEI
1001
ACAD
1000
ACAD_MTEXT_DEFINED_HEIGHT_BEGIN
1070
    46
1040
4.571999999999999
1000
ACAD_MTEXT_DEFINED_HEIGHT_END
  0
MTEXT
  5
168
330
1F
100
AcDbEntity
  8
TITLE_BLOCK
100
AcDbMText
 10
478.3794295899107
 20
27.526
 30
0.0
 40
1.024128
 41
9.525000000000006
 71
     5
 72
     1
  1
 
  7
ONSHAPE-CUSTOM-STYLE-NOTEJ
1001
ACAD
1000
ACAD_MTEXT_DEFINED_HEIGHT_BEGIN
1070
    46
1040
4.571999999999999
1000
ACAD_MTEXT_DEFINED_HEIGHT_END
  0
MTEXT
  5
16A
330
1F
100
AcDbEntity
  8
TITLE_BLOCK
100
AcDbMText
 10
436.4694295899107
 20
22.954
 30
0.0
 40
1.8288
 41
13.33500000000001
 71
     5
 72
     1
  1
 
  7
ONSHAPE-CUSTOM-STYLE-NOTEK
1001
ACAD
1000
ACAD_MTEXT_DEFINED_HEIGHT_BEGIN
1070
    46
1040
4.571999999999999
1000
ACAD_MTEXT_DEFINED_HEIGHT_END
  0
MTEXT
  5
16C
330
1F
100
AcDbEntity
  8
TITLE_BLOCK
100
AcDbMText
 10
450.7569295899107
 20
22.954
 30
0.0
 40
1.024128
 41
15.23999999999999
 71
     5
 72
     1
  1
 
  7
ONSHAPE-CUSTOM-STYLE-NOTEL
1001
ACAD
1000
ACAD_MTEXT_DEFINED_HEIGHT_BEGIN
1070
    46
1040
4.571999999999999
1000
ACAD_MTEXT_DEFINED_HEIGHT_END
  0
MTEXT
  5
16E
330
1F
100
AcDbEntity
  8
TITLE_BLOCK
100
AcDbMText
 10
478.3794295899107
 20
22.954
 30
0.0
 40
1.024128
 41
9.525000000000006
 71
     5
 72
     1
  1
 
  7
ONSHAPE-CUSTOM-STYLE-NOTEM
1001
ACAD
1000
ACAD_MTEXT_DEFINED_HEIGHT_BEGIN
1070
    46
1040
4.571999999999999
1000
ACAD_MTEXT_DEFINED_HEIGHT_END
  0
MTEXT
  5
170
330
1F
100
AcDbEntity
  8
TITLE_BLOCK
100
AcDbMText
 10
430.4724895899107
 20
19.57072
 30
0.0
 40
1.2192
 41
26.1366
 71
     1
 72
     1
  1
MATERIAL
  7
ONSHAPE-CUSTOM-STYLE-NOTEN
  0
MTEXT
  5
172
330
1F
100
AcDbEntity
  8
TITLE_BLOCK
100
AcDbMText
 10
443.1369295899107
 20
15.334
 30
0.0
 40
1.8288
 41
26.67
 71
     5
 72
     1
  1
 
  7
ONSHAPE-CUSTOM-STYLE-NOTEO
1001
ACAD
1000
ACAD_MTEXT_DEFINED_HEIGHT_BEGIN
1070
    46
1040
10.668
1000
ACAD_MTEXT_DEFINED_HEIGHT_END
  0
MTEXT
  5
174
330
1F
100
AcDbEntity
  8
TITLE_BLOCK
100
AcDbMText
 10
457.1424895899107
 20
19.57072
 30
0.0
 40
1.2192
 41
26.1366
 71
     1
 72
     1
  1
FINISH
  7
ONSHAPE-CUSTOM-STYLE-NOTEP
  0
MTEXT
  5
176
330
1F
100
AcDbEntity
  8
TITLE_BLOCK
100
AcDbMText
 10
469.8069295899107
 20
15.334
 30
0.0
 40
1.8288
 41
26.67
 71
     5
 72
     1
  1
 
  7
ONSHAPE-CUSTOM-STYLE-NOTEQ
1001
ACAD
1000
ACAD_MTEXT_DEFINED_HEIGHT_BEGIN
1070
    46
1040
10.668
1000
ACAD_MTEXT_DEFINED_HEIGHT_END
  0
LINE
  5
178
330
1F
100
AcDbEntity
  8
TITLE_BLOCK
100
AcDbLine
 10
483.1419295899107
 20
10.0
 30
0.0
 11
483.1419295899107
 21
48.09999999999999
 31
0.0
  0
LINE
  5
179
330
1F
100
AcDbEntity
  8
TITLE_BLOCK
100
AcDbLine
 10
492.6669295899107
 20
14.953
 30
0.0
 11
492.6669295899107
 21
22.573
 31
0.0
  0
LINE
  5
17A
330
1F
100
AcDbEntity
  8
TITLE_BLOCK
100
AcDbLine
 10
499.9059295899107
 20
10.0
 30
0.0
 11
499.9059295899107
 21
14.953
 31
0.0
  0
LINE
  5
17B
330
1F
100
AcDbEntity
  8
TITLE_BLOCK
100
AcDbLine
 10
534.5769295899107
 20
10.0
 30
0.0
 11
534.5769295899107
 21
14.953
 31
0.0
  0
LINE
  5
17C
330
1F
100
AcDbEntity
  8
TITLE_BLOCK
100
AcDbLine
 10
553.6269295899107
 20
14.953
 30
0.0
 11
553.6269295899107
 21
22.573
 31
0.0
  0
LINE
  5
17D
330
1F
100
AcDbEntity
  8
TITLE_BLOCK
100
AcDbLine
 10
483.1419295899107
 20
14.953
 30
0.0
 11
561.2469295899107
 21
14.953
 31
0.0
  0
LINE
  5
17E
330
1F
100
AcDbEntity
  8
TITLE_BLOCK
100
AcDbLine
 10
483.1419295899107
 20
22.573
 30
0.0
 11
561.2469295899107
 21
22.573
 31
0.0
  0
LINE
  5
17F
330
1F
100
AcDbEntity
  8
TITLE_BLOCK
100
AcDbLine
 10
483.1419295899107
 20
38.575
 30
0.0
 11
561.2469295899107
 21
38.575
 31
0.0
  0
MTEXT
  5
180
330
1F
100
AcDbEntity
  8
TITLE_BLOCK
100
AcDbMText
 10
483.8124895899107
 20
37.47772
 30
0.0
 40
1.2192
 41
9.334500000000006
 71
     1
 72
     1
  1
TITLE
  7
ONSHAPE-CUSTOM-STYLE-NOTER
  0
MTEXT
  5
182
102
{ACAD_XDICTIONARY
360
183
102
}
330
1F
100
AcDbEntity
  8
TITLE_BLOCK
100
AcDbMText
 10
522.1944295899107
 20
35.52699999999999
 30
0.0
 40
2.92608
 41
70.48499999999999
 71
     5
 72
     1
  1
----
  7
ONSHAPE-CUSTOM-STYLE-NOTES
1001
ACAD
1000
ACAD_MTEXT_DEFINED_HEIGHT_BEGIN
1070
    46
1040
4.800599999999998
1000
ACAD_MTEXT_DEFINED_HEIGHT_END
  0
MTEXT
  5
189
102
{ACAD_XDICTIONARY
360
18A
102
}
330
1F
100
AcDbEntity
  8
TITLE_BLOCK
100
AcDbMText
 10
522.1944295899107
 20
30.7264
 30
0.0
 40
2.92608
 41
70.48499999999999
 71
     5
 72
     1
  1
----
  7
ONSHAPE-CUSTOM-STYLE-NOTET
1001
ACAD
1000
ACAD_MTEXT_DEFINED_HEIGHT_BEGIN
1070
    46
1040
4.800599999999998
1000
ACAD_MTEXT_DEFINED_HEIGHT_END
  0
MTEXT
  5
190
102
{ACAD_XDICTIONARY
360
191
102
}
330
1F
100
AcDbEntity
  8
TITLE_BLOCK
100
AcDbMText
 10
522.1944295899107
 20
25.9258
 30
0.0
 40
2.92608
 41
70.48499999999999
 71
     5
 72
     1
  1
----
  7
ONSHAPE-CUSTOM-STYLE-NOTEU
1001
ACAD
1000
ACAD_MTEXT_DEFINED_HEIGHT_BEGIN
1070
    46
1040
4.800599999999998
1000
ACAD_MTEXT_DEFINED_HEIGHT_END
  0
MTEXT
  5
197
330
1F
100
AcDbEntity
  8
TITLE_BLOCK
100
AcDbMText
 10
483.6783775899107
 20
21.695176
 30
0.0
 40
0.9753599999999999
 41
9.334500000000006
 71
     1
 72
     1
  1
SIZE
  7
ONSHAPE-CUSTOM-STYLE-NOTEV
  0
MTEXT
  5
199
102
{ACAD_XDICTIONARY
360
19A
102
}
330
1F
100
AcDbEntity
  8
TITLE_BLOCK
100
AcDbMText
 10
487.9044295899107
 20
18.763
 30
0.0
 40
3.6576
 41
9.525000000000006
 71
     5
 72
     1
  1
A4
  7
ONSHAPE-CUSTOM-STYLE-NOTEW
1001
ACAD
1000
ACAD_MTEXT_DEFINED_HEIGHT_BEGIN
1070
    46
1040
7.620000000000001
1000
ACAD_MTEXT_DEFINED_HEIGHT_END
  0
MTEXT
  5
1A0
330
1F
100
AcDbEntity
  8
TITLE_BLOCK
100
AcDbMText
 10
493.2033775899107
 20
21.695176
 30
0.0
 40
0.9753599999999999
 41
59.74079999999998
 71
     1
 72
     1
  1
DWG NO.
  7
ONSHAPE-CUSTOM-STYLE-NOTEX
  0
MTEXT
  5
1A2
102
{ACAD_XDICTIONARY
360
1A3
102
}
330
1F
100
AcDbEntity
  8
TITLE_BLOCK
100
AcDbMText
 10
523.1469295899107
 20
18.763
 30
0.0
 40
3.6576
 41
60.95999999999998
 71
     5
 72
     1
  1
----
  7
ONSHAPE-CUSTOM-STYLE-NOTEY
1001
ACAD
1000
ACAD_MTEXT_DEFINED_HEIGHT_BEGIN
1070
    46
1040
7.620000000000001
1000
ACAD_MTEXT_DEFINED_HEIGHT_END
  0
MTEXT
  5
1A9
330
1F
100
AcDbEntity
  8
TITLE_BLOCK
100
AcDbMText
 10
554.1633775899106
 20
21.695176
 30
0.0
 40
0.9753599999999999
 41
7.467600000000004
 71
     1
 72
     1
  1
REV.
  7
ONSHAPE-CUSTOM-STYLE-NOTEZ
  0
MTEXT
  5
1AB
102
{ACAD_XDICTIONARY
360
1AC
102
}
330
1F
100
AcDbEntity
  8
TITLE_BLOCK
100
AcDbMText
 10
557.8179295899107
 20
18.763
 30
0.0
 40
3.6576
 41
6.858000000000004
 71
     5
 72
     1
  1
-
  7
ONSHAPE-CUSTOM-STYLE-NOT00
1001
ACAD
1000
ACAD_MTEXT_DEFINED_HEIGHT_BEGIN
1070
    46
1040
7.620000000000001
1000
ACAD_MTEXT_DEFINED_HEIGHT_END
  0
MTEXT
  5
1B2
330
1F
100
AcDbEntity
  8
TITLE_BLOCK
100
AcDbMText
 10
483.6783775899107
 20
14.075176
 30
0.0
 40
0.9753599999999999
 41
16.42871999999998
 71
     1
 72
     1
  1
SCALE
  7
ONSHAPE-CUSTOM-STYLE-NOT01
  0
MTEXT
  5
1B4
102
{ACAD_XDICTIONARY
360
1B5
102
}
330
1F
100
AcDbEntity
  8
TITLE_BLOCK
100
AcDbMText
 10
492.2859295899107
 20
12.4765
 30
0.0
 40
2.19456
 41
15.23999999999998
 71
     5
 72
     1
  1
1:1
  7
ONSHAPE-CUSTOM-STYLE-NOT02
1001
ACAD
1000
ACAD_MTEXT_DEFINED_HEIGHT_BEGIN
1070
    46
1040
4.952999999999999
1000
ACAD_MTEXT_DEFINED_HEIGHT_END
  0
MTEXT
  5
1BB
330
1F
100
AcDbEntity
  8
TITLE_BLOCK
100
AcDbMText
 10
500.4423775899107
 20
14.075176
 30
0.0
 40
0.9753599999999999
 41
33.97758000000002
 71
     1
 72
     1
  1
WEIGHT
  7
ONSHAPE-CUSTOM-STYLE-NOT03
  0
MTEXT
  5
1BD
330
1F
100
AcDbEntity
  8
TITLE_BLOCK
100
AcDbMText
 10
517.2414295899107
 20
12.4765
 30
0.0
 40
2.19456
 41
34.67100000000002
 71
     5
 72
     1
  1
 
  7
ONSHAPE-CUSTOM-STYLE-NOT04
1001
ACAD
1000
ACAD_MTEXT_DEFINED_HEIGHT_BEGIN
1070
    46
1040
4.952999999999999
1000
ACAD_MTEXT_DEFINED_HEIGHT_END
  0
MTEXT
  5
1BF
330
1F
100
AcDbEntity
  8
TITLE_BLOCK
100
AcDbMText
 10
535.1133775899107
 20
14.075176
 30
0.0
 40
0.9753599999999999
 41
26.13659999999999
 71
     1
 72
     1
  1
SHEET
  7
ONSHAPE-CUSTOM-STYLE-NOT05
  0
MTEXT
  5
1C1
102
{ACAD_XDICTIONARY
360
1C2
102
}
330
1F
100
AcDbEntity
  8
TITLE_BLOCK
100
AcDbMText
 10
548.6739295899107
 20
12.4765
 30
0.0
 40
2.19456
 41
25.14599999999999
 71
     5
 72
     1
  1
2 of 2
  7
ONSHAPE-CUSTOM-STYLE-NOT06
1001
ACAD
1000
ACAD_MTEXT_DEFINED_HEIGHT_BEGIN
1070
    46
1040
4.952999999999999
1000
ACAD_MTEXT_DEFINED_HEIGHT_END
  0
MTEXT
  5
1C8
102
{ACAD_XDICTIONARY
360
1C9
102
}
330
1F
100
AcDbEntity
  8
ANNOTATION_TEXT
 62
     7
 60
     1
100
AcDbMText
 10
466.5279039968966
 20
183.7922656329176
 30
0.0
 40
3.5
 41
0.0
 71
     2
 72
     1
  1

  7
ONSHAPE-STANDARD-VIEW-LABE
1001
ACAD
1000
ACAD_MTEXT_DEFINED_HEIGHT_BEGIN
1070
    46
1040
3.5
1000
ACAD_MTEXT_DEFINED_HEIGHT_END
  0
MTEXT
  5
1CD
102
{ACAD_XDICTIONARY
360
1CE
102
}
330
1F
100
AcDbEntity
  8
ANNOTATION_TEXT
 62
     7
 60
     1
100
AcDbMText
 10
465.4500431450643
 20
128.5102717936153
 30
0.0
 40
3.5
 41
0.0
 71
     2
 72
     1
  1

  7
ONSHAPE-STANDARD-VIEW-LABE
1001
ACAD
1000
ACAD_MTEXT_DEFINED_HEIGHT_BEGIN
1070
    46
1040
3.5
1000
ACAD_MTEXT_DEFINED_HEIGHT_END
  0
MTEXT
  5
1D0
102
{ACAD_XDICTIONARY
360
1D1
102
}
330
1F
100
AcDbEntity
  8
ANNOTATION_TEXT
 62
     7
 60
     1
100
AcDbMText
 10
470.2529409495997
 20
85.22925746930495
 30
0.0
 40
3.5
 41
0.0
 71
     2
 72
     1
  1

  7
ONSHAPE-STANDARD-VIEW-LABE
1001
ACAD
1000
ACAD_MTEXT_DEFINED_HEIGHT_BEGIN
1070
    46
1040
3.5
1000
ACAD_MTEXT_DEFINED_HEIGHT_END
  0
LINE
  5
1D3
102
{ACAD_REACTORS
102
}
330
1F
100
AcDbEntity
  8
SKETCHED_GEOMETRY
100
AcDbLine
 10
399.3219295899107
 20
10.07177900239036
 30
0.0
 11
399.3219295899107
 21
48.09000106196565
 31
0.0
  0
LINE
  5
1D5
102
{ACAD_REACTORS
102
}
330
1F
100
AcDbEntity
  8
SKETCHED_GEOMETRY
100
AcDbLine
 10
399.3219295899107
 20
48.09000106196565
 30
0.0
 11
561.2581350845437
 21
48.09000106196565
 31
0.0
  0
LINE
  5
1D6
102
{ACAD_REACTORS
102
}
330
1F
100
AcDbEntity
  8
SKETCHED_GEOMETRY
100
AcDbLine
 10
561.2581350845437
 20
48.09000106196565
 30
0.0
 11
561.2581350845436
 21
10.07177900239039
 31
0.0
  0
LINE
  5
1D7
102
{ACAD_REACTORS
102
}
330
1F
100
AcDbEntity
  8
SKETCHED_GEOMETRY
100
AcDbLine
 10
561.2581350845436
 20
10.07177900239038
 30
0.0
 11
399.3219295899107
 21
10.07177900239036
 31
0.0
  0
DIMENSION
  5
1D9
102
{ACAD_REACTORS
102
}
102
{ACAD_XDICTIONARY
360
1DA
102
}
330
1F
100
AcDbEntity
  8
ANNOTATION_TEXT
100
AcDbDimension
  2
*D1
 10
449.9822760283337
 20
224.5077824757778
 30
17.99999999999999
 11
439.1351282365729
 21
207.639591929153
 31
0.0
 70
   163
  3
ONSHAPE-ISO-25$3
100
AcDbDiametricDimension
 15
444.5735319654595
 25
216.0967487900574
 35
17.99999999999999
 40
0.0
1001
ACAD
1000
DSTYLE
1002
{
1070
   287
1070
     3
1070
     4
1000
[]
1070
   144
1040
1.0
1070
   289
1070
     3
1070
   279
1070
     0
1070
   172
1070
     1
1070
     3
1000
%%c<>
1002
}
1001
ACAD_DSTYLE_DIMRADIAL_EXTE
1070
   387
1070
     1
1070
   388
1040
0.0
1070
   390
1040
6.283185307179586
1001
ACAD_DIMASSOC_CALC_DIMLFAC
1040
-1.0
1001
ACAD_DIMASSOC_DIMLFAC
1040
-1.0
1001
ACAD_DIMASSOC_OVERRIDDEN_D
1040
0.0
  0
DIMENSION
  5
1F3
102
{ACAD_REACTORS
102
}
102
{ACAD_XDICTIONARY
360
1F4
102
}
330
1F
100
AcDbEntity
  8
ANNOTATION_TEXT
100
AcDbDimension
  2
*D2
 10
403.7967499529155
 20
213.9422656329176
 30
0.0
 11
403.7967499529155
 21
221.1855927773922
 31
0.0
 70
   160
  3
ONSHAPE-ISO-25$0
100
AcDbAlignedDimension
 13
403.7967499529155
 23
207.5422656329176
 33
17.99999999999999
 14
403.7967499529155
 24
213.9422656329176
 34
17.99999999999999
 50
90.0
100
AcDbRotatedDimension
1001
ACAD
1000
DSTYLE
1002
{
1070
     4
1000
[]
1070
   144
1040
1.0
1070
     3
1000

1070
   288
1070
     1
1002
}
1001
ACAD_DIMASSOC_CALC_DIMLFAC
1040
-1.0
1001
ACAD_DIMASSOC_DIMLFAC
1040
-1.0
1001
ACAD_DIMASSOC_OVERRIDDEN_D
1040
0.0
  0
DIMENSION
  5
207
102
{ACAD_REACTORS
102
}
102
{ACAD_XDICTIONARY
360
208
102
}
330
1F
100
AcDbEntity
  8
ANNOTATION_TEXT
100
AcDbDimension
  2
*D3
 10
409.7279039968966
 20
200.5319578557504
 30
0.0
 11
403.5279039968966
 21
200.5319578557504
 31
0.0
 70
   160
  3
ONSHAPE-ISO-25$0
100
AcDbAlignedDimension
 13
397.3279039968966
 23
210.9422656329176
 33
17.99999999999999
 14
409.7279039968966
 24
210.9422656329176
 34
17.99999999999999
100
AcDbRotatedDimension
1001
ACAD
1000
DSTYLE
1002
{
1070
     4
1000
[]
1070
   144
1040
1.0
1070
     3
1000

1070
   288
1070
     1
1002
}
1001
ACAD_DIMASSOC_CALC_DIMLFAC
1040
-1.0
1001
ACAD_DIMASSOC_DIMLFAC
1040
-1.0
1001
ACAD_DIMASSOC_OVERRIDDEN_D
1040
0.0
  0
DIMENSION
  5
219
102
{ACAD_REACTORS
102
}
102
{ACAD_XDICTIONARY
360
21A
102
}
330
1F
100
AcDbEntity
  8
ANNOTATION_TEXT
100
AcDbDimension
  2
*D4
 10
400.3279039968966
 20
210.9422656329176
 30
17.99999999999999
 11
391.7328659046259
 21
218.0484569245672
 31
0.0
 70
   164
  3
ONSHAPE-ISO-25$4
100
AcDbRadialDimension
 15
398.0158038375734
 25
212.853859955272
 35
17.99999999999999
 40
0.0
1001
ACAD
1000
DSTYLE
1002
{
1070
   287
1070
     0
1070
     4
1000
[]
1070
    75
1070
     0
1070
    44
1040
0.7853970000000009
1070
   144
1040
1.0
1070
   279
1070
     0
1070
   289
1070
     0
1070
   172
1070
     1
1070
     3
1000
R<>
1002
}
1001
ACAD_DSTYLE_DIMRADIAL_EXTE
1070
   387
1070
     1
1070
   388
1040
1.570796326794897
1070
   390
1040
3.141592653589793
1001
ACAD_DIMASSOC_CALC_DIMLFAC
1040
-1.0
1001
ACAD_DIMASSOC_DIMLFAC
1040
-1.0
1001
ACAD_DIMASSOC_OVERRIDDEN_D
1040
0.0
  0
DIMENSION
  5
228
102
{ACAD_REACTORS
330
1DD
102
}
102
{ACAD_XDICTIONARY
360
229
102
}
330
1F
100
AcDbEntity
  8
ANNOTATION_TEXT
100
AcDbDimension
  2
*D5
 10
430.3514234235979
 20
235.5422656329176
 30
0.0
 11
430.3514234235979
 21
227.9222656329176
 31
0.0
 70
   160
  3
ONSHAPE-ISO-25$0
100
AcDbAlignedDimension
 13
447.2779039968966
 23
220.3022656329176
 33
17.99999999999999
 14
430.3514234235979
 24
235.5422656329176
 34
17.99999999999999
 50
90.0
100
AcDbRotatedDimension
1001
ACAD
1000
DSTYLE
1002
{
1070
     4
1000
[]
1070
   144
1040
1.0
1070
     3
1000

1070
   288
1070
     1
1002
}
1001
ACAD_DIMASSOC_CALC_DIMLFAC
1040
-1.0
1001
ACAD_DIMASSOC_DIMLFAC
1040
-1.0
1001
ACAD_DIMASSOC_OVERRIDDEN_D
1040
0.0
  0
DIMENSION
  5
23A
102
{ACAD_REACTORS
102
}
102
{ACAD_XDICTIONARY
360
23B
102
}
330
1F
100
AcDbEntity
  8
ANNOTATION_TEXT
100
AcDbDimension
  2
*D6
 10
561.5279039968966
 20
243.1669613725682
 30
0.0
 11
466.5279039968966
 21
243.1669613725682
 31
0.0
 70
   160
  3
ONSHAPE-ISO-25$0
100
AcDbAlignedDimension
 13
371.5279039968966
 23
235.5422656329176
 33
5.99999999999998
 14
561.5279039968966
 24
235.5422656329176
 34
5.999999999999952
 50
-0.0000000000001018
100
AcDbRotatedDimension
1001
ACAD
1000
DSTYLE
1002
{
1070
     4
1000
[]
1070
   144
1040
1.0
1070
     3
1000

1070
   288
1070
     1
1002
}
1001
ACAD_DIMASSOC_CALC_DIMLFAC
1040
-1.0
1001
ACAD_DIMASSOC_DIMLFAC
1040
-1.0
1001
ACAD_DIMASSOC_OVERRIDDEN_D
1040
0.0
  0
DIMENSION
  5
24C
102
{ACAD_REACTORS
102
}
102
{ACAD_XDICTIONARY
360
24D
102
}
330
1F
100
AcDbEntity
  8
ANNOTATION_TEXT
100
AcDbDimension
  2
*D7
 10
383.5279039968966
 20
191.3853481047376
 30
0.0
 11
466.5279039968966
 21
191.3853481047376
 31
0.0
 70
   160
  3
ONSHAPE-ISO-25$0
100
AcDbAlignedDimension
 13
549.5279039968966
 23
197.5422656329176
 33
17.99999999999998
 14
383.5279039968966
 24
197.5422656329176
 34
17.99999999999999
100
AcDbRotatedDimension
1001
ACAD
1000
DSTYLE
1002
{
1070
     4
1000
[]
1070
   144
1040
1.0
1070
     3
1000

1070
   288
1070
     1
1002
}
1001
ACAD_DIMASSOC_CALC_DIMLFAC
1040
-1.0
1001
ACAD_DIMASSOC_DIMLFAC
1040
-1.0
1001
ACAD_DIMASSOC_OVERRIDDEN_D
1040
0.0
  0
DIMENSION
  5
25E
102
{ACAD_REACTORS
102
}
102
{ACAD_XDICTIONARY
360
25F
102
}
330
1F
100
AcDbEntity
  8
ANNOTATION_TEXT
100
AcDbDimension
  2
*D8
 10
385.4500431450643
 20
132.6233998403768
 30
-0.0000000000000009
 11
470.6729553401434
 21
132.6233998403768
 31
-0.0000000000000009
 70
   161
  3
ONSHAPE-ISO-25$0
100
AcDbAlignedDimension
 13
545.4500431450643
 23
138.2602717936153
 33
-0.0000000000000009
 14
385.4500431450643
 24
138.2602717936153
 34
-0.0000000000000027
1001
ACAD
1000
DSTYLE
1002
{
1070
     4
1000
[]
1070
   144
1040
1.0
1070
     3
1000

1070
   288
1070
     1
1002
}
1001
ACAD_DIMASSOC_CALC_DIMLFAC
1040
-1.0
1001
ACAD_DIMASSOC_DIMLFAC
1040
-1.0
1001
ACAD_DIMASSOC_OVERRIDDEN_D
1040
0.0
  0
DIMENSION
  5
270
102
{ACAD_REACTORS
102
}
102
{ACAD_XDICTIONARY
360
271
102
}
330
1F
100
AcDbEntity
  8
ANNOTATION_TEXT
100
AcDbDimension
  2
*D9
 10
377.436546265303
 20
138.2602717936153
 30
-0.0000000000000009
 11
377.436546265303
 21
153.1602717936154
 31
-0.0000000000000009
 70
   161
  3
ONSHAPE-ISO-25$0
100
AcDbAlignedDimension
 13
385.4500431450643
 23
168.0602717936154
 33
-0.0000000000000009
 14
385.4500431450643
 24
138.2602717936153
 34
-0.0000000000000027
1001
ACAD
1000
DSTYLE
1002
{
1070
     4
1000
[]
1070
   144
1040
1.0
1070
     3
1000

1070
   288
1070
     1
1002
}
1001
ACAD_DIMASSOC_CALC_DIMLFAC
1040
-1.0
1001
ACAD_DIMASSOC_DIMLFAC
1040
-1.0
1001
ACAD_DIMASSOC_OVERRIDDEN_D
1040
0.0
  0
DIMENSION
  5
282
102
{ACAD_REACTORS
102
}
102
{ACAD_XDICTIONARY
360
283
102
}
330
1F
100
AcDbEntity
  8
ANNOTATION_TEXT
100
AcDbDimension
  2
*D10
 10
458.9111275557121
 20
88.46925746930495
 30
0.0000000000000009
 11
458.9111275557121
 21
103.3692574693049
 31
0.0000000000000009
 70
   161
  3
ONSHAPE-ISO-25$0
100
AcDbAlignedDimension
 13
465.2529409495997
 23
118.2692574693049
 33
0.0000000000000009
 14
465.2529409495997
 24
88.46925746930495
 34
-0.0000000000000009
1001
ACAD
1000
DSTYLE
1002
{
1070
     4
1000
[]
1070
   144
1040
1.0
1070
     3
1000

1070
   288
1070
     1
1002
}
1001
ACAD_DIMASSOC_CALC_DIMLFAC
1040
-1.0
1001
ACAD_DIMASSOC_DIMLFAC
1040
-1.0
1001
ACAD_DIMASSOC_OVERRIDDEN_D
1040
0.0
  0
DIMENSION
  5
294
102
{ACAD_REACTORS
102
}
102
{ACAD_XDICTIONARY
360
295
102
}
330
1F
100
AcDbEntity
  8
ANNOTATION_TEXT
100
AcDbDimension
  2
*D11
 10
475.2529409495997
 20
79.74893655469974
 30
-0.0000000000000009
 11
470.2529409495997
 21
79.74893655469974
 31
-0.0000000000000009
 70
   161
  3
ONSHAPE-ISO-25$0
100
AcDbAlignedDimension
 13
465.2529409495997
 23
88.46925746930495
 33
-0.0000000000000009
 14
475.2529409495997
 24
88.46925746930495
 34
-0.0000000000000009
1001
ACAD
1000
DSTYLE
1002
{
1070
     4
1000
[]
1070
   144
1040
1.0
1070
     3
1000

1070
   288
1070
     1
1002
}
1001
ACAD_DIMASSOC_CALC_DIMLFAC
1040
-1.0
1001
ACAD_DIMASSOC_DIMLFAC
1040
-1.0
1001
ACAD_DIMASSOC_OVERRIDDEN_D
1040
0.0
  0
DIMENSION
  5
2A6
102
{ACAD_REACTORS
102
}
102
{ACAD_XDICTIONARY
360
2A7
102
}
330
1F
100
AcDbEntity
  8
ANNOTATION_TEXT
100
AcDbDimension
  2
*D12
 10
561.5279039968966
 20
191.3853481047376
 30
0.0
 11
558.0279039968966
 21
191.3853481047376
 31
0.0
 70
   160
  3
ONSHAPE-ISO-25$0
100
AcDbAlignedDimension
 13
554.5279039968966
 23
197.5422656329176
 33
12.99999999999996
 14
561.5279039968966
 24
197.5422656329176
 34
5.999999999999994
100
AcDbRotatedDimension
1001
ACAD
1000
DSTYLE
1002
{
1070
     4
1000
[]
1070
   144
1040
1.0
1070
     3
1000

1070
   288
1070
     1
1002
}
1001
ACAD_DIMASSOC_CALC_DIMLFAC
1040
-1.0
1001
ACAD_DIMASSOC_DIMLFAC
1040
-1.0
1001
ACAD_DIMASSOC_OVERRIDDEN_D
1040
0.0
  0
MTEXT
  5
2B8
102
{ACAD_XDICTIONARY
360
2B9
102
}
330
1F
100
AcDbEntity
  8
ANNOTATION_TEXT
 62
     7
 60
     1
100
AcDbMText
 10
466.4319103658495
 20
248.4722973085368
 30
0.0
 40
3.5
 41
0.0
 71
     2
 72
     1
  1

  7
ONSHAPE-STANDARD-VIEW-LABE
1001
ACAD
1000
ACAD_MTEXT_DEFINED_HEIGHT_BEGIN
1070
    46
1040
3.5
1000
ACAD_MTEXT_DEFINED_HEIGHT_END
  0
DIMENSION
  5
2BF
102
{ACAD_REACTORS
102
}
102
{ACAD_XDICTIONARY
360
2C0
102
}
330
1F
100
AcDbEntity
  8
ANNOTATION_TEXT
100
AcDbDimension
  2
*D13
 10
378.4319103658495
 20
266.7222973085368
 30
6.901290928541338
 11
371.0865294183549
 21
273.6503596192694
 31
0.0
 70
   164
  3
ONSHAPE-ISO-25$4
100
AcDbRadialDimension
 15
380.6143200487576
 25
264.663878503738
 35
6.901290928541338
 40
0.0
1001
ACAD
1000
DSTYLE
1002
{
1070
   287
1070
     0
1070
     4
1000
[]
1070
    75
1070
     1
1070
    44
1040
0.7853970000000007
1070
   144
1040
1.0
1070
   279
1070
     0
1070
   289
1070
     0
1070
   172
1070
     1
1070
     3
1000
R<>
1002
}
1001
ACAD_DSTYLE_DIMRADIAL_EXTE
1070
   387
1070
     1
1070
   388
1040
3.926990816987227
1070
   390
1040
0.7853981633974516
1001
ACAD_DIMASSOC_CALC_DIMLFAC
1040
-1.0
1001
ACAD_DIMASSOC_DIMLFAC
1040
-1.0
1001
ACAD_DIMASSOC_OVERRIDDEN_D
1040
0.0
  0
DIMENSION
  5
2D6
102
{ACAD_REACTORS
102
}
102
{ACAD_XDICTIONARY
360
2D7
102
}
330
1F
100
AcDbEntity
  8
ANNOTATION_TEXT
100
AcDbDimension
  2
*D14
 10
415.9426714396051
 20
271.7222973085368
 30
0.0
 11
415.9426714396051
 21
281.3697887112985
 31
0.0
 70
   160
  3
ONSHAPE-ISO-25$0
100
AcDbAlignedDimension
 13
415.9426714396051
 23
259.7222973085368
 33
6.901290928541338
 14
415.9426714396051
 24
271.7222973085368
 34
6.901290928541338
 50
90.0
100
AcDbRotatedDimension
1001
ACAD
1000
DSTYLE
1002
{
1070
     4
1000
[]
1070
   144
1040
1.0
1070
     3
1000

1070
   288
1070
     1
1002
}
1001
ACAD_DIMASSOC_CALC_DIMLFAC
1040
-1.0
1001
ACAD_DIMASSOC_DIMLFAC
1040
-1.0
1001
ACAD_DIMASSOC_OVERRIDDEN_D
1040
0.0
  0
DIMENSION
  5
2EA
102
{ACAD_REACTORS
102
}
102
{ACAD_XDICTIONARY
360
2EB
102
}
330
1F
100
AcDbEntity
  8
ANNOTATION_TEXT
100
AcDbDimension
  2
*D15
 10
543.9684063007514
 20
259.7222973085368
 30
0.0
 11
543.9684063007514
 21
263.2222973085368
 31
0.0
 70
   160
  3
ONSHAPE-ISO-25$0
100
AcDbAlignedDimension
 13
554.4319103658495
 23
266.7222973085368
 33
-6.901290928541341
 14
543.9684063007514
 24
259.7222973085368
 34
6.901290928541338
 50
90.0
100
AcDbRotatedDimension
1001
ACAD
1000
DSTYLE
1002
{
1070
     4
1000
[]
1070
   144
1040
1.0
1070
     3
1000

1070
   288
1070
     1
1002
}
1001
ACAD_DIMASSOC_CALC_DIMLFAC
1040
-1.0
1001
ACAD_DIMASSOC_DIMLFAC
1040
-1.0
1001
ACAD_DIMASSOC_OVERRIDDEN_D
1040
0.0
  0
DIMENSION
  5
2FC
102
{ACAD_REACTORS
102
}
102
{ACAD_XDICTIONARY
360
2FD
102
}
330
1F
100
AcDbEntity
  8
ANNOTATION_TEXT
100
AcDbDimension
  2
*D16
 10
561.4319103658495
 20
252.3368280699453
 30
0.0
 11
557.9319103658495
 21
252.3368280699453
 31
0.0
 70
   160
  3
ONSHAPE-ISO-25$0
100
AcDbAlignedDimension
 13
554.4319103658495
 23
266.7222973085368
 33
-6.901290928541341
 14
561.4319103658495
 24
259.7222973085368
 34
6.901290928541338
100
AcDbRotatedDimension
1001
ACAD
1000
DSTYLE
1002
{
1070
     4
1000
[]
1070
   144
1040
1.0
1070
     3
1000

1070
   288
1070
     1
1002
}
1001
ACAD_DIMASSOC_CALC_DIMLFAC
1040
-1.0
1001
ACAD_DIMASSOC_DIMLFAC
1040
-1.0
1001
ACAD_DIMASSOC_OVERRIDDEN_D
1040
0.0
  0
DIMENSION
  5
30E
102
{ACAD_REACTORS
330
1DD
102
}
102
{ACAD_XDICTIONARY
360
30F
102
}
330
1F
100
AcDbEntity
  8
ANNOTATION_TEXT
100
AcDbDimension
  2
*D17
 10
447.2779039968966
 20
210.5273057008204
 30
0.0
 11
465.1929039968966
 21
210.5273057008204
 31
0.0
 70
   160
  3
ONSHAPE-ISO-25$0
100
AcDbAlignedDimension
 13
483.1079039968966
 23
220.3022656329176
 33
17.99999999999999
 14
447.2779039968966
 24
220.3022656329176
 34
17.99999999999999
100
AcDbRotatedDimension
1001
ACAD
1000
DSTYLE
1002
{
1070
     4
1000
[]
1070
   144
1040
1.0
1070
     3
1000

1070
   288
1070
     1
1002
}
1001
ACAD_DIMASSOC_CALC_DIMLFAC
1040
-1.0
1001
ACAD_DIMASSOC_DIMLFAC
1040
-1.0
1001
ACAD_DIMASSOC_OVERRIDDEN_D
1040
0.0
  0
ENDSEC
  0
SECTION
  2
OBJECTS
  0
DICTIONARY
  5
C
330
0
100
AcDbDictionary
  3
ACAD_FIELDLIST
350
1D8
  3
ACAD_GROUP
350
D
  3
ACAD_LAYOUT
350
1A
  3
ACAD_MATERIAL
350
43
  3
ACAD_MLEADERSTYLE
350
6B
  3
ACAD_MLINESTYLE
350
17
  3
ACAD_PLOTSETTINGS
350
19
  3
ACAD_SCALELIST
350
47
  3
ACAD_VISUALSTYLE
350
2A
  3
ACDBHEADERROUNDTRIPXREC
350
3AA
  3
ACDBVARIABLEDICTIONARY
350
6E
  3
ONSHAPE_DATA
350
320
  0
DICTIONARY
  5
3D1
330
8
100
AcDbDictionary
280
     1
  3
ACAD_XREC_ROUNDTRIP
360
3D2
  0
DICTIONARY
  5
B3
330
B2
100
AcDbDictionary
280
     1
  3
ONSHAPE_VIEW_ID
360
B4
  0
DICTIONARY
  5
BA
330
B9
100
AcDbDictionary
280
     1
  3
ONSHAPE_VIEW_ID
360
BB
  0
DICTIONARY
  5
BD
330
BC
100
AcDbDictionary
280
     1
  3
ONSHAPE_VIEW_ID
360
BE
  0
DICTIONARY
  5
141
330
140
100
AcDbDictionary
280
     1
  0
DICTIONARY
  5
148
330
147
100
AcDbDictionary
280
     1
  0
DICTIONARY
  5
157
330
156
100
AcDbDictionary
280
     1
  0
DICTIONARY
  5
15E
330
15D
100
AcDbDictionary
280
     1
  0
DICTIONARY
  5
183
330
182
100
AcDbDictionary
280
     1
  0
DICTIONARY
  5
18A
330
189
100
AcDbDictionary
280
     1
  0
DICTIONARY
  5
191
330
190
100
AcDbDictionary
280
     1
  0
DICTIONARY
  5
19A
330
199
100
AcDbDictionary
280
     1
  0
DICTIONARY
  5
1A3
330
1A2
100
AcDbDictionary
280
     1
  0
DICTIONARY
  5
1AC
330
1AB
100
AcDbDictionary
280
     1
  0
DICTIONARY
  5
1B5
330
1B4
100
AcDbDictionary
280
     1
  0
DICTIONARY
  5
1C2
330
1C1
100
AcDbDictionary
280
     1
  0
DICTIONARY
  5
1C9
330
1C8
100
AcDbDictionary
280
     1
  3
ONSHAPE_VIEW_ID
360
1CA
  0
DICTIONARY
  5
1CE
330
1CD
100
AcDbDictionary
280
     1
  3
ONSHAPE_VIEW_ID
360
1CF
  0
DICTIONARY
  5
1D1
330
1D0
100
AcDbDictionary
280
     1
  3
ONSHAPE_VIEW_ID
360
1D2
  0
DICTIONARY
  5
1DA
330
1D9
100
AcDbDictionary
280
     1
  3
ACAD_BREAKDATA
360
1DD
  3
OS_DIM_DISPLAY_FLAG_DATA
360
1DB
  0
DICTIONARY
  5
1F4
330
1F3
100
AcDbDictionary
280
     1
  3
ACAD_BREAKDATA
360
1F8
  3
OS_DIM_DISPLAY_FLAG_DATA
360
1F5
  0
DICTIONARY
  5
208
330
207
100
AcDbDictionary
280
     1
  3
ACAD_BREAKDATA
360
20C
  3
OS_DIM_DISPLAY_FLAG_DATA
360
209
  0
DICTIONARY
  5
21A
330
219
100
AcDbDictionary
280
     1
  3
ACAD_BREAKDATA
360
21D
  3
OS_DIM_DISPLAY_FLAG_DATA
360
21B
  0
DICTIONARY
  5
229
330
228
100
AcDbDictionary
280
     1
  3
ACAD_BREAKDATA
360
22D
  3
OS_DIM_DISPLAY_FLAG_DATA
360
22A
  0
DICTIONARY
  5
23B
330
23A
100
AcDbDictionary
280
     1
  3
ACAD_BREAKDATA
360
23F
  3
OS_DIM_DISPLAY_FLAG_DATA
360
23C
  0
DICTIONARY
  5
24D
330
24C
100
AcDbDictionary
280
     1
  3
ACAD_BREAKDATA
360
251
  3
OS_DIM_DISPLAY_FLAG_DATA
360
24E
  0
DICTIONARY
  5
25F
330
25E
100
AcDbDictionary
280
     1
  3
ACAD_BREAKDATA
360
263
  3
OS_DIM_DISPLAY_FLAG_DATA
360
260
  0
DICTIONARY
  5
271
330
270
100
AcDbDictionary
280
     1
  3
ACAD_BREAKDATA
360
275
  3
OS_DIM_DISPLAY_FLAG_DATA
360
272
  0
DICTIONARY
  5
283
330
282
100
AcDbDictionary
280
     1
  3
ACAD_BREAKDATA
360
287
  3
OS_DIM_DISPLAY_FLAG_DATA
360
284
  0
DICTIONARY
  5
295
330
294
100
AcDbDictionary
280
     1
  3
ACAD_BREAKDATA
360
299
  3
OS_DIM_DISPLAY_FLAG_DATA
360
296
  0
DICTIONARY
  5
2A7
330
2A6
100
AcDbDictionary
280
     1
  3
ACAD_BREAKDATA
360
2AB
  3
OS_DIM_DISPLAY_FLAG_DATA
360
2A8
  0
DICTIONARY
  5
2B9
330
2B8
100
AcDbDictionary
280
     1
  3
ONSHAPE_VIEW_ID
360
2BA
  0
DICTIONARY
  5
2C0
330
2BF
100
AcDbDictionary
280
     1
  3
ACAD_BREAKDATA
360
2C3
  3
OS_DIM_DISPLAY_FLAG_DATA
360
2C1
  0
DICTIONARY
  5
2D7
330
2D6
100
AcDbDictionary
280
     1
  3
ACAD_BREAKDATA
360
2DB
  3
OS_DIM_DISPLAY_FLAG_DATA
360
2D8
  0
DICTIONARY
  5
2EB
330
2EA
100
AcDbDictionary
280
     1
  3
ACAD_BREAKDATA
360
2EF
  3
OS_DIM_DISPLAY_FLAG_DATA
360
2EC
  0
DICTIONARY
  5
2FD
330
2FC
100
AcDbDictionary
280
     1
  3
ACAD_BREAKDATA
360
301
  3
OS_DIM_DISPLAY_FLAG_DATA
360
2FE
  0
DICTIONARY
  5
30F
330
30E
100
AcDbDictionary
280
     1
  3
ACAD_BREAKDATA
360
313
  3
OS_DIM_DISPLAY_FLAG_DATA
360
310
  0
ACAD_PROXY_OBJECT
  5
1D8
102
{ACAD_REACTORS
330
C
102
}
330
C
100
AcDbProxyObject
 90
      499
 91
      509
 93
       11
310
4600
330
144
330
145
330
14B
330
14C
330
15A
330
15B
330
161
330
162
330
186
330
187
330
18D
330
18E
330
194
330
195
330
19D
330
19E
330
1A6
330
1A7
330
1AF
330
1B0
330
1B8
330
1B9
330
1C5
330
1C6
 94
        0
  0
DICTIONARY
  5
D
102
{ACAD_REACTORS
330
C
102
}
330
C
100
AcDbDictionary
  0
DICTIONARY
  5
1A
102
{ACAD_REACTORS
330
C
102
}
330
C
100
AcDbDictionary
  0
DICTIONARY
  5
43
102
{ACAD_REACTORS
330
C
102
}
330
C
100
AcDbDictionary
  3
BYBLOCK
350
45
  3
BYLAYER
350
44
  3
GLOBAL
350
46
  0
DICTIONARY
  5
6B
102
{ACAD_REACTORS
330
C
102
}
330
C
100
AcDbDictionary
  3
STANDARD
350
6C
  0
DICTIONARY
  5
17
102
{ACAD_REACTORS
330
C
102
}
330
C
100
AcDbDictionary
  3
STANDARD
350
18
  0
DICTIONARY
  5
19
102
{ACAD_REACTORS
330
C
102
}
330
C
100
AcDbDictionary
  0
DICTIONARY
  5
47
102
{ACAD_REACTORS
330
C
102
}
330
C
100
AcDbDictionary
  3
A0
350
48
  3
A1
350
49
  3
A2
350
4A
  3
A3
350
4B
  3
A4
350
4C
  3
A5
350
4D
  3
A6
350
4E
  3
A7
350
4F
  3
A8
350
50
  3
A9
350
51
  3
B0
350
52
  3
B1
350
53
  3
B2
350
54
  3
B3
350
55
  3
B4
350
56
  3
B5
350
57
  3
B6
350
58
  3
B7
350
59
  3
B8
350
5A
  3
B9
350
5B
  3
C0
350
5C
  3
C1
350
5D
  3
C2
350
5E
  3
C3
350
5F
  3
C4
350
60
  3
C5
350
61
  3
C6
350
62
  3
C7
350
63
  3
C8
350
64
  3
C9
350
65
  3
D0
350
66
  3
D1
350
67
  3
D2
350
68
  0
DICTIONARY
  5
2A
102
{ACAD_REACTORS
330
C
102
}
330
C
100
AcDbDictionary
  3
2DWIREFRAME
350
2F
  3
BASIC
350
32
  3
BRIGHTEN
350
36
  3
COLORCHANGE
350
3A
  3
CONCEPTUAL
350
34
  3
DIM
350
35
  3
EDGECOLOROFF
350
3D
  3
FACEPATTERN
350
39
  3
FLAT
350
2B
  3
FLATWITHEDGES
350
2C
  3
GOURAUD
350
2D
  3
GOURAUDWITHEDGES
350
2E
  3
HIDDEN
350
31
  3
JITTEROFF
350
3B
  3
LINEPATTERN
350
38
  3
OVERHANGOFF
350
3C
  3
REALISTIC
350
33
  3
SHADED
350
42
  3
SHADED_WITH_EDGES
350
41
  3
SHADES_OF_GRAY
350
3E
  3
SKETCHY
350
3F
  3
THICKEN
350
37
  3
WIREFRAME
350
30
  3
X-RAY
350
40
  0
DICTIONARY
  5
3AA
102
{ACAD_REACTORS
330
C
102
}
330
C
100
AcDbDictionary
  3
CEPSNID
350
3B4
  3
CEPSNTYPE
350
3B3
  3
DIMSTYLEDATA
350
3CA
  3
FINGERPRINTGUID
350
3B5
  3
HYPERLINKBASE
350
3AD
  3
INSUNITS
350
3B2
  3
LAYOUTDICT
350
3AF
  3
LWETCUNION
350
3B1
  3
PLOTSETDICT
350
3B0
  3
PSVPSCALE
350
3B7
  3
PUCSBASE
350
3BA
  3
PUCSORGBACK
350
3C0
  3
PUCSORGBOTTOM
350
3BC
  3
PUCSORGFRONT
350
3BF
  3
PUCSORGLEFT
350
3BD
  3
PUCSORGRIGHT
350
3BE
  3
PUCSORGTOP
350
3BB
  3
PUCSORTHOREF
350
3B8
  3
PUCSORTHOVIEW
350
3B9
  3
STYLESHEET
350
3AE
  3
TSTACKALIGN
350
3AB
  3
TSTACKSIZE
350
3AC
  3
UCSBASE
350
3C3
  3
UCSORGBACK
350
3C9
  3
UCSORGBOTTOM
350
3C5
  3
UCSORGFRONT
350
3C8
  3
UCSORGLEFT
350
3C6
  3
UCSORGRIGHT
350
3C7
  3
UCSORGTOP
350
3C4
  3
UCSORTHOREF
350
3C1
  3
UCSORTHOVIEW
350
3C2
  3
VERSIONGUID
350
3B6
  0
DICTIONARY
  5
6E
102
{ACAD_REACTORS
330
C
102
}
330
C
100
AcDbDictionary
  3
CANNOSCALE
350
3D3
  3
CMLEADERSTYLE
350
3CC
  3
CTABLESTYLE
350
3CB
  3
DIMASSOC
350
3CF
  3
HIDETEXT
350
3D0
  3
MSLTSCALE
350
3D4
  3
OLEFRAME
350
6F
  0
DICTIONARY
  5
320
102
{ACAD_REACTORS
330
C
102
}
330
C
100
AcDbDictionary
280
     1
  3
DIM_UNITS
360
321
  3
ONSHAPE_ANG_TOL_PRECISION
360
324
  3
ONSHAPE_BREAK_DIMENSION_DEFAULT
360
32A
  3
ONSHAPE_DIMENSION_TEXT_HOR
360
329
  3
ONSHAPE_FITCLASS_TOL_PRECISION
360
325
  3
ONSHAPE_JOGDIMENSION_LOCK_
360
327
  3
ONSHAPE_SHOWDIMENSIONSLINE
360
328
  3
ONSHAPE_UNDERLINEOVERRIDEN
360
326
  3
ONSHAPE_VSHARP_EXTENSION
360
323
  3
ONSHAPE_WELD_STANDARD
360
322
  0
XRECORD
  5
3D2
102
{ACAD_REACTORS
330
3D1
102
}
330
3D1
100
AcDbXrecord
102
VTR_0.000_0.000_1.000_1.000_VISUALSTYLE
340
2F
102
VTR_0.000_0.000_1.000_1.000_GRIDDISPLAY
 70
     3
102
VTR_0.000_0.000_1.000_1.000_GRIDMAJOR
 70
     5
102
VTR_0.000_0.000_1.000_1.000_DEFAULTLIGHTING
280
     1
102
VTR_0.000_0.000_1.000_1.000_DEFAULTLIGHTINGTYPE
 70
     1
102
VTR_0.000_0.000_1.000_1.000_BRIGHTNESS
141
0.0
102
VTR_0.000_0.000_1.000_1.000_CONTRAST
142
0.0
  0
XRECORD
  5
B4
102
{ACAD_REACTORS
330
B3
102
}
330
B3
100
AcDbXrecord
330
0
  0
XRECORD
  5
BB
102
{ACAD_REACTORS
330
BA
102
}
330
BA
100
AcDbXrecord
330
0
  0
XRECORD
  5
BE
102
{ACAD_REACTORS
330
BD
102
}
330
BD
100
AcDbXrecord
330
0
  0
XRECORD
  5
1CA
102
{ACAD_REACTORS
330
1C9
102
}
330
1C9
100
AcDbXrecord
330
0
  0
XRECORD
  5
1CF
102
{ACAD_REACTORS
330
1CE
102
}
330
1CE
100
AcDbXrecord
330
0
  0
XRECORD
  5
1D2
102
{ACAD_REACTORS
330
1D1
102
}
330
1D1
100
AcDbXrecord
330
0
  0
BREAKDATA
  5
1DD
102
{ACAD_REACTORS
330
1DA
102
}
330
1DA
100
AcDbBreakData
 70
     0
330
1D9
 90
        2
100
AcDbBreakPointRef
 71
     0
 72
     0
 91
       -1
 10
0.0
 20
0.0
 30
0.0
 11
0.0
 21
0.0
 31
0.0
331
228
 73
     5
 92
        0
100
AcDbBreakPointRef
 71
     0
 72
     0
 91
       -1
 10
0.0
 20
0.0
 30
0.0
 11
0.0
 21
0.0
 31
0.0
331
30E
 73
     5
 92
        0
  0
XRECORD
  5
1DB
102
{ACAD_REACTORS
330
1DA
102
}
330
1DA
100
AcDbXrecord
 90
        1
 90
        0
  0
BREAKDATA
  5
1F8
102
{ACAD_REACTORS
330
1F4
102
}
330
1F4
100
AcDbBreakData
 70
     0
330
1F3
 90
        0
  0
XRECORD
  5
1F5
102
{ACAD_REACTORS
330
1F4
102
}
330
1F4
100
AcDbXrecord
 90
        1
 90
        0
  0
BREAKDATA
  5
20C
102
{ACAD_REACTORS
330
208
102
}
330
208
100
AcDbBreakData
 70
     0
330
207
 90
        0
  0
XRECORD
  5
209
102
{ACAD_REACTORS
330
208
102
}
330
208
100
AcDbXrecord
 90
        1
 90
        0
  0
BREAKDATA
  5
21D
102
{ACAD_REACTORS
330
21A
102
}
330
21A
100
AcDbBreakData
 70
     0
330
219
 90
        0
  0
XRECORD
  5
21B
102
{ACAD_REACTORS
330
21A
102
}
330
21A
100
AcDbXrecord
 90
        1
 90
        0
  0
BREAKDATA
  5
22D
102
{ACAD_REACTORS
330
229
102
}
330
229
100
AcDbBreakData
 70
     0
330
228
 90
        0
  0
XRECORD
  5
22A
102
{ACAD_REACTORS
330
229
102
}
330
229
100
AcDbXrecord
 90
        1
 90
        0
  0
BREAKDATA
  5
23F
102
{ACAD_REACTORS
330
23B
102
}
330
23B
100
AcDbBreakData
 70
     0
330
23A
 90
        0
  0
XRECORD
  5
23C
102
{ACAD_REACTORS
330
23B
102
}
330
23B
100
AcDbXrecord
 90
        1
 90
        0
  0
BREAKDATA
  5
251
102
{ACAD_REACTORS
330
24D
102
}
330
24D
100
AcDbBreakData
 70
     0
330
24C
 90
        0
  0
XRECORD
  5
24E
102
{ACAD_REACTORS
330
24D
102
}
330
24D
100
AcDbXrecord
 90
        1
 90
        0
  0
BREAKDATA
  5
263
102
{ACAD_REACTORS
330
25F
102
}
330
25F
100
AcDbBreakData
 70
     0
330
25E
 90
        0
  0
XRECORD
  5
260
102
{ACAD_REACTORS
330
25F
102
}
330
25F
100
AcDbXrecord
 90
        1
 90
        0
  0
BREAKDATA
  5
275
102
{ACAD_REACTORS
330
271
102
}
330
271
100
AcDbBreakData
 70
     0
330
270
 90
        0
  0
XRECORD
  5
272
102
{ACAD_REACTORS
330
271
102
}
330
271
100
AcDbXrecord
 90
        1
 90
        0
  0
BREAKDATA
  5
287
102
{ACAD_REACTORS
330
283
102
}
330
283
100
AcDbBreakData
 70
     0
330
282
 90
        0
  0
XRECORD
  5
284
102
{ACAD_REACTORS
330
283
102
}
330
283
100
AcDbXrecord
 90
        1
 90
        0
  0
BREAKDATA
  5
299
102
{ACAD_REACTORS
330
295
102
}
330
295
100
AcDbBreakData
 70
     0
330
294
 90
        0
  0
XRECORD
  5
296
102
{ACAD_REACTORS
330
295
102
}
330
295
100
AcDbXrecord
 90
        1
 90
        0
  0
BREAKDATA
  5
2AB
102
{ACAD_REACTORS
330
2A7
102
}
330
2A7
100
AcDbBreakData
 70
     0
330
2A6
 90
        0
  0
XRECORD
  5
2A8
102
{ACAD_REACTORS
330
2A7
102
}
330
2A7
100
AcDbXrecord
 90
        1
 90
        0
  0
XRECORD
  5
2BA
102
{ACAD_REACTORS
330
2B9
102
}
330
2B9
100
AcDbXrecord
330
0
  0
BREAKDATA
  5
2C3
102
{ACAD_REACTORS
330
2C0
102
}
330
2C0
100
AcDbBreakData
 70
     0
330
2BF
 90
        0
  0
XRECORD
  5
2C1
102
{ACAD_REACTORS
330
2C0
102
}
330
2C0
100
AcDbXrecord
 90
        1
 90
        0
  0
BREAKDATA
  5
2DB
102
{ACAD_REACTORS
330
2D7
102
}
330
2D7
100
AcDbBreakData
 70
     0
330
2D6
 90
        0
  0
XRECORD
  5
2D8
102
{ACAD_REACTORS
330
2D7
102
}
330
2D7
100
AcDbXrecord
 90
        1
 90
        0
  0
BREAKDATA
  5
2EF
102
{ACAD_REACTORS
330
2EB
102
}
330
2EB
100
AcDbBreakData
 70
     0
330
2EA
 90
        0
  0
XRECORD
  5
2EC
102
{ACAD_REACTORS
330
2EB
102
}
330
2EB
100
AcDbXrecord
 90
        1
 90
        0
  0
BREAKDATA
  5
301
102
{ACAD_REACTORS
330
2FD
102
}
330
2FD
100
AcDbBreakData
 70
     0
330
2FC
 90
        0
  0
XRECORD
  5
2FE
102
{ACAD_REACTORS
330
2FD
102
}
330
2FD
100
AcDbXrecord
 90
        1
 90
        0
  0
BREAKDATA
  5
313
102
{ACAD_REACTORS
330
30F
102
}
330
30F
100
AcDbBreakData
 70
     0
330
30E
 90
        0
  0
XRECORD
  5
310
102
{ACAD_REACTORS
330
30F
102
}
330
30F
100
AcDbXrecord
 90
        1
 90
        0
  0
MATERIAL
  5
45
102
{ACAD_REACTORS
330
43
102
}
102
{ACAD_XDICTIONARY
360
3D7
102
}
330
43
100
AcDbMaterial
  1
BYBLOCK
  0
MATERIAL
  5
44
102
{ACAD_REACTORS
330
43
102
}
102
{ACAD_XDICTIONARY
360
3D5
102
}
330
43
100
AcDbMaterial
  1
BYLAYER
  0
MATERIAL
  5
46
102
{ACAD_REACTORS
330
43
102
}
102
{ACAD_XDICTIONARY
360
3D9
102
}
330
43
100
AcDbMaterial
  1
GLOBAL
  0
ACAD_PROXY_OBJECT
  5
6C
102
{ACAD_REACTORS
330
6B
102
}
330
6B
100
AcDbProxyObject
 90
      499
 91
      505
 93
      610
310
40901902A4063FBFFFFFE056BD1B81E855B9FC0AD7A3703D0AD73F4214DD185B99185C9900AD7A3703D0AC73F90140501A02B5E8DC0F42B1CFC02B5E8DC0F42B1CFE5764000000000000300FC0
340
14
340
0
340
11
340
0
 94
        0
1001
ACAD_MLEADERVER
1070
     2
  0
MLINESTYLE
  5
18
102
{ACAD_REACTORS
330
17
102
}
330
17
100
AcDbMlineStyle
  2
Standard
 70
     0
  3

 62
   256
 51
90.0
 52
90.0
 71
     2
 49
0.5
 62
   256
  6
BYLAYER
 49
-0.5
 62
   256
  6
BYLAYER
  0
ACAD_PROXY_OBJECT
  5
48
102
{ACAD_REACTORS
330
47
102
}
330
47
100
AcDbProxyObject
 90
      499
 91
      503
 93
       41
310
903313A31580
  0
ACAD_PROXY_OBJECT
  5
49
102
{ACAD_REACTORS
330
47
102
}
330
47
100
AcDbProxyObject
 90
      499
 91
      503
 93
      105
310
903313A324000000000000004000
  0
ACAD_PROXY_OBJECT
  5
4A
102
{ACAD_REACTORS
330
47
102
}
330
47
100
AcDbProxyObject
 90
      499
 91
      503
 93
      105
310
903313A344000000000000104000
  0
ACAD_PROXY_OBJECT
  5
4B
102
{ACAD_REACTORS
330
47
102
}
330
47
100
AcDbProxyObject
 90
      499
 91
      503
 93
      105
310
903313A354000000000000144000
  0
ACAD_PROXY_OBJECT
  5
4C
102
{ACAD_REACTORS
330
47
102
}
330
47
100
AcDbProxyObject
 90
      499
 91
      503
 93
      105
310
903313A384000000000000204000
  0
ACAD_PROXY_OBJECT
  5
4D
102
{ACAD_REACTORS
330
47
102
}
330
47
100
AcDbProxyObject
 90
      499
 91
      503
 93
      113
310
904313A31304000000000000244000
  0
ACAD_PROXY_OBJECT
  5
4E
102
{ACAD_REACTORS
330
47
102
}
330
47
100
AcDbProxyObject
 90
      499
 91
      503
 93
      113
310
904313A31364000000000000304000
  0
ACAD_PROXY_OBJECT
  5
4F
102
{ACAD_REACTORS
330
47
102
}
330
47
100
AcDbProxyObject
 90
      499
 91
      503
 93
      113
310
904313A32304000000000000344000
  0
ACAD_PROXY_OBJECT
  5
50
102
{ACAD_REACTORS
330
47
102
}
330
47
100
AcDbProxyObject
 90
      499
 91
      503
 93
      113
310
904313A333040000000000003E4000
  0
ACAD_PROXY_OBJECT
  5
51
102
{ACAD_REACTORS
330
47
102
}
330
47
100
AcDbProxyObject
 90
      499
 91
      503
 93
      113
310
904313A34304000000000000444000
  0
ACAD_PROXY_OBJECT
  5
52
102
{ACAD_REACTORS
330
47
102
}
330
47
100
AcDbProxyObject
 90
      499
 91
      503
 93
      113
310
904313A35304000000000000494000
  0
ACAD_PROXY_OBJECT
  5
53
102
{ACAD_REACTORS
330
47
102
}
330
47
100
AcDbProxyObject
 90
      499
 91
      503
 93
      121
310
905313A3130304000000000000594000
  0
ACAD_PROXY_OBJECT
  5
54
102
{ACAD_REACTORS
330
47
102
}
330
47
100
AcDbProxyObject
 90
      499
 91
      503
 93
      105
310
903323A310000000000000010100
  0
ACAD_PROXY_OBJECT
  5
55
102
{ACAD_REACTORS
330
47
102
}
330
47
100
AcDbProxyObject
 90
      499
 91
      503
 93
      105
310
903343A310000000000000410100
  0
ACAD_PROXY_OBJECT
  5
56
102
{ACAD_REACTORS
330
47
102
}
330
47
100
AcDbProxyObject
 90
      499
 91
      503
 93
      105
310
903383A310000000000000810100
  0
ACAD_PROXY_OBJECT
  5
57
102
{ACAD_REACTORS
330
47
102
}
330
47
100
AcDbProxyObject
 90
      499
 91
      503
 93
      113
310
90431303A310000000000000910100
  0
ACAD_PROXY_OBJECT
  5
58
102
{ACAD_REACTORS
330
47
102
}
330
47
100
AcDbProxyObject
 90
      499
 91
      503
 93
      121
310
9053130303A310000000000001650100
  0
ACAD_PROXY_OBJECT
  5
59
102
{ACAD_REACTORS
330
47
102
}
330
47
100
AcDbProxyObject
 90
      499
 91
      503
 93
      257
310
90E312F31323822203D2031272D3022000000000000200FC000000000000284000
  0
ACAD_PROXY_OBJECT
  5
5A
102
{ACAD_REACTORS
330
47
102
}
330
47
100
AcDbProxyObject
 90
      499
 91
      503
 93
      249
310
90D312F363422203D2031272D3022000000000000240FC000000000000284000
  0
ACAD_PROXY_OBJECT
  5
5B
102
{ACAD_REACTORS
330
47
102
}
330
47
100
AcDbProxyObject
 90
      499
 91
      503
 93
      249
310
90D312F333222203D2031272D3022000000000000280FC000000000000284000
  0
ACAD_PROXY_OBJECT
  5
5C
102
{ACAD_REACTORS
330
47
102
}
330
47
100
AcDbProxyObject
 90
      499
 91
      503
 93
      249
310
90D312F313622203D2031272D30220000000000002C0FC000000000000284000
  0
ACAD_PROXY_OBJECT
  5
5D
102
{ACAD_REACTORS
330
47
102
}
330
47
100
AcDbProxyObject
 90
      499
 91
      503
 93
      249
310
90D332F333222203D2031272D30220000000000002E0FC000000000000284000
  0
ACAD_PROXY_OBJECT
  5
5E
102
{ACAD_REACTORS
330
47
102
}
330
47
100
AcDbProxyObject
 90
      499
 91
      503
 93
      241
310
90C312F3822203D2031272D3022000000000000300FC000000000000284000
  0
ACAD_PROXY_OBJECT
  5
5F
102
{ACAD_REACTORS
330
47
102
}
330
47
100
AcDbProxyObject
 90
      499
 91
      503
 93
      249
310
90D332F313622203D2031272D3022000000000000320FC000000000000284000
  0
ACAD_PROXY_OBJECT
  5
60
102
{ACAD_REACTORS
330
47
102
}
330
47
100
AcDbProxyObject
 90
      499
 91
      503
 93
      241
310
90C312F3422203D2031272D3022000000000000340FC000000000000284000
  0
ACAD_PROXY_OBJECT
  5
61
102
{ACAD_REACTORS
330
47
102
}
330
47
100
AcDbProxyObject
 90
      499
 91
      503
 93
      241
310
90C332F3822203D2031272D3022000000000000360FC000000000000284000
  0
ACAD_PROXY_OBJECT
  5
62
102
{ACAD_REACTORS
330
47
102
}
330
47
100
AcDbProxyObject
 90
      499
 91
      503
 93
      241
310
90C312F3222203D2031272D3022000000000000380FC000000000000284000
  0
ACAD_PROXY_OBJECT
  5
63
102
{ACAD_REACTORS
330
47
102
}
330
47
100
AcDbProxyObject
 90
      499
 91
      503
 93
      241
310
90C332F3422203D2031272D30220000000000003A0FC000000000000284000
  0
ACAD_PROXY_OBJECT
  5
64
102
{ACAD_REACTORS
330
47
102
}
330
47
100
AcDbProxyObject
 90
      499
 91
      503
 93
      161
310
90A3122203D2031272D30224000000000000284000
  0
ACAD_PROXY_OBJECT
  5
65
102
{ACAD_REACTORS
330
47
102
}
330
47
100
AcDbProxyObject
 90
      499
 91
      503
 93
      257
310
90E312D312F3222203D2031272D30220000000000003E0FC000000000000284000
  0
ACAD_PROXY_OBJECT
  5
66
102
{ACAD_REACTORS
330
47
102
}
330
47
100
AcDbProxyObject
 90
      499
 91
      503
 93
      225
310
90A3322203D2031272D302200000000000002100000000000000284000
  0
ACAD_PROXY_OBJECT
  5
67
102
{ACAD_REACTORS
330
47
102
}
330
47
100
AcDbProxyObject
 90
      499
 91
      503
 93
      225
310
90A3622203D2031272D302200000000000006100000000000000284000
  0
ACAD_PROXY_OBJECT
  5
68
102
{ACAD_REACTORS
330
47
102
}
330
47
100
AcDbProxyObject
 90
      499
 91
      503
 93
      249
310
90D31272D3022203D2031272D30220000000000000A100000000000000284000
  0
ACAD_PROXY_OBJECT
  5
2F
102
{ACAD_REACTORS
330
2A
102
}
330
2A
100
AcDbProxyObject
 90
      499
 91
      501
 93
      436
310
42CC9915DA5C99599C985B595049028333333333333E33F0000000000000F90107901411070040501600405405064090741402480A0340
1001
ACAD
1000
AcDbSavedByObjectVersion
1070
     0
  0
ACAD_PROXY_OBJECT
  5
32
102
{ACAD_REACTORS
330
2A
102
}
330
2A
100
AcDbProxyObject
 90
      499
 91
      501
 93
      388
310
4150985CDA58D07406404333333333333E33F0000000000000F90107A41107004050150841D405064090741402480A0350
1001
ACAD
1000
AcDbSavedByObjectVersion
1070
     0
  0
ACAD_PROXY_OBJECT
  5
36
102
{ACAD_REACTORS
330
2A
102
}
330
2A
100
AcDbProxyObject
 90
      499
 91
      501
 93
      428
310
42109C9A59DA1D195B90C409028333333333333E33F0000000000000F9010790141107004050150841D405064090741402480A029950
1001
ACAD
1000
AcDbSavedByObjectVersion
1070
     0
  0
ACAD_PROXY_OBJECT
  5
3A
102
{ACAD_REACTORS
330
2A
102
}
330
2A
100
AcDbProxyObject
 90
      499
 91
      501
 93
      452
310
42D0DBDB1BDC90DA185B99D95104090240C333333333333E33F0000000000000F90108901411070040501508421405064090741402480A0350
1001
ACAD
1000
AcDbSavedByObjectVersion
1070
     0
  0
ACAD_PROXY_OBJECT
  5
34
102
{ACAD_REACTORS
330
2A
102
}
330
2A
100
AcDbProxyObject
 90
      499
 91
      501
 93
      500
310
4290DBDB98D95C1D1D585B10940D028333333333333E33F0000000000000F90107902409070040501000000000018199010841D405064090740C02480A0340
1001
ACAD
1000
AcDbSavedByObjectVersion
1070
     0
  0
ACAD_PROXY_OBJECT
  5
35
102
{ACAD_REACTORS
330
2A
102
}
330
2A
100
AcDbProxyObject
 90
      499
 91
      501
 93
      412
310
40D11A5B50B409028333333333333E33F0000000000000F9010790141107004050150841D405064090741402480A02677FFFFFD0
1001
ACAD
1000
AcDbSavedByObjectVersion
1070
     0
  0
ACAD_PROXY_OBJECT
  5
3D
102
{ACAD_REACTORS
330
2A
102
}
330
2A
100
AcDbProxyObject
 90
      499
 91
      501
 93
      452
310
43115919D950DBDB1BDC93D999916409028333333333333E33F0000000000000F9010790141107004050150841D405064090741402480A0350
1001
ACAD
1000
AcDbSavedByObjectVersion
1070
     0
  0
ACAD_PROXY_OBJECT
  5
39
102
{ACAD_REACTORS
330
2A
102
}
330
2A
100
AcDbProxyObject
 90
      499
 91
      501
 93
      444
310
42D19858D95C185D1D195C9B90F409028333333333333E33F0000000000000F9010790141107004050150841D405064090741402480A0350
1001
ACAD
1000
AcDbSavedByObjectVersion
1070
     0
  0
ACAD_PROXY_OBJECT
  5
2B
102
{ACAD_REACTORS
330
2A
102
}
330
2A
100
AcDbProxyObject
 90
      499
 91
      501
 93
      380
310
41119B185D240901404333333333333E33F0000000000000F9010740A907004050150841D405064090741402480A1B50
1001
ACAD
1000
AcDbSavedByObjectVersion
1070
     0
  0
ACAD_PROXY_OBJECT
  5
2C
102
{ACAD_REACTORS
330
2A
102
}
330
2A
100
AcDbProxyObject
 90
      499
 91
      501
 93
      468
310
43519B185D15DA5D1A115919D95CD0140901404333333333333E33F0000000000000F90107409019070040501600405405064090741402480A1B50
1001
ACAD
1000
AcDbSavedByObjectVersion
1070
     0
  0
ACAD_PROXY_OBJECT
  5
2D
102
{ACAD_REACTORS
330
2A
102
}
330
2A
100
AcDbProxyObject
 90
      499
 91
      501
 93
      404
310
41D1DBDD5C985D5910240902404333333333333E33F0000000000000F9010740A9070040501641D405064090741402480A1B50
1001
ACAD
1000
AcDbSavedByObjectVersion
1070
     0
  0
ACAD_PROXY_OBJECT
  5
2E
102
{ACAD_REACTORS
330
2A
102
}
330
2A
100
AcDbProxyObject
 90
      499
 91
      501
 93
      492
310
4411DBDD5C985D5915DA5D1A115919D95CD0340902404333333333333E33F0000000000000F90107409019070040501600405405064090741402480A1B50
1001
ACAD
1000
AcDbSavedByObjectVersion
1070
     0
  0
ACAD_PROXY_OBJECT
  5
31
102
{ACAD_REACTORS
330
2A
102
}
330
2A
100
AcDbProxyObject
 90
      499
 91
      501
 93
      476
310
41921A5919195B90640502408333333333333E33F0000000000000F901079024090700405020000000000001110200405405064090740C02480A0340
1001
ACAD
1000
AcDbSavedByObjectVersion
1070
     0
  0
ACAD_PROXY_OBJECT
  5
3B
102
{ACAD_REACTORS
330
2A
102
}
330
2A
100
AcDbProxyObject
 90
      499
 91
      501
 93
      428
310
42529A5D1D195C93D999914409028333333333333E33F0000000000000F9010790141107004050150A41D405064090741402480A0350
1001
ACAD
1000
AcDbSavedByObjectVersion
1070
     0
  0
ACAD_PROXY_OBJECT
  5
38
102
{ACAD_REACTORS
330
2A
102
}
330
2A
100
AcDbProxyObject
 90
      499
 91
      501
 93
      444
310
42D31A5B995C185D1D195C9B90E409028333333333333E33F0000000000000F9010790141107004050750841D405064090741402483A0350
1001
ACAD
1000
AcDbSavedByObjectVersion
1070
     0
  0
ACAD_PROXY_OBJECT
  5
3C
102
{ACAD_REACTORS
330
2A
102
}
330
2A
100
AcDbProxyObject
 90
      499
 91
      501
 93
      444
310
42D3DD995C9A185B99D3D999915409028333333333333E33F0000000000000F9010790141107004050150941D405064090741402480A0350
1001
ACAD
1000
AcDbSavedByObjectVersion
1070
     0
  0
ACAD_PROXY_OBJECT
  5
33
102
{ACAD_REACTORS
330
2A
102
}
330
2A
100
AcDbProxyObject
 90
      499
 91
      501
 93
      428
310
425499585B1A5CDD1A58D08409038333333333333E33F0000000000000F9010740A907004050150800405405064090740C02480A1B40
1001
ACAD
1000
AcDbSavedByObjectVersion
1070
     0
  0
ACAD_PROXY_OBJECT
  5
42
102
{ACAD_REACTORS
330
2A
102
}
330
2A
100
AcDbProxyObject
 90
      499
 91
      501
 93
      420
310
4194DA1859195911B40902404333333333333E33F0000000000000F9010740A41107004050150800405405064090840C02480A0B40
1001
ACAD
1000
AcDbSavedByObjectVersion
1070
     0
  0
ACAD_PROXY_OBJECT
  5
41
102
{ACAD_REACTORS
330
2A
102
}
330
2A
100
AcDbProxyObject
 90
      499
 91
      501
 93
      516
310
4454DA18591959081DDA5D1A08195919D95CD1A40902404333333333333E33F0000000000000F901074090142907004050250800405405064090740C02480A0B40
1001
ACAD
1000
AcDbSavedByObjectVersion
1070
     0
  0
ACAD_PROXY_OBJECT
  5
3E
102
{ACAD_REACTORS
330
2A
102
}
330
2A
100
AcDbProxyObject
 90
      499
 91
      501
 93
      532
310
4394DA1859195CC81BD98811DC985E5174090240C333333333333E33F0000000000000F901079024090741D01000000000000111010841D405064090740C02480A0340
1001
ACAD
1000
AcDbSavedByObjectVersion
1070
     0
  0
ACAD_PROXY_OBJECT
  5
3F
102
{ACAD_REACTORS
330
2A
102
}
330
2A
100
AcDbProxyObject
 90
      499
 91
      501
 93
      476
310
41D4DAD95D18DA1E51840502408333333333333E33F0000000000000F901079024090741D01000000000000111010B41D405064090741802480A0340
1001
ACAD
1000
AcDbSavedByObjectVersion
1070
     0
  0
ACAD_PROXY_OBJECT
  5
37
102
{ACAD_REACTORS
330
2A
102
}
330
2A
100
AcDbProxyObject
 90
      499
 91
      501
 93
      412
310
41D51A1A58DAD95B90D409028333333333333E33F0000000000000F9010790141107004050150C41D405064090741402480A0350
1001
ACAD
1000
AcDbSavedByObjectVersion
1070
     0
  0
ACAD_PROXY_OBJECT
  5
30
102
{ACAD_REACTORS
330
2A
102
}
330
2A
100
AcDbProxyObject
 90
      499
 91
      501
 93
      420
310
4255DA5C99599C985B595059028333333333333E33F0000000000000F90107901411070040501600405405064090740C02480A0340
1001
ACAD
1000
AcDbSavedByObjectVersion
1070
     0
  0
ACAD_PROXY_OBJECT
  5
40
102
{ACAD_REACTORS
330
2A
102
}
330
2A
100
AcDbProxyObject
 90
      499
 91
      501
 93
      404
310
41560B54985E51940902404000000000000E03F0000000000000F9010740501907004050150841D405064090740C02480A1B40
1001
ACAD
1000
AcDbSavedByObjectVersion
1070
     0
  0
XRECORD
  5
3B4
102
{ACAD_REACTORS
330
3AA
102
}
330
3AA
100
AcDbXrecord
340
0
  0
XRECORD
  5
3B3
102
{ACAD_REACTORS
330
3AA
102
}
330
3AA
100
AcDbXrecord
 90
        0
  0
XRECORD
  5
3CA
102
{ACAD_REACTORS
330
3AA
102
}
330
3AA
100
AcDbXrecord
1000
DSTYLE
1002
{
1070
   179
 70
     1
1070
   171
 70
     3
1070
   143
 40
0.03937
1070
   274
 70
     3
1070
   285
 70
     8
1070
    41
 40
2.5
1070
   141
 40
2.5
1070
   176
 70
     7
1070
   177
 70
     7
1070
   178
 70
     7
1070
   271
 70
     2
1070
    43
 40
3.75
1070
   278
 70
    44
1070
    44
 40
1.25
1070
    42
 40
0.625
1070
   147
 40
0.625
1070
   371
 70
    13
1070
   372
 70
    13
1070
    77
 70
     1
1070
   272
 70
     2
1070
    73
 70
     0
1070
   172
 70
     1
1070
    74
 70
     0
1070
   283
 70
     0
1070
   340
340
73
1070
   140
 40
3.5
1070
   284
 70
     8
1070
   288
 70
     1
1070
    78
 70
     8
1002
}
  0
XRECORD
  5
3B5
102
{ACAD_REACTORS
330
3AA
102
}
330
3AA
100
AcDbXrecord
  1
{75397573-3677-3875-b770-757633767572}
  0
XRECORD
  5
3AD
102
{ACAD_REACTORS
330
3AA
102
}
330
3AA
100
AcDbXrecord
  1

  0
XRECORD
  5
3B2
102
{ACAD_REACTORS
330
3AA
102
}
330
3AA
100
AcDbXrecord
 90
        0
  0
XRECORD
  5
3AF
102
{ACAD_REACTORS
330
3AA
102
}
330
3AA
100
AcDbXrecord
340
1A
  0
XRECORD
  5
3B1
102
{ACAD_REACTORS
330
3AA
102
}
330
3AA
100
AcDbXrecord
 90
    10269
  0
XRECORD
  5
3B0
102
{ACAD_REACTORS
330
3AA
102
}
330
3AA
100
AcDbXrecord
340
19
  0
XRECORD
  5
3B7
102
{ACAD_REACTORS
330
3AA
102
}
330
3AA
100
AcDbXrecord
 40
0.0
  0
XRECORD
  5
3BA
102
{ACAD_REACTORS
330
3AA
102
}
330
3AA
100
AcDbXrecord
340
0
  0
XRECORD
  5
3C0
102
{ACAD_REACTORS
330
3AA
102
}
330
3AA
100
AcDbXrecord
 10
0.0
 20
0.0
 30
0.0
  0
XRECORD
  5
3BC
102
{ACAD_REACTORS
330
3AA
102
}
330
3AA
100
AcDbXrecord
 10
0.0
 20
0.0
 30
0.0
  0
XRECORD
  5
3BF
102
{ACAD_REACTORS
330
3AA
102
}
330
3AA
100
AcDbXrecord
 10
0.0
 20
0.0
 30
0.0
  0
XRECORD
  5
3BD
102
{ACAD_REACTORS
330
3AA
102
}
330
3AA
100
AcDbXrecord
 10
0.0
 20
0.0
 30
0.0
  0
XRECORD
  5
3BE
102
{ACAD_REACTORS
330
3AA
102
}
330
3AA
100
AcDbXrecord
 10
0.0
 20
0.0
 30
0.0
  0
XRECORD
  5
3BB
102
{ACAD_REACTORS
330
3AA
102
}
330
3AA
100
AcDbXrecord
 10
0.0
 20
0.0
 30
0.0
  0
XRECORD
  5
3B8
102
{ACAD_REACTORS
330
3AA
102
}
330
3AA
100
AcDbXrecord
340
0
  0
XRECORD
  5
3B9
102
{ACAD_REACTORS
330
3AA
102
}
330
3AA
100
AcDbXrecord
 70
     0
  0
XRECORD
  5
3AE
102
{ACAD_REACTORS
330
3AA
102
}
330
3AA
100
AcDbXrecord
  1

  0
XRECORD
  5
3AB
102
{ACAD_REACTORS
330
3AA
102
}
330
3AA
100
AcDbXrecord
 90
        1
  0
XRECORD
  5
3AC
102
{ACAD_REACTORS
330
3AA
102
}
330
3AA
100
AcDbXrecord
 90
       70
  0
XRECORD
  5
3C3
102
{ACAD_REACTORS
330
3AA
102
}
330
3AA
100
AcDbXrecord
340
0
  0
XRECORD
  5
3C9
102
{ACAD_REACTORS
330
3AA
102
}
330
3AA
100
AcDbXrecord
 10
0.0
 20
0.0
 30
0.0
  0
XRECORD
  5
3C5
102
{ACAD_REACTORS
330
3AA
102
}
330
3AA
100
AcDbXrecord
 10
0.0
 20
0.0
 30
0.0
  0
XRECORD
  5
3C8
102
{ACAD_REACTORS
330
3AA
102
}
330
3AA
100
AcDbXrecord
 10
0.0
 20
0.0
 30
0.0
  0
XRECORD
  5
3C6
102
{ACAD_REACTORS
330
3AA
102
}
330
3AA
100
AcDbXrecord
 10
0.0
 20
0.0
 30
0.0
  0
XRECORD
  5
3C7
102
{ACAD_REACTORS
330
3AA
102
}
330
3AA
100
AcDbXrecord
 10
0.0
 20
0.0
 30
0.0
  0
XRECORD
  5
3C4
102
{ACAD_REACTORS
330
3AA
102
}
330
3AA
100
AcDbXrecord
 10
0.0
 20
0.0
 30
0.0
  0
XRECORD
  5
3C1
102
{ACAD_REACTORS
330
3AA
102
}
330
3AA
100
AcDbXrecord
340
0
  0
XRECORD
  5
3C2
102
{ACAD_REACTORS
330
3AA
102
}
330
3AA
100
AcDbXrecord
 70
     0
  0
XRECORD
  5
3B6
102
{ACAD_REACTORS
330
3AA
102
}
330
3AA
100
AcDbXrecord
  1
{FAEB1C32-E019-11D5-929B-00C0DF256EC4}
  0
DICTIONARYVAR
  5
3D3
102
{ACAD_REACTORS
330
6E
102
}
330
6E
100
DictionaryVariables
280
     0
  1
1:1
  0
DICTIONARYVAR
  5
3CC
102
{ACAD_REACTORS
330
6E
102
}
330
6E
100
DictionaryVariables
280
     0
  1
Standard
  0
DICTIONARYVAR
  5
3CB
102
{ACAD_REACTORS
330
6E
102
}
330
6E
100
DictionaryVariables
280
     0
  1
Onshape-Standard
  0
DICTIONARYVAR
  5
3CF
102
{ACAD_REACTORS
330
6E
102
}
330
6E
100
DictionaryVariables
280
     0
  1
2
  0
DICTIONARYVAR
  5
3D0
102
{ACAD_REACTORS
330
6E
102
}
330
6E
100
DictionaryVariables
280
     0
  1
1
  0
DICTIONARYVAR
  5
3D4
102
{ACAD_REACTORS
330
6E
102
}
330
6E
100
DictionaryVariables
280
     0
  1
1
  0
DICTIONARYVAR
  5
6F
102
{ACAD_REACTORS
330
6E
102
}
330
6E
100
DictionaryVariables
280
     0
  1
0
  0
XRECORD
  5
321
102
{ACAD_REACTORS
330
320
102
}
330
320
100
AcDbXrecord
 70
     0
  0
XRECORD
  5
324
102
{ACAD_REACTORS
330
320
102
}
330
320
100
AcDbXrecord
 90
        0
  0
ACAD_PROXY_OBJECT
  5
32A
102
{ACAD_REACTORS
330
320
102
}
330
320
100
AcDbProxyObject
 90
      499
 91
      512
 93
       34
310
40C8804040
  0
XRECORD
  5
329
102
{ACAD_REACTORS
330
320
102
}
330
320
100
AcDbXrecord
 90
        5
  0
XRECORD
  5
325
102
{ACAD_REACTORS
330
320
102
}
330
320
100
AcDbXrecord
 90
        3
  0
XRECORD
  5
327
102
{ACAD_REACTORS
330
320
102
}
330
320
100
AcDbXrecord
 90
        0
  0
ACAD_PROXY_OBJECT
  5
328
102
{ACAD_REACTORS
330
320
102
}
330
320
100
AcDbProxyObject
 90
      499
 91
      512
 93
       34
310
40C8804040
  0
ACAD_PROXY_OBJECT
  5
326
102
{ACAD_REACTORS
330
320
102
}
330
320
100
AcDbProxyObject
 90
      499
 91
      512
 93
       34
310
40C8804040
  0
XRECORD
  5
323
102
{ACAD_REACTORS
330
320
102
}
330
320
100
AcDbXrecord
 90
        0
  0
XRECORD
  5
322
102
{ACAD_REACTORS
330
320
102
}
330
320
100
AcDbXrecord
 90
        1
  0
DICTIONARY
  5
3D7
330
45
100
AcDbDictionary
280
     1
  3
ACAD_XREC_ROUNDTRIP
360
3D8
  0
DICTIONARY
  5
3D5
330
44
100
AcDbDictionary
280
     1
  3
ACAD_XREC_ROUNDTRIP
360
3D6
  0
DICTIONARY
  5
3D9
330
46
100
AcDbDictionary
280
     1
  3
ACAD_XREC_ROUNDTRIP
360
3DA
  0
XRECORD
  5
3D8
102
{ACAD_REACTORS
330
3D7
102
}
330
3D7
100
AcDbXrecord
102
MATERIAL
148
0.0
149
0.0
149
0.0
 93
        0
 94
      127
282
     0
 72
     1
 77
     1
171
     1
175
     1
179
     1
273
     0
  0
XRECORD
  5
3D6
102
{ACAD_REACTORS
330
3D5
102
}
330
3D5
100
AcDbXrecord
102
MATERIAL
148
0.0
149
0.0
149
0.0
 93
        0
 94
      127
282
     0
 72
     1
 77
     1
171
     1
175
     1
179
     1
273
     0
  0
XRECORD
  5
3DA
102
{ACAD_REACTORS
330
3D9
102
}
330
3D9
100
AcDbXrecord
102
MATERIAL
148
0.0
149
0.0
149
0.0
 93
        0
 94
      127
282
     0
 72
     1
 77
     1
171
     1
175
     1
179
     1
273
     0
  0
ENDSEC
  0
EOF
