%TF.GenerationSoftware,KiCad,Pcbnew,9.0.3*%
%TF.CreationDate,2025-09-04T08:55:29+02:00*%
%TF.ProjectId,midi_controller,6d696469-5f63-46f6-9e74-726f6c6c6572,rev?*%
%TF.SameCoordinates,Original*%
%TF.FileFunction,Profile,NP*%
%FSLAX46Y46*%
G04 Gerber Fmt 4.6, Leading zero omitted, Abs format (unit mm)*
G04 Created by KiCad (PCBNEW 9.0.3) date 2025-09-04 08:55:29*
%MOMM*%
%LPD*%
G01*
G04 APERTURE LIST*
%TA.AperFunction,Profile*%
%ADD10C,0.050000*%
%TD*%
%TA.AperFunction,Profile*%
%ADD11C,0.001000*%
%TD*%
%TA.AperFunction,Profile*%
%ADD12C,0.100000*%
%TD*%
G04 APERTURE END LIST*
D10*
X239020000Y-237500000D02*
G75*
G02*
X235980000Y-237500000I-1520000J0D01*
G01*
X235980000Y-237500000D02*
G75*
G02*
X239020000Y-237500000I1520000J0D01*
G01*
X84020000Y-82500000D02*
G75*
G02*
X80980000Y-82500000I-1520000J0D01*
G01*
X80980000Y-82500000D02*
G75*
G02*
X84020000Y-82500000I1520000J0D01*
G01*
X84020000Y-237500000D02*
G75*
G02*
X80980000Y-237500000I-1520000J0D01*
G01*
X80980000Y-237500000D02*
G75*
G02*
X84020000Y-237500000I1520000J0D01*
G01*
D11*
X239000000Y-242000000D02*
X81000000Y-242000000D01*
X239000000Y-78000000D02*
G75*
G02*
X242000000Y-81000000I0J-3000000D01*
G01*
X81000000Y-78000000D02*
X239000000Y-78000000D01*
D10*
X239020000Y-82500000D02*
G75*
G02*
X235980000Y-82500000I-1520000J0D01*
G01*
X235980000Y-82500000D02*
G75*
G02*
X239020000Y-82500000I1520000J0D01*
G01*
D11*
X242000000Y-81000000D02*
X242000000Y-239000000D01*
X78000000Y-81000000D02*
G75*
G02*
X81000000Y-78000000I3000000J0D01*
G01*
X78000000Y-239000000D02*
X78000000Y-81000000D01*
X242000000Y-239000000D02*
G75*
G02*
X239000000Y-242000000I-3000000J0D01*
G01*
X81000000Y-242000000D02*
G75*
G02*
X78000000Y-239000000I0J3000000D01*
G01*
D12*
%TO.C,DISP1*%
X120199995Y-85510000D02*
G75*
G02*
X117199995Y-85510000I-1500000J0D01*
G01*
X117199995Y-85510000D02*
G75*
G02*
X120199995Y-85510000I1500000J0D01*
G01*
X120199995Y-129510000D02*
G75*
G02*
X117199995Y-129510000I-1500000J0D01*
G01*
X117199995Y-129510000D02*
G75*
G02*
X120199995Y-129510000I1500000J0D01*
G01*
X196279995Y-85510000D02*
G75*
G02*
X193279995Y-85510000I-1500000J0D01*
G01*
X193279995Y-85510000D02*
G75*
G02*
X196279995Y-85510000I1500000J0D01*
G01*
X196279995Y-129510000D02*
G75*
G02*
X193279995Y-129510000I-1500000J0D01*
G01*
X193279995Y-129510000D02*
G75*
G02*
X196279995Y-129510000I1500000J0D01*
G01*
%TO.C,ENC_MECH6*%
D10*
X98710013Y-214590018D02*
X101410013Y-214590018D01*
X101410013Y-213390018D01*
X98710013Y-213390018D01*
X98710013Y-214590018D01*
X98710013Y-226590018D02*
X101410013Y-226590018D01*
X101410013Y-225390018D01*
X98710013Y-225390018D01*
X98710013Y-226590018D01*
%TO.C,ENC_MECH8*%
X181340013Y-213400018D02*
X178640013Y-213400018D01*
X178640013Y-214600018D01*
X181340013Y-214600018D01*
X181340013Y-213400018D01*
X181340013Y-225400018D02*
X178640013Y-225400018D01*
X178640013Y-226600018D01*
X181340013Y-226600018D01*
X181340013Y-225400018D01*
%TO.C,ENC_MECH7*%
X138750013Y-214630018D02*
X141450013Y-214630018D01*
X141450013Y-213430018D01*
X138750013Y-213430018D01*
X138750013Y-214630018D01*
X138750013Y-226630018D02*
X141450013Y-226630018D01*
X141450013Y-225430018D01*
X138750013Y-225430018D01*
X138750013Y-226630018D01*
%TO.C,ENC_MECH2*%
X98740013Y-174600018D02*
X101440013Y-174600018D01*
X101440013Y-173400018D01*
X98740013Y-173400018D01*
X98740013Y-174600018D01*
X98740013Y-186600018D02*
X101440013Y-186600018D01*
X101440013Y-185400018D01*
X98740013Y-185400018D01*
X98740013Y-186600018D01*
%TO.C,SW3*%
X108000013Y-124550018D02*
G75*
G02*
X95000013Y-124550018I-6500000J0D01*
G01*
X95000013Y-124550018D02*
G75*
G02*
X108000013Y-124550018I6500000J0D01*
G01*
%TO.C,ENC_MECH1*%
X221300013Y-85900018D02*
X218600013Y-85900018D01*
X218600013Y-87100018D01*
X221300013Y-87100018D01*
X221300013Y-85900018D01*
X221300013Y-97900018D02*
X218600013Y-97900018D01*
X218600013Y-99100018D01*
X221300013Y-99100018D01*
X221300013Y-97900018D01*
%TO.C,ENC_MECH9*%
X221270013Y-213400018D02*
X218570013Y-213400018D01*
X218570013Y-214600018D01*
X221270013Y-214600018D01*
X221270013Y-213400018D01*
X221270013Y-225400018D02*
X218570013Y-225400018D01*
X218570013Y-226600018D01*
X221270013Y-226600018D01*
X221270013Y-225400018D01*
%TO.C,ENC_MECH4*%
X181360013Y-173430018D02*
X178660013Y-173430018D01*
X178660013Y-174630018D01*
X181360013Y-174630018D01*
X181360013Y-173430018D01*
X181360013Y-185430018D02*
X178660013Y-185430018D01*
X178660013Y-186630018D01*
X181360013Y-186630018D01*
X181360013Y-185430018D01*
%TO.C,ENC_OPT1*%
X239500013Y-122482518D02*
G75*
G02*
X200500013Y-122482518I-19500000J0D01*
G01*
X200500013Y-122482518D02*
G75*
G02*
X239500013Y-122482518I19500000J0D01*
G01*
%TO.C,ENC_MECH5*%
X221300013Y-173410018D02*
X218600013Y-173410018D01*
X218600013Y-174610018D01*
X221300013Y-174610018D01*
X221300013Y-173410018D01*
X221300013Y-185410018D02*
X218600013Y-185410018D01*
X218600013Y-186610018D01*
X221300013Y-186610018D01*
X221300013Y-185410018D01*
%TO.C,SW6*%
X189490013Y-147020018D02*
G75*
G02*
X176490013Y-147020018I-6500000J0D01*
G01*
X176490013Y-147020018D02*
G75*
G02*
X189490013Y-147020018I6500000J0D01*
G01*
%TO.C,SW4*%
X143500013Y-147050018D02*
G75*
G02*
X130500013Y-147050018I-6500000J0D01*
G01*
X130500013Y-147050018D02*
G75*
G02*
X143500013Y-147050018I6500000J0D01*
G01*
%TO.C,ENC_MECH3*%
X138710013Y-174640018D02*
X141410013Y-174640018D01*
X141410013Y-173440018D01*
X138710013Y-173440018D01*
X138710013Y-174640018D01*
X138710013Y-186640018D02*
X141410013Y-186640018D01*
X141410013Y-185440018D01*
X138710013Y-185440018D01*
X138710013Y-186640018D01*
%TO.C,SW2*%
X108000013Y-107535018D02*
G75*
G02*
X95000013Y-107535018I-6500000J0D01*
G01*
X95000013Y-107535018D02*
G75*
G02*
X108000013Y-107535018I6500000J0D01*
G01*
%TO.C,SW5*%
X166500013Y-147030018D02*
G75*
G02*
X153500013Y-147030018I-6500000J0D01*
G01*
X153500013Y-147030018D02*
G75*
G02*
X166500013Y-147030018I6500000J0D01*
G01*
%TO.C,SW1*%
X108000013Y-90520018D02*
G75*
G02*
X95000013Y-90520018I-6500000J0D01*
G01*
X95000013Y-90520018D02*
G75*
G02*
X108000013Y-90520018I6500000J0D01*
G01*
%TD*%
M02*
