M48
; DRILL file {KiCad 9.0.3} date 2025-09-04T08:55:29+0200
; FORMAT={-:-/ absolute / inch / decimal}
; #@! TF.CreationDate,2025-09-04T08:55:29+02:00
; #@! TF.GenerationSoftware,Kicad,Pcbnew,9.0.3
; #@! TF.FileFunction,Plated,1,4,PTH
FMAT,2
INCH
; #@! TA.AperFunction,Plated,PTH,ViaDrill
T1C0.0126
; #@! TA.AperFunction,Plated,PTH,ViaDrill
T2C0.0200
; #@! TA.AperFunction,Plated,PTH,ComponentDrill
T3C0.0354
; #@! TA.AperFunction,Plated,PTH,ComponentDrill
T4C0.0374
; #@! TA.AperFunction,Plated,PTH,ComponentDrill
T5C0.0394
%
G90
G05
T1
X3.3774Y-7.0797
X3.3852Y-8.6545
X3.4719Y-8.6151
X3.4758Y-7.0403
X4.0664Y-5.4813
X4.0821Y-5.56
X4.252Y-6.074
X4.2728Y-5.5236
X4.3008Y-5.5909
X4.3011Y-5.32
X4.302Y-6.074
X4.352Y-5.36
X4.352Y-6.074
X4.3521Y-5.5904
X4.3964Y-5.8
X4.402Y-6.074
X4.4022Y-5.5906
X4.4206Y-5.3861
X4.4286Y-8.623
X4.4325Y-8.4222
X4.4364Y-6.8474
X4.4364Y-7.0482
X4.452Y-6.074
X4.452Y-5.36
X4.4526Y-5.5901
X4.4955Y-8.5009
X4.502Y-6.074
X4.502Y-5.5902
X4.5349Y-6.8828
X4.5349Y-7.0836
X4.5349Y-8.6584
X4.5519Y-5.36
X4.552Y-6.074
X4.552Y-5.5905
X4.602Y-6.074
X4.6097Y-3.6742
X4.652Y-5.5003
X4.7215Y-3.5098
X4.752Y-6.0787
X4.8892Y-7.1269
X4.9404Y-8.6545
X5.0349Y-8.6191
X5.0388Y-5.0443
X5.0388Y-7.0403
X5.1136Y-5.06
X5.1153Y-4.7129
X5.2599Y-4.9288
X5.5164Y-4.18
X5.6679Y-4.3706
X5.7764Y-4.18
X5.7908Y-4.3907
X5.7927Y-3.7364
X5.8183Y-3.308
X5.9167Y-4.3828
X5.9719Y-4.3828
X5.9955Y-6.8435
X5.9955Y-7.0443
X5.9955Y-8.4222
X5.9994Y-8.623
X6.0432Y-7.0488
X6.0564Y-4.34
X6.0805Y-7.0877
X6.09Y-8.6584
X6.0939Y-8.4616
X6.1148Y-3.7413
X6.1362Y-3.846
X6.1608Y-3.308
X6.1845Y-3.4773
X6.2081Y-3.2765
X6.479Y-3.7364
X6.5152Y-8.4537
X6.523Y-8.6584
X6.5564Y-6.8989
X6.5565Y-7.1229
X6.5585Y-7.0482
X6.6175Y-7.0403
X6.6175Y-8.4222
X6.6175Y-8.6191
X6.653Y-3.6072
X6.7368Y-3.8454
X7.2363Y-3.8521
X7.2964Y-4.14
X7.5309Y-7.1387
X7.5309Y-8.7017
X7.6333Y-8.6663
X7.6687Y-7.0561
X7.9955Y-3.438
X7.9955Y-3.6309
X8.0664Y-8.6545
X8.0703Y-6.8868
X8.0703Y-8.4616
X8.0742Y-7.0797
X8.1097Y-3.3986
X8.1097Y-3.5954
X8.1727Y-8.4222
X8.1727Y-8.6191
X8.1766Y-6.8474
X8.1805Y-7.0443
X9.1057Y-7.1309
X9.1057Y-8.7057
X9.1175Y-3.3946
X9.1963Y-7.0915
X9.2002Y-8.6663
X9.216Y-3.434
T2
X4.2364Y-5.48
X4.8853Y-3.5843
X4.9876Y-4.8
X6.1364Y-4.2766
X6.253Y-3.7525
X8.3164Y-6.24
T3
X3.6618Y-8.5626
X3.6618Y-8.7594
X3.663Y-6.9882
X3.663Y-7.185
X4.2327Y-8.5626
X4.2327Y-8.661
X4.2327Y-8.7594
X4.2339Y-6.9882
X4.2339Y-7.0866
X4.2339Y-7.185
X5.2366Y-6.9898
X5.2366Y-7.1866
X5.2382Y-8.5642
X5.2382Y-8.761
X5.8075Y-6.9898
X5.8075Y-7.0882
X5.8075Y-7.1866
X5.8091Y-8.5642
X5.8091Y-8.6626
X5.8091Y-8.761
X6.7929Y-8.563
X6.7929Y-8.6614
X6.7929Y-8.7598
X6.7937Y-6.9894
X6.7937Y-7.0878
X6.7937Y-7.1862
X7.3638Y-8.563
X7.3638Y-8.7598
X7.3646Y-6.9894
X7.3646Y-7.1862
X8.365Y-8.563
X8.365Y-8.6614
X8.365Y-8.7598
X8.3661Y-3.5433
X8.3661Y-3.6417
X8.3661Y-3.7402
X8.3661Y-6.9886
X8.3661Y-7.087
X8.3661Y-7.1854
X8.9358Y-8.563
X8.9358Y-8.7598
X8.937Y-3.5433
X8.937Y-3.7402
X8.937Y-6.9886
X8.937Y-7.1854
T4
X8.4631Y-6.4391
X8.5616Y-6.4391
X8.66Y-6.4391
X8.7584Y-6.4391
X8.8569Y-6.4391
T5
X3.2939Y-3.5556
X3.2939Y-3.654
X3.2939Y-4.1556
X3.2939Y-4.254
X3.2939Y-4.8536
X3.2939Y-4.9521
X4.4795Y-3.5827
X4.4795Y-3.6827
X4.4795Y-3.7827
X4.4795Y-3.8827
X4.4795Y-3.9827
X4.4795Y-4.0827
X4.4795Y-4.1827
X4.4795Y-4.2827
X4.4795Y-4.3827
X4.4795Y-4.4827
X4.4795Y-4.5827
X4.4795Y-4.6827
X4.4795Y-4.7827
X4.4795Y-4.8827
X5.2362Y-3.9308
X5.2362Y-4.5308
X5.3362Y-3.9308
X5.3362Y-4.5308
X5.36Y-6.354
X5.4362Y-3.9308
X5.4362Y-4.5308
X5.4584Y-6.354
X5.5362Y-3.9308
X5.5362Y-4.5308
X5.6362Y-3.9308
X5.6362Y-4.5308
X5.7362Y-3.9308
X5.7362Y-4.5308
X5.8362Y-3.9308
X5.8362Y-4.5308
X5.9362Y-3.9308
X5.9362Y-4.5308
X6.0362Y-3.9308
X6.0362Y-4.5308
X6.1362Y-3.9308
X6.1362Y-4.5308
X6.2362Y-3.9308
X6.2362Y-4.5308
X6.26Y-6.354
X6.3362Y-3.9308
X6.3362Y-4.5308
X6.3584Y-6.354
X6.4362Y-3.9308
X6.4362Y-4.5308
X6.5362Y-3.9308
X6.5362Y-4.5308
X6.6362Y-3.9308
X6.6362Y-4.5308
X6.7362Y-3.9308
X6.7362Y-4.5308
X6.8362Y-3.9308
X6.8362Y-4.5308
X6.9362Y-3.9308
X6.9362Y-4.5308
X7.0362Y-3.9308
X7.0362Y-4.5308
X7.1362Y-3.9308
X7.1362Y-4.5308
X7.1616Y-6.354
X7.2362Y-3.9308
X7.2362Y-4.5308
X7.26Y-6.354
X7.3362Y-3.9308
X7.3362Y-4.5308
X7.4362Y-3.9308
X7.4362Y-4.5308
X7.5362Y-3.9308
X7.5362Y-4.5308
T5
G00X5.5211Y-3.3919
M15
G01X5.4778Y-3.3919
M16
G05
G00X5.5211Y-3.6084
M15
G01X5.4778Y-3.6084
M16
G05
G00X5.5998Y-3.2974
M15
G01X5.5565Y-3.2974
M16
G05
G00X6.9317Y-3.3919
M15
G01X6.8884Y-3.3919
M16
G05
G00X6.9317Y-3.6084
M15
G01X6.8884Y-3.6084
M16
G05
G00X7.0104Y-3.2974
M15
G01X6.9671Y-3.2974
M16
G05
M30
